<svg xmlns="http://www.w3.org/2000/svg" width="811.445" height="789.276" viewBox="0 0 811.445 789.276"><defs><style>.a{fill:#676b6e;}.b{fill:#878a99;}.c{fill:#f2f2f2;}.d{fill:#414242;}.e{fill:#fff;}.f{fill:#bbb;}.g{fill:#c9c9c9;}.h{fill:#f0f0f0;}.i{fill:#f7e6cc;}.j{fill:#31bef1;}.k{fill:#868686;}.l{fill:#efefef;}.m{fill:#3dc2ff;}.n{fill:#8ebed4;}.o{fill:#1e8dd3;}.p{fill:#35a8f0;}.q{fill:#f5e4cc;}.r{fill:#f9e8cc;}.s{fill:#404141;}</style></defs><g transform="translate(0.019 0.03)"><g transform="translate(-0.019 -0.03)"><g transform="translate(176.65)"><ellipse class="a" cx="170.48" cy="98.425" rx="170.48" ry="98.425" transform="translate(141.2 408.724)"/><g transform="translate(179.888)"><ellipse class="b" cx="150.401" cy="86.842" rx="150.401" ry="86.842" transform="translate(1.44 1.47)"/><path class="c" d="M376.008,29.3c-58.8-33.9-154.105-33.9-212.843,0-22.343,12.876-36.13,28.81-41.481,45.479C119.1,98.8,133.619,123.291,165.4,141.635c58.8,33.926,153.958,33.926,212.7,0,22.313-12.876,36.13-28.81,41.481-45.45C422.192,72.138,407.64,47.649,376.008,29.3Z" transform="translate(-121.007 7.62)"/><path class="d" d="M273.1,176.448c-38.776,0-77.553-8.525-107.068-25.576C137.164,134.2,121.26,111.948,121.26,88.194s15.9-45.979,44.773-62.648c59.061-34.1,155.134-34.1,214.166,0h0c28.869,16.669,44.773,38.923,44.773,62.648s-15.9,46.008-44.773,62.677C350.684,168.01,311.878,176.448,273.1,176.448ZM273.1,3c-38.218,0-76.435,8.378-105.6,25.194-27.928,16.14-43.3,37.483-43.3,60.119s15.375,44.039,43.333,60.119c58.238,33.6,152.871,33.6,211.226,0,27.9-16.081,43.274-37.483,43.274-60.178s-15.375-44.1-43.3-60.119h0C349.625,11.377,311.349,3,273.1,3Z" transform="translate(-121.26 0.03)"/></g><g transform="translate(181.358 88.312)"><g transform="translate(0 0.029)"><path class="e" d="M121.76,30.02Z" transform="translate(-121.76 -30.02)"/></g><g transform="translate(300.773)"><path class="e" d="M224.07,30.01h0v0Z" transform="translate(-224.07 -30.01)"/></g></g><g transform="translate(0 36.219)"><path class="f" d="M422.586,64.288V63.23h0V42.592l-3.851,1.147A76.994,76.994,0,0,0,394.776,12.9L259.132,91.217l-74.054,21.931v20.579a161.275,161.275,0,0,1-19.2-9.349c-29.4-16.963-44.1-39.188-44.1-61.413V471.218a47.25,47.25,0,0,0,0,5h0c1.117,21.314,15.757,42.451,44.1,58.8,58.8,33.926,153.958,33.926,212.7,0,30.515-17.639,45.126-40.922,43.95-64V62.877A8.74,8.74,0,0,1,422.586,64.288Zm0,2.264v1.088a2.418,2.418,0,0,1-.176-1.088Z" transform="translate(59.515 -11.107)"/><g transform="translate(0 16.786)"><path class="f" d="M60.07,18c0,1.588.323,1.617.794.441Z" transform="translate(-60.07 -18)"/><path class="a" d="M173.975,502.285V95.326c-2.763-1.352-5.5-2.763-8.114-4.292-29.4-16.963-44.1-39.158-44.1-61.383V437.874a47.233,47.233,0,0,0,0,5h0c1.117,21.314,15.728,42.48,44.1,58.8,2.646,1.558,5.409,2.94,8.2,4.38A26.4,26.4,0,0,1,173.975,502.285Z" transform="translate(59.476 4.599)"/><path class="a" d="M142.26,477.972c4.116,1.793,8.32,3.469,12.641,4.968V49.023c-.382-1.088-.735-2.175-1.117-3.293l-7.879,2.352v21.96c-1.264-.529-2.44-1.117-3.645-1.646Z" transform="translate(99.364 35.791)"/></g><path class="c" d="M314.7,64.53V63.472h0V42.893l-3.851,1.147A77.17,77.17,0,0,0,286.858,13.23L176.85,76.7l18.638,5.615a77.171,77.171,0,0,1,23.989,30.78l3.851-1.147v20.579h0V540.664a50.916,50.916,0,0,1-1.176,13.641,182.86,182.86,0,0,0,48.654-18.785c30.515-17.639,45.126-40.922,43.921-64V63.383C314.728,63.824,314.7,64.177,314.7,64.53Z" transform="translate(166.462 -10.467)"/><path class="d" d="M273.087,563.36c-38.776,0-77.553-8.526-107.068-25.547-27.6-15.963-43.48-37.248-44.685-59.972a52.354,52.354,0,0,1,0-5.262V64.384h2.94c0,22.666,15.375,44.1,43.3,60.149a157.678,157.678,0,0,0,16.992,8.408V113.361l74.936-22.313L395.884,12.29l.794.647a79.375,79.375,0,0,1,23.9,30.163l4.468-1.323V472.519c1.264,24.694-14.7,47.919-44.685,65.293C350.669,554.834,311.864,563.36,273.087,563.36ZM124.185,81.993V472.754a46.13,46.13,0,0,0,0,4.939c1.146,21.813,16.492,42.245,43.215,57.679,58.238,33.632,152.871,33.632,211.226,0,29.075-16.786,44.421-39.041,43.215-62.648V68.852h-.206V67.764h0V45.716l-3.234.97-.5-1.264a75.054,75.054,0,0,0-22.754-29.4l-134.7,77.729-73.025,21.725v21.813l-2.028-.823A162.688,162.688,0,0,1,166.019,127C144.382,114.566,130.006,98.927,124.185,81.993Z" transform="translate(58.642 -12.29)"/></g><g transform="translate(243.768 15.938)"><path class="g" d="M336.392,117.487c52.564-30.368,58.032-77.611,16.463-111.507a.617.617,0,0,0-.588,0L143.774,126.512a.5.5,0,0,0,0,.911C202.512,150.971,283.974,147.737,336.392,117.487Z" transform="translate(-142.038 -4.396)"/><path class="g" d="M334.124,123.071c52.123-30.1,57.944-76.788,17.639-110.626a2.528,2.528,0,0,0-2.94-.235L143.77,116.4v17.257C202.125,155.791,282.794,152.7,334.124,123.071Z" transform="translate(-141.475 7.13)"/><path class="h" d="M325.937,107.464c26.047-15.052,40.511-34.22,43.451-53.887-2.264-15.022-11.23-29.751-26.988-42.6a.529.529,0,0,0-.588,0L148.46,122.692C205.4,140.213,277.871,135.216,325.937,107.464Z" transform="translate(-132.377 5.274)"/><path class="d" d="M230.951,145.352a234.511,234.511,0,0,1-86.725-15.816,2,2,0,0,1-1.235-1.705,2.058,2.058,0,0,1,1-1.852L352.483,5.652a2,2,0,0,1,2.234.176c19.609,15.993,29.545,35.66,27.958,55.445-1.793,22.137-17.639,42.892-44.6,58.473h0C308.68,136.709,269.933,145.352,230.951,145.352Zm-83.785-17.639c59.237,23.254,138.583,18.962,189.442-10.378h0c26.106-15.081,41.422-35.043,43.127-56.18,1.5-18.609-7.849-37.248-26.458-52.505Z" transform="translate(-142.989 -5.391)"/></g><g transform="translate(231.149 22.138)"><g transform="translate(13.15 7.591)"><g transform="translate(1.418 1.371)"><path class="i" d="M201.854,16.314c13.317,7.7,13.317,20.167,0,27.84s-34.9,7.7-48.213,0-13.317-20.138,0-27.84S188.536,8.642,201.854,16.314Z" transform="translate(-143.653 -10.549)"/></g><g transform="translate(1.154 8.103)"><path class="i" d="M201.764,18.6c13.317,7.7,13.317,20.138,0,27.84s-34.9,7.673-48.213,0-13.317-20.138,0-27.84S188.446,10.932,201.764,18.6Z" transform="translate(-143.563 -12.839)"/></g><g transform="translate(1.705 8.114)"><path class="j" d="M201.282,18.6c-13.317-7.673-34.9-7.673-48.213,0a19.491,19.491,0,0,0-9.319,10.084A18.844,18.844,0,0,0,153.3,39.764c13.317,7.7,34.9,7.7,48.213,0a19.668,19.668,0,0,0,9.319-10.054A18.815,18.815,0,0,0,201.282,18.6Z" transform="translate(-143.75 -12.843)"/></g><path class="d" d="M178.683,52.232a50.83,50.83,0,0,1-24.812-5.88c-6.909-4-10.7-9.378-10.7-15.169s3.792-11.171,10.7-15.169c13.67-7.908,35.954-7.908,49.654,0,6.909,4,10.7,9.378,10.7,15.169s-3.792,11.171-10.7,15.169a50.947,50.947,0,0,1-24.841,5.88Zm0-39.335a47.625,47.625,0,0,0-23.372,5.586c-5.88,3.44-9.29,7.938-9.29,12.671s3.293,9.231,9.29,12.671c12.876,7.438,33.867,7.438,46.773,0,5.88-3.44,9.26-7.967,9.26-12.671s-3.293-9.231-9.26-12.671a47.831,47.831,0,0,0-23.4-5.7Z" transform="translate(-143.17 -10.082)"/></g><g transform="translate(0 45.538)"><g transform="translate(1.543 1.513)"><path class="i" d="M152.27,24.784a3.293,3.293,0,0,1,0,6.232,11.759,11.759,0,0,1-10.818,0,3.293,3.293,0,0,1,0-6.232,12.083,12.083,0,0,1,10.818,0Z" transform="translate(-139.222 -23.505)"/></g><g transform="translate(1.538 5.114)"><ellipse class="i" cx="7.644" cy="4.41" rx="7.644" ry="4.41"/></g><g transform="translate(2.244 5.09)"><path class="j" d="M151.807,26.04a11.759,11.759,0,0,0-10.819,0,4.586,4.586,0,0,0-1.529,1.323,4.88,4.88,0,0,0,1.529,1.294,11.759,11.759,0,0,0,10.819,0,4.879,4.879,0,0,0,1.529-1.294,4.587,4.587,0,0,0-1.529-1.323Z" transform="translate(-139.46 -24.722)"/></g><path class="d" d="M147.879,34.778a12.318,12.318,0,0,1-6.115-1.47,4.7,4.7,0,0,1,0-8.819,13.229,13.229,0,0,1,12.23,0,4.7,4.7,0,0,1,0,8.819A12.318,12.318,0,0,1,147.879,34.778Zm0-8.819a9.555,9.555,0,0,0-4.674,1.117c-.97.559-1.529,1.235-1.529,1.852s.559,1.323,1.529,1.881a10.466,10.466,0,0,0,9.349,0c.97-.559,1.529-1.235,1.529-1.881s-.559-1.294-1.529-1.852a9.555,9.555,0,0,0-4.674-1.117Z" transform="translate(-138.697 -22.99)"/></g><g transform="translate(79.091)"><g transform="translate(1.445 1.455)"><path class="i" d="M179.11,9.273a3.293,3.293,0,0,1,0,6.232,11.759,11.759,0,0,1-10.789,0,3.293,3.293,0,0,1,0-6.232A12.024,12.024,0,0,1,179.11,9.273Z" transform="translate(-166.092 -7.995)"/></g><g transform="translate(1.445 5.156)"><path class="i" d="M179.11,10.565a3.293,3.293,0,0,1,0,6.232,11.759,11.759,0,0,1-10.789,0,3.293,3.293,0,0,1,0-6.232,11.759,11.759,0,0,1,10.789,0Z" transform="translate(-166.092 -9.254)"/></g><g transform="translate(2.176 5.012)"><path class="j" d="M178.628,10.483a12.024,12.024,0,0,0-10.789,0,5.086,5.086,0,0,0-1.5,1.264,4.675,4.675,0,0,0,1.5,1.264,11.759,11.759,0,0,0,10.789,0,5.027,5.027,0,0,0,1.5-1.264,5.5,5.5,0,0,0-1.5-1.264Z" transform="translate(-166.34 -9.205)"/></g><path class="d" d="M174.655,19.2a12.318,12.318,0,0,1-6.115-1.47,5.174,5.174,0,0,1-2.94-4.38A5.145,5.145,0,0,1,168.54,9,13.288,13.288,0,0,1,180.8,9h0a5.145,5.145,0,0,1,2.94,4.351,5.2,5.2,0,0,1-2.94,4.38,12.494,12.494,0,0,1-6.144,1.47Zm0-8.819A9.554,9.554,0,0,0,169.98,11.5c-.97.559-1.529,1.235-1.529,1.852s.559,1.323,1.529,1.881a10.525,10.525,0,0,0,9.378,0c.941-.559,1.5-1.235,1.5-1.881s-.559-1.294-1.5-1.852h0A9.672,9.672,0,0,0,174.655,10.38Z" transform="translate(-165.6 -7.5)"/></g><g transform="translate(32.377 21.959)"><g transform="translate(13.112 22.725)"><ellipse class="d" cx="3.557" cy="2.058" rx="3.557" ry="2.058"/></g><g transform="translate(26.143 15.163)"><path class="d" d="M164.739,20.722a1.529,1.529,0,0,1,0,2.94,5.439,5.439,0,0,1-5.027,0,1.529,1.529,0,0,1,0-2.94,5.615,5.615,0,0,1,5.027,0Z" transform="translate(-158.603 -20.128)"/></g><g transform="translate(39.255 7.586)"><path class="d" d="M169.2,18.166a1.529,1.529,0,0,1,0,2.94,5.615,5.615,0,0,1-5.027,0,1.529,1.529,0,0,1,0-2.94,5.439,5.439,0,0,1,5.027,0Z" transform="translate(-163.063 -17.551)"/></g><g transform="translate(0 15.14)"><ellipse class="d" cx="3.557" cy="2.058" rx="3.557" ry="2.058"/></g><g transform="translate(13.112 7.585)"><ellipse class="d" cx="3.557" cy="2.058" rx="3.557" ry="2.058"/></g><g transform="translate(26.223)"><ellipse class="d" cx="3.557" cy="2.058" rx="3.557" ry="2.058"/></g></g></g><g transform="translate(308.679 51.711)"><g transform="translate(0 47.106)"><g transform="translate(0 15.706)"><g transform="translate(13.474 23.538)"><path class="d" d="M175.936,47.572c1.441.823,1.441,2.146,0,2.94a5.88,5.88,0,0,1-5.2,0c-1.44-.853-1.44-2.175,0-2.94a5.615,5.615,0,0,1,5.2,0Z" transform="translate(-169.652 -46.933)"/></g><g transform="translate(27.178 15.699)"><path class="d" d="M180.476,44.866a1.588,1.588,0,0,1,0,2.94,5.88,5.88,0,0,1-5.174,0,1.587,1.587,0,0,1,0-2.94,5.88,5.88,0,0,1,5.174,0Z" transform="translate(-174.314 -44.266)"/></g><g transform="translate(40.643 7.842)"><path class="d" d="M185.085,42.2a1.588,1.588,0,0,1,0,2.94,5.88,5.88,0,0,1-5.2,0,1.588,1.588,0,0,1,0-2.94,5.88,5.88,0,0,1,5.2,0Z" transform="translate(-178.894 -41.594)"/></g><g transform="translate(0 15.691)"><path class="d" d="M171.216,44.871a1.588,1.588,0,0,1,0,2.94,5.88,5.88,0,0,1-5.2,0,1.617,1.617,0,0,1,0-2.94,5.88,5.88,0,0,1,5.2,0Z" transform="translate(-165.069 -44.264)"/></g><g transform="translate(13.567 7.842)"><path class="d" d="M175.875,42.2a1.588,1.588,0,0,1,0,2.94,5.88,5.88,0,0,1-5.2,0,1.588,1.588,0,0,1,0-2.94A5.88,5.88,0,0,1,175.875,42.2Z" transform="translate(-169.684 -41.594)"/></g><g transform="translate(27.086)"><path class="d" d="M180.537,39.526c1.441.853,1.441,2.175,0,2.94a5.556,5.556,0,0,1-5.174,0c-1.441-.823-1.441-2.146,0-2.94a5.88,5.88,0,0,1,5.174,0Z" transform="translate(-174.283 -38.926)"/></g></g><g transform="translate(40.643)"><g transform="translate(13.636 15.699)"><path class="d" d="M189.816,39.531c1.441.853,1.441,2.175,0,2.94a5.615,5.615,0,0,1-5.2,0c-1.441-.823-1.441-2.146,0-2.94a5.88,5.88,0,0,1,5.2,0Z" transform="translate(-183.533 -38.924)"/></g><g transform="translate(27.311 7.849)"><path class="d" d="M194.375,36.861a1.587,1.587,0,0,1,0,2.94,5.615,5.615,0,0,1-5.2,0,1.588,1.588,0,0,1,0-2.94A5.88,5.88,0,0,1,194.375,36.861Z" transform="translate(-188.184 -36.254)"/></g><g transform="translate(0 7.849)"><path class="d" d="M185.085,36.861a1.587,1.587,0,0,1,0,2.94,5.615,5.615,0,0,1-5.2,0,1.588,1.588,0,0,1,0-2.94,5.88,5.88,0,0,1,5.2,0Z" transform="translate(-178.894 -36.254)"/></g><g transform="translate(13.729)"><path class="d" d="M189.755,34.19a1.587,1.587,0,0,1,0,2.94,5.88,5.88,0,0,1-5.2,0,1.588,1.588,0,0,1,0-2.94A5.88,5.88,0,0,1,189.755,34.19Z" transform="translate(-183.564 -33.584)"/></g></g></g><g transform="translate(67.954 15.709)"><g transform="translate(0 15.699)"><g transform="translate(13.611 15.699)"><path class="d" d="M199.005,34.191a1.588,1.588,0,0,1,0,2.94,5.7,5.7,0,0,1-5.2,0,1.588,1.588,0,0,1,0-2.94A5.88,5.88,0,0,1,199.005,34.191Z" transform="translate(-192.814 -33.584)"/></g><g transform="translate(27.223 7.849)"><path class="d" d="M203.635,31.521a1.587,1.587,0,0,1,0,2.94,5.88,5.88,0,0,1-5.2,0,1.588,1.588,0,0,1,0-2.94A5.88,5.88,0,0,1,203.635,31.521Z" transform="translate(-197.444 -30.914)"/></g><g transform="translate(0 7.849)"><path class="d" d="M194.375,31.521a1.587,1.587,0,0,1,0,2.94,5.88,5.88,0,0,1-5.2,0,1.588,1.588,0,0,1,0-2.94A5.88,5.88,0,0,1,194.375,31.521Z" transform="translate(-188.184 -30.914)"/></g><g transform="translate(13.611)"><path class="d" d="M199.005,28.851a1.588,1.588,0,0,1,0,2.94,5.88,5.88,0,0,1-5.2,0,1.588,1.588,0,0,1,0-2.94A5.88,5.88,0,0,1,199.005,28.851Z" transform="translate(-192.814 -28.244)"/></g></g><g transform="translate(27.223)"><g transform="translate(13.582 15.699)"><path class="d" d="M208.255,28.851a1.588,1.588,0,0,1,0,2.94,5.88,5.88,0,0,1-5.2,0,1.588,1.588,0,0,1,0-2.94,5.88,5.88,0,0,1,5.2,0Z" transform="translate(-202.064 -28.244)"/></g><g transform="translate(27.193 7.849)"><path class="d" d="M212.885,26.18a1.588,1.588,0,0,1,0,2.94,5.88,5.88,0,0,1-5.2,0,1.588,1.588,0,0,1,0-2.94A5.88,5.88,0,0,1,212.885,26.18Z" transform="translate(-206.694 -25.574)"/></g><g transform="translate(0 7.849)"><path class="d" d="M203.635,26.181a1.587,1.587,0,0,1,0,2.94,5.88,5.88,0,0,1-5.2,0,1.588,1.588,0,0,1,0-2.94,5.88,5.88,0,0,1,5.2,0Z" transform="translate(-197.444 -25.574)"/></g><g transform="translate(13.582)"><path class="d" d="M208.255,23.511a1.588,1.588,0,0,1,0,2.94,5.88,5.88,0,0,1-5.2,0,1.588,1.588,0,0,1,0-2.94,5.88,5.88,0,0,1,5.2,0Z" transform="translate(-202.064 -22.904)"/></g></g></g><g transform="translate(122.211)"><g transform="translate(13.682 15.709)"><path class="d" d="M217.485,23.511a1.588,1.588,0,0,1,0,2.94,5.88,5.88,0,0,1-5.2,0,1.588,1.588,0,0,1,0-2.94,5.88,5.88,0,0,1,5.2,0Z" transform="translate(-211.294 -22.904)"/></g><g transform="translate(27.205 7.86)"><path class="d" d="M222.085,20.841a1.588,1.588,0,0,1,0,2.94,5.88,5.88,0,0,1-5.2,0,1.587,1.587,0,0,1,0-2.94,5.88,5.88,0,0,1,5.2,0Z" transform="translate(-215.894 -20.234)"/></g><g transform="translate(0 7.849)"><ellipse class="d" cx="3.675" cy="2.117" rx="3.675" ry="2.117"/></g><g transform="translate(13.611)"><ellipse class="d" cx="3.675" cy="2.117" rx="3.675" ry="2.117"/></g></g></g></g><g transform="translate(0 511.418)"><path class="a" d="M132.749,264.3,22.917,200.884c-6.262-3.616-5.468-9.937,1.764-14.111l16.228-9.378c7.232-4.175,18.2-4.645,24.459-1.029L175.2,239.807c6.262,3.616,5.468,9.937-1.764,14.111L157.208,263.3C149.976,267.471,139.04,267.912,132.749,264.3Z" transform="translate(36.316 -173.932)"/><g transform="translate(0 10.58)"><path class="a" d="M302.132,442.775,2.976,268.708C-1.463,266.15-.9,261.652,4.24,258.683l137.819-78.552a19.256,19.256,0,0,1,17.374-.706L458.648,353.463c4.469,2.587,3.91,7.085-1.235,10.054L319.595,442.04A19.4,19.4,0,0,1,302.132,442.775Z" transform="translate(0.019 -177.224)"/><g transform="translate(41.416)"><g transform="translate(0 14.024)"><g transform="translate(1.594 1.554)"><path class="k" d="M20.839,240.8s8.672-.941,6.909,8.819l110.714-64.235a24.018,24.018,0,0,1,22.872.706L401.37,324.265c9.7-4.468,18.638-5.88,22.637.617,7.261,11.759,2.381,18.315-1.705,22.284a14.7,14.7,0,0,1-3.763,2.94h-.206l-115.094,66.94a23.754,23.754,0,0,1-22.49-.706L22.809,267.585S5.758,257.207,20.839,240.8Z" transform="translate(-14.612 -182.83)"/></g><path class="d" d="M281.007,418.718,23.038,269.933a19.579,19.579,0,0,1-8.819-12.759c-.764-5.38,1.411-10.877,6.5-16.4l.382-.441h.588a9,9,0,0,1,6.938,2.352,7.791,7.791,0,0,1,1.94,5.2l108.244-62.853a25.459,25.459,0,0,1,24.342.764L402.481,323.673c11.994-5.321,20.02-4.792,23.93,1.558,7.673,12.553,2.558,19.844-1.911,24.165a16.316,16.316,0,0,1-4.322,3.351l-115.27,66.793a25.106,25.106,0,0,1-23.96-.764Zm122.061-91.87-.735.353L161.592,188.5a22.343,22.343,0,0,0-21.284-.706L26.654,253.735l.588-3.322a6.438,6.438,0,0,0-.882-5.644,5.263,5.263,0,0,0-3.763-1.382c-4.086,4.616-5.88,9.084-5.262,13.317a16.786,16.786,0,0,0,7.32,10.554L282.565,416.013a22.048,22.048,0,0,0,20.932.706L418.826,349.9a12.992,12.992,0,0,0,3.41-2.675c4.351-4.2,7.879-9.878,1.5-20.344a8.114,8.114,0,0,0-7.467-3.7A33.513,33.513,0,0,0,403.069,326.848Z" transform="translate(-14.069 -182.301)"/></g><g transform="translate(3.911)"><g transform="translate(1.577 1.644)"><path class="b" d="M417.792,330.52,158.882,181.353a24.018,24.018,0,0,0-22.872-.706L20.887,247.44c-5.88,4.351-7.085,13.023-.529,16.845L278.3,413.011a23.753,23.753,0,0,0,22.49.706L415.94,347.071C424.142,342.132,423.672,334.43,417.792,330.52Z" transform="translate(-15.936 -178.09)"/></g><g transform="translate(2.235 7.641)"><path class="h" d="M20.511,249.392l115.123-66.7a24.018,24.018,0,0,1,22.872.706l258.91,149.225a9.819,9.819,0,0,1,3.616,4.2,12.877,12.877,0,0,1-5.5,5.88L300.411,409.377a23.519,23.519,0,0,1-22.49-.706L19.982,259.917a8.82,8.82,0,0,1-3.822-4.5,12.318,12.318,0,0,1,4.351-6.027Z" transform="translate(-16.16 -180.13)"/></g><path class="d" d="M278.544,415.477,20.6,266.722a10.054,10.054,0,0,1-5.2-8.437,13.259,13.259,0,0,1,5.88-11.171l115.212-66.852a25.606,25.606,0,0,1,24.371.735l258.91,149.167h0a10.584,10.584,0,0,1,5.057,9,12.729,12.729,0,0,1-7.056,10.231L302.592,416.124A25.576,25.576,0,0,1,291.3,418.8a25.223,25.223,0,0,1-12.759-3.322ZM159.129,183.79a22.342,22.342,0,0,0-21.284-.706l-115.006,66.7a10.142,10.142,0,0,0-4.322,8.5,7.056,7.056,0,0,0,3.675,5.88l257.94,148.784a22.078,22.078,0,0,0,20.9.705l115.094-66.675a9.672,9.672,0,0,0,5.5-7.614,7.467,7.467,0,0,0-3.616-6.262Z" transform="translate(-15.4 -177.531)"/></g><g transform="translate(62.005 31.698)"><g transform="translate(29.633)"><path class="d" d="M49.031,190.332h0c.735-.412.647-1.176-.206-1.676h0a3.322,3.322,0,0,0-2.94,0h-.147c-.735.412-.647,1.176.206,1.646h0a3.234,3.234,0,0,0,3.087.029Z" transform="translate(-45.241 -188.313)"/></g><g transform="translate(0 2.224)"><path class="d" d="M38.8,205.769l25.606-14.7c.735-.412.647-1.176-.206-1.646h0a3.233,3.233,0,0,0-2.94,0l-25.606,14.7c-.735.412-.647,1.176.206,1.676h0a3.322,3.322,0,0,0,2.94-.029Z" transform="translate(-35.161 -189.07)"/></g></g><g transform="translate(38.449 108.841)"><g transform="translate(19.607 11.047)"><path class="l" d="M48.466,232.595l-12.377-7.232A3.94,3.94,0,0,1,34,222.805a4.116,4.116,0,0,1,.265-3.087,2.94,2.94,0,0,1,1.617-1.323h0a2.94,2.94,0,0,1,2.028.235l12.876,7.585a5.7,5.7,0,0,1,1.646,2.322,3.322,3.322,0,0,1-1.881,4.38,1.586,1.586,0,0,1-.647,0,3.2,3.2,0,0,1-1.441-.323ZM36.471,220.336h0a.882.882,0,0,0-.382.353,2.058,2.058,0,0,0,0,1.47,1.911,1.911,0,0,0,1.029,1.294l12.524,7.291a.529.529,0,0,0,.412,0c.441,0,.735-.911.47-1.823a4.734,4.734,0,0,0-.882-1.205L37,220.365a.677.677,0,0,0-.323,0Z" transform="translate(-33.817 -218.312)"/></g><path class="l" d="M41.765,228.712l-12.377-7.2a4.086,4.086,0,0,1-2.087-2.587,4.174,4.174,0,0,1,.265-2.94,2.7,2.7,0,0,1,1.646-1.323h0a2.675,2.675,0,0,1,2,.206l12.906,7.526a6.614,6.614,0,0,1,1.646,2.322,3.41,3.41,0,0,1-1.881,4.41,2.678,2.678,0,0,1-.676,0A3.411,3.411,0,0,1,41.765,228.712ZM29.653,216.541h0a.647.647,0,0,0-.353.323,1.97,1.97,0,0,0,0,1.5,2.175,2.175,0,0,0,1.029,1.294l12.494,7.261a.647.647,0,0,0,.441,0c.412,0,.706-.941.441-1.823a4.057,4.057,0,0,0-.853-1.205l-12.671-7.379a.557.557,0,0,0-.294,0Z" transform="translate(-27.148 -214.554)"/><g transform="translate(39.263 22.546)"><path class="l" d="M45.668,230.857l-3.116-1.734a5.674,5.674,0,0,1-1.852-2.44,3.969,3.969,0,0,1,.265-3.087,2.763,2.763,0,0,1,1.617-1.323,3.852,3.852,0,0,1,2,.206l3.116,1.734a4.2,4.2,0,0,1,1.823,2.44,4.263,4.263,0,0,1,0,2.646,2.94,2.94,0,0,1-1.823,1.764,1.678,1.678,0,0,1-.529,0A4.175,4.175,0,0,1,45.668,230.857ZM43.11,224.3a.794.794,0,0,0-.323.294,2.146,2.146,0,0,0,0,1.5,4.467,4.467,0,0,0,1,1.293l2.763,1.558h.588a.794.794,0,0,0,.441-.5,2.028,2.028,0,0,0,0-1.323,2.176,2.176,0,0,0-.823-1.205l-2.94-1.617a1.853,1.853,0,0,0-.617,0Z" transform="translate(-40.503 -222.223)"/></g></g><g transform="translate(24.055 13.055)"><g transform="translate(1.018 1.06)"><path class="j" d="M26.308,248.295l111.478-64.176a16.845,16.845,0,0,1,16.022.5l232.011,133.5c4.116,2.734,4.439,8.143-1.323,11.583L273.018,393.787a16.551,16.551,0,0,1-15.757-.5L25.926,260.084a6.7,6.7,0,0,1,.382-11.789Z" transform="translate(-22.598 -182.332)"/></g><path class="d" d="M257.4,394.9,26.1,261.694a7.761,7.761,0,0,1,.382-13.611l111.507-64.206a17.845,17.845,0,0,1,17.022.529l232.07,133.527a7.32,7.32,0,0,1,3.5,6.262,8.819,8.819,0,0,1-4.909,7.115L274.16,395.427A17.639,17.639,0,0,1,257.4,394.9ZM139.1,185.729,27.391,249.906h0a5.556,5.556,0,0,0-2.94,4.909,5.5,5.5,0,0,0,2.793,5.056l231.335,133.2a15.434,15.434,0,0,0,14.7.5l111.449-64.088a6.761,6.761,0,0,0,3.881-5.35,5.233,5.233,0,0,0-2.528-4.439L154.068,186.229a15.758,15.758,0,0,0-7.937-2.175A15.551,15.551,0,0,0,139.1,185.729Z" transform="translate(-22.252 -181.972)"/></g><g transform="translate(275.152 239.416)"><path class="l" d="M108.828,272.258l1.911-.823a18.168,18.168,0,0,1,0-11.759l-1.97-.706A20.02,20.02,0,0,0,108.828,272.258Z" transform="translate(-107.664 -258.97)"/></g><g transform="translate(340.45 203.006)"><path class="l" d="M131.211,260.329a2.94,2.94,0,0,1-1.323-2.734,6.409,6.409,0,0,1,2.94-5.2l9.466-5.468a2.528,2.528,0,0,1,2.528,0,2.94,2.94,0,0,1,1.294,2.734,6.526,6.526,0,0,1-2.793,5.233l-9.437,5.439a2.706,2.706,0,0,1-1.441.412A2.029,2.029,0,0,1,131.211,260.329Zm10.936-7.379a4.409,4.409,0,0,0,1.735-3.41,1.235,1.235,0,0,0-.265-.911h-.441l-9.437,5.439a4.439,4.439,0,0,0-1.764,3.41,1.264,1.264,0,0,0,.265.941.912.912,0,0,0,.441,0Z" transform="translate(-129.876 -246.585)"/></g></g></g></g><g transform="translate(209.458 201.144)"><g transform="translate(3.998)"><path class="m" d="M138.764,95.05,95.842,70.237a8.614,8.614,0,0,0-8.143-.794L73,78.263,82.525,95.2v30.368c0,9.7,5.88,20.961,13.17,25.165l26.811,15.493L133,184.832l14.964-9.113h0a12.377,12.377,0,0,0,3.822-10.142V120.185C151.934,110.6,146.055,99.224,138.764,95.05Z" transform="translate(-71.795 -67.652)"/><path class="e" d="M138.7,96.6,95.753,71.816a8.819,8.819,0,0,0-8.114-.941L72.94,79.7l9.525,16.933v30.515c0,9.7,5.88,20.961,13.141,25.165l26.841,15.463,8.143-34.1,21.137-11.759C151.874,112.062,145.965,100.8,138.7,96.6Z" transform="translate(-71.911 -64.703)"/><path class="d" d="M133.533,187.07l-10.877-19.344L96.2,152.409c-7.555-4.38-13.7-16.081-13.7-26.106V96.112L72.59,78.473l15.463-9.378a9.731,9.731,0,0,1,9.26,1.088l42.951,24.783c7.555,4.351,13.7,16.051,13.7,26.076v45.273a13.523,13.523,0,0,1-4.263,11.024ZM77,83.294l7.555,12.23V126.3c0,9.349,5.674,20.2,12.612,24.224l27.076,15.64.941,9.76,26.223-14.993.235-40.011c0-9.319-5.644-20.2-12.612-24.224L96.109,71.917Z" transform="translate(-72.59 -68.391)"/></g><g transform="translate(0 8.355)"><path class="n" d="M127.692,178.448,84.77,153.636C77.48,149.462,71.6,138.2,71.6,128.648V83.139c0-9.7,5.88-14.17,13.17-9.966l42.921,24.783c7.261,4.2,13.17,15.463,13.17,25.165v45.361C140.862,178.184,134.953,182.623,127.692,178.448Z" transform="translate(-70.512 -70.535)"/><path class="d" d="M133.642,181.792a11.759,11.759,0,0,1-5.88-1.705L84.93,155.274c-7.555-4.351-13.7-16.051-13.7-26.076V83.837c0-5.5,1.852-9.731,5.086-11.583a9.5,9.5,0,0,1,9.7.676l42.951,24.812c7.526,4.351,13.7,16.051,13.7,26.076V169.18c0,5.5-1.881,9.731-5.115,11.583a7.76,7.76,0,0,1-3.91,1.029Zm-4.674-3.587a7.379,7.379,0,0,0,7.526.676c2.528-1.47,4-5,4-9.7V123.818c0-9.349-5.644-20.2-12.612-24.224L84.93,74.811a7.467,7.467,0,0,0-7.526-.706c-2.558,1.47-4,5.027-4,9.731v45.508c0,9.319,5.644,20.2,12.612,24.224Z" transform="translate(-71.23 -71.233)"/></g><g transform="translate(14.721 38.654)"><path class="e" d="M116.518,108.658c-2.587-7.673-8.525-14.023-13.905-14.7-2.5-.382-4.263,1.235-4.645,4.116h0A17.168,17.168,0,0,0,93,88.343c-5.38-5.38-11.348-5.88-13.905-1.205A15.7,15.7,0,0,0,78.8,98.662a25.781,25.781,0,0,0,2.352,5.409l13.7,25.224c1.558,2.94,4.145,4.351,5.7,3.293l13.729-9.378a6.262,6.262,0,0,0,2.352-2.7A16.992,16.992,0,0,0,116.518,108.658Z" transform="translate(-73.118 -76.875)"/><path class="d" d="M98.882,132.666a4.848,4.848,0,0,1-.882,0,7.849,7.849,0,0,1-4.616-4.086l-13.7-25.224a28.752,28.752,0,0,1-2.44-5.762,16.61,16.61,0,0,1,.382-12.347,6.879,6.879,0,0,1,5.145-3.7,13.2,13.2,0,0,1,10.407,4.7,18.08,18.08,0,0,1,4.2,6.909,5.7,5.7,0,0,1,.941-.941A4.88,4.88,0,0,1,102,91.391c5.88.882,12.024,7.438,14.7,15.552h0a18.374,18.374,0,0,1,.265,12.641,7.614,7.614,0,0,1-2.734,3.175L100.5,132.137A2.939,2.939,0,0,1,98.882,132.666ZM83.859,83.659h-.794a4.763,4.763,0,0,0-3.557,2.587,14.876,14.876,0,0,0-.206,10.7,25.607,25.607,0,0,0,2.264,5.2L95.3,127.374a6.115,6.115,0,0,0,3.2,2.94,1.117,1.117,0,0,0,.941,0l13.7-9.2a5.2,5.2,0,0,0,1.97-2.234,15.9,15.9,0,0,0-.323-11.083c-2.44-7.291-8.055-13.347-13.053-14.141a2.7,2.7,0,0,0-2.058.441,3.939,3.939,0,0,0-1.323,2.763l-.147.941h-1.94l-.147-1.205A15.581,15.581,0,0,0,91.8,87.775a12.053,12.053,0,0,0-7.938-4.116Z" transform="translate(-76.237 -81.539)"/></g></g><g transform="translate(209.135 311.384)"><g transform="translate(4.145)"><path class="m" d="M138.674,132.593,95.753,107.811a8.643,8.643,0,0,0-8.114-.941l-14.7,8.819,9.525,16.933v30.515c0,9.672,5.88,20.932,13.17,25.135l26.811,15.493,10.466,18.639,14.993-9.113h0a12.494,12.494,0,0,0,3.822-10.172V157.729C151.845,148.057,145.965,136.8,138.674,132.593Z" transform="translate(-71.735 -105.163)"/><path class="e" d="M138.634,134.141,95.683,109.358a8.555,8.555,0,0,0-8.114-.941l-14.7,8.819L82.4,134.17v30.486c0,9.7,5.88,20.961,13.141,25.165L122.524,205.4l8.143-34.131,21.108-11.906C151.775,149.546,145.9,138.345,138.634,134.141Z" transform="translate(-71.87 -102.183)"/><path class="d" d="M133.443,224.631l-10.877-19.344L96.107,189.941c-7.555-4.351-13.7-16.081-13.7-26.076V133.643L72.53,116l15.463-9.349a9.643,9.643,0,0,1,9.2.911l42.951,24.783c7.555,4.38,13.7,16.081,13.7,26.076v45.391a13.435,13.435,0,0,1-4.38,11.171ZM76.852,120.914l7.555,12.259v30.78c0,9.319,5.644,20.2,12.612,24.195l27.076,15.64,2.763,9.025,24.4-14.258.235-40.011c0-9.319-5.644-20.2-12.612-24.195L95.931,109.566Z" transform="translate(-72.53 -105.889)"/></g><g transform="translate(0 8.312)"><path class="n" d="M127.622,216.008,84.671,191.167C77.41,186.963,71.53,175.7,71.53,166V120.611c0-9.7,5.88-14.141,13.141-9.966l42.951,24.812c7.261,4.175,13.17,15.434,13.17,25.135v45.391C140.792,215.744,134.883,220.212,127.622,216.008Z" transform="translate(-70.325 -108.019)"/><path class="d" d="M133.65,219.352a11.554,11.554,0,0,1-5.88-1.705L84.82,192.864c-7.555-4.38-13.7-16.081-13.7-26.106v-45.45c0-5.5,1.852-9.7,5.086-11.583a9.5,9.5,0,0,1,9.7.706l42.921,24.783c7.555,4.351,13.7,16.051,13.7,26.076v45.391c0,5.468-1.852,9.7-5.086,11.553A7.467,7.467,0,0,1,133.65,219.352Zm-4.7-3.587a7.467,7.467,0,0,0,7.555.706c2.528-1.47,4-5.027,4-9.7V161.378c0-9.319-5.674-20.2-12.612-24.224L84.937,112.489a7.467,7.467,0,0,0-7.526-.676c-2.558,1.47-4,5-4,9.7v45.361c0,9.349,5.644,20.2,12.612,24.224Z" transform="translate(-71.12 -108.717)"/></g><g transform="translate(12.367 44.766)"><path class="e" d="M114.2,149.556h0a15.054,15.054,0,0,0,0-1.646A29.163,29.163,0,0,0,101,125.038c-6.174-3.557-11.377-1.617-12.788,4.2a14.317,14.317,0,0,0-2-1.382c-5.35-3.116-9.7-.588-9.7,5.586a21.431,21.431,0,0,0,9.7,16.786L114.2,166.4c4.028,2.322,7.261.441,7.261-4.2A15.993,15.993,0,0,0,114.2,149.556Z" transform="translate(-73.031 -116.973)"/><path class="d" d="M117.464,167.282a7.673,7.673,0,0,1-3.792-1.147L85.685,149.966a22.666,22.666,0,0,1-10.26-17.639A6.967,6.967,0,0,1,86.743,125.8l.911.588a8.2,8.2,0,0,1,4.292-4.7,10.907,10.907,0,0,1,9.613,1.323,30.4,30.4,0,0,1,13.729,23.783v1.088a17.08,17.08,0,0,1,7.291,13.229,6.115,6.115,0,0,1-2.646,5.615,4.674,4.674,0,0,1-2.469.559ZM81.892,126.418a3.822,3.822,0,0,0-2,.5,5.88,5.88,0,0,0-2.293,5.321,20.344,20.344,0,0,0,9.143,15.875l28.017,16.14a3.381,3.381,0,0,0,5.644-3.234,14.934,14.934,0,0,0-6.732-11.759h0l-.529-.294v-.794a13.087,13.087,0,0,0,0-1.558,27.958,27.958,0,0,0-12.671-21.9,8.819,8.819,0,0,0-7.673-1.205,6.409,6.409,0,0,0-3.528,4.733l-.412,1.676L87.537,128.8a14.349,14.349,0,0,0-1.882-1.294,7.614,7.614,0,0,0-3.763-1.088Z" transform="translate(-75.327 -121.117)"/></g></g><g transform="translate(305.002 365.79)"><g transform="translate(4.057)"><path class="m" d="M171.264,151.089l-42.921-24.783a8.82,8.82,0,0,0-8.114-.941l-14.7,8.819,9.525,16.933V181.6c0,9.7,5.88,20.961,13.17,25.135l26.811,15.493L165.5,240.871l14.993-9.113h0a12.406,12.406,0,0,0,3.822-10.172V176.254C184.435,166.582,178.555,155.293,171.264,151.089Z" transform="translate(-104.295 -123.649)"/><path class="e" d="M171.127,152.643l-42.951-24.783a8.643,8.643,0,0,0-8.114-.941l-14.552,8.819,9.525,16.963v30.486c0,9.7,5.88,20.961,13.141,25.135l26.841,15.493,8.143-34.131,21.108-11.759C184.268,168.107,178.388,156.847,171.127,152.643Z" transform="translate(-104.334 -120.676)"/><path class="d" d="M166.053,243.147,155.175,223.8l-26.458-15.346c-7.585-4.351-13.729-16.051-13.729-26.076V152.16l-9.878-17.639,15.464-9.378a9.79,9.79,0,0,1,9.2.911l42.951,24.812c7.555,4.351,13.7,16.051,13.7,26.076V222.3a13.435,13.435,0,0,1-4.263,11.024ZM109.52,139.372l7.555,12.23v30.78c0,9.319,5.644,20.2,12.612,24.224l27.076,15.61,2.616,9.025,24.548-14.229L184.162,177c0-9.349-5.644-20.2-12.612-24.224l-42.921-24.783Z" transform="translate(-105.11 -124.396)"/></g><g transform="translate(0 8.425)"><path class="n" d="M160.212,234.567l-42.951-24.783c-7.261-4.2-13.141-15.463-13.141-25.135V139.14c0-9.672,5.88-14.141,13.141-9.937l42.951,24.783c7.261,4.2,13.17,15.463,13.17,25.135v45.391C173.382,234.214,167.473,238.653,160.212,234.567Z" transform="translate(-102.973 -126.563)"/><path class="d" d="M166.26,237.824a11.583,11.583,0,0,1-5.88-1.734L117.43,211.306c-7.555-4.351-13.7-16.051-13.7-26.076V139.839c0-5.5,1.852-9.7,5.086-11.583a9.584,9.584,0,0,1,9.7.706l42.921,24.783c7.555,4.38,13.7,16.081,13.7,26.076v45.391c0,5.5-1.852,9.7-5.086,11.583a7.76,7.76,0,0,1-3.792,1.029Zm-4.7-3.587a7.526,7.526,0,0,0,7.555.676c2.528-1.47,4-5,4-9.7V179.821c0-9.319-5.674-20.167-12.612-24.195l-42.951-24.783a7.408,7.408,0,0,0-7.526-.706c-2.558,1.47-4,5-4,9.7v45.45c0,9.319,5.644,20.2,12.612,24.195Z" transform="translate(-103.73 -127.262)"/></g><g transform="translate(15.104 33.258)"><g transform="translate(0 10.304)"><path class="e" d="M118.257,175.427l-5.88-3.469a5.057,5.057,0,0,1-2.087-4V142.736c0-1.529.941-2.234,2.087-1.588l5.88,3.469a4.939,4.939,0,0,1,2.087,3.969v25.253C120.285,175.368,119.374,176.073,118.257,175.427Z" transform="translate(-106.109 -135.927)"/><path class="d" d="M118.752,176.185a2.94,2.94,0,0,1-1.382-.382l-5.88-3.469a5.88,5.88,0,0,1-2.616-4.909V142.172a2.94,2.94,0,0,1,1.264-2.616,2.352,2.352,0,0,1,2.44,0l5.88,3.469a5.88,5.88,0,0,1,2.616,4.909v25.224a2.94,2.94,0,0,1-1.264,2.646,2.175,2.175,0,0,1-1.058.382Zm-7.673-34.66h0a1.146,1.146,0,0,0-.176.735v25.253a3.91,3.91,0,0,0,1.558,2.94l5.88,3.469a.588.588,0,0,0,.294,0,1.176,1.176,0,0,0,.176-.764V147.934a3.969,3.969,0,0,0-1.558-2.94l-5.88-3.469A.5.5,0,0,0,111.079,141.525Z" transform="translate(-108.868 -139.214)"/></g><g transform="translate(13.845)"><path class="e" d="M122.947,190.241l-5.88-3.469a4.968,4.968,0,0,1-2.087-3.969v-43.6c0-1.529.941-2.234,2.087-1.587l5.88,3.469a5.056,5.056,0,0,1,2.087,4v43.539C125.034,190.212,124.093,190.917,122.947,190.241Z" transform="translate(-110.856 -132.471)"/><path class="d" d="M123.463,190.981a2.734,2.734,0,0,1-1.382-.382l-5.88-3.469a6.056,6.056,0,0,1-2.616-4.939V138.652a2.94,2.94,0,0,1,1.235-2.616,2.5,2.5,0,0,1,2.469,0l5.88,3.469a5.88,5.88,0,0,1,2.616,4.91v43.539a2.94,2.94,0,0,1-1.264,2.616,1.911,1.911,0,0,1-1.058.412Zm-.294-2.264a1.029,1.029,0,0,0,.294,0,1.176,1.176,0,0,0,.176-.764V144.531a3.91,3.91,0,0,0-1.558-2.94l-5.88-3.469h-.294a1.146,1.146,0,0,0-.176.735V182.4a3.969,3.969,0,0,0,1.558,2.94Z" transform="translate(-113.577 -135.709)"/></g><g transform="translate(27.664 37.512)"><path class="e" d="M127.657,173.446l-5.88-3.469a4.968,4.968,0,0,1-2.087-3.969V151.986c0-1.529.941-2.234,2.087-1.587l5.88,3.469a5.057,5.057,0,0,1,2.087,4v14.023C129.744,173.417,128.8,174.123,127.657,173.446Z" transform="translate(-115.538 -145.191)"/><path class="d" d="M128.162,174.225a2.676,2.676,0,0,1-1.352-.412l-5.88-3.469a5.88,5.88,0,0,1-2.646-4.909V151.412a2.94,2.94,0,0,1,1.264-2.616,2.44,2.44,0,0,1,2.44,0l5.88,3.469a5.88,5.88,0,0,1,2.616,4.91V171.2a2.94,2.94,0,0,1-1.264,2.616A2.029,2.029,0,0,1,128.162,174.225Zm-.265-2.264a.559.559,0,0,0,.294,0V157.2a3.969,3.969,0,0,0-1.529-2.94l-5.88-3.44a.588.588,0,0,0-.294,0,1.146,1.146,0,0,0-.176.735v14.023a3.939,3.939,0,0,0,1.529,2.94Z" transform="translate(-118.278 -148.469)"/></g></g></g><g transform="translate(304.797 256.282)"><g transform="translate(4.145)"><path class="m" d="M171.214,113.839,128.293,89.056a8.819,8.819,0,0,0-8.114-.941l-14.7,8.819,9.525,16.933v30.486c0,9.7,5.88,20.961,13.17,25.165l26.811,15.464,10.466,18.638,14.964-9.113h0a12.318,12.318,0,0,0,3.851-10.172v-45.45C184.385,129.3,178.505,118.043,171.214,113.839Z" transform="translate(-104.275 -86.398)"/><path class="e" d="M171.174,115.373,128.223,90.591a8.643,8.643,0,0,0-8.114-.941l-14.7,8.819,9.643,16.9v30.486c0,9.7,5.88,20.961,13.17,25.136l26.841,15.493,8.143-34.131L184.315,140.6C184.315,130.9,178.435,119.636,171.174,115.373Z" transform="translate(-104.41 -83.464)"/><path class="d" d="M165.983,205.9l-10.877-19.344-26.458-15.346c-7.555-4.351-13.7-16.051-13.7-26.076V114.91L105.07,97.271l15.463-9.378a9.79,9.79,0,0,1,9.2.911l42.745,24.871c7.555,4.351,13.7,16.051,13.7,26.076v45.361a13.435,13.435,0,0,1-4.263,11.024ZM109.45,102.122l7.555,12.23v30.78c0,9.349,5.644,20.2,12.612,24.224l27.076,15.61,3.234,7.967,23.9-13.17.412-40.129c0-9.349-5.644-20.2-12.612-24.224L128.677,90.627Z" transform="translate(-105.07 -87.146)"/></g><g transform="translate(0 8.425)"><path class="n" d="M160.162,197.2l-42.951-24.783c-7.261-4.2-13.141-15.463-13.141-25.135V101.89c0-9.672,5.88-14.141,13.141-9.937l42.951,24.783c7.261,4.2,13.17,15.463,13.17,25.165v45.361C173.332,196.964,167.423,201.4,160.162,197.2Z" transform="translate(-102.865 -89.313)"/><path class="d" d="M166.19,200.574a11.583,11.583,0,0,1-5.88-1.735L117.36,174.056c-7.555-4.351-13.7-16.051-13.7-26.076V102.589c0-5.5,1.852-9.7,5.086-11.583a9.584,9.584,0,0,1,9.7.706l43.039,24.724c7.555,4.38,13.7,16.081,13.7,26.106V187.9c0,5.5-1.852,9.7-5.086,11.583A7.761,7.761,0,0,1,166.19,200.574Zm-4.7-3.587a7.467,7.467,0,0,0,7.526.676c2.558-1.47,4.028-5,4.028-9.7V142.6c0-9.349-5.674-20.2-12.612-24.224L117.477,93.593a7.408,7.408,0,0,0-7.526-.676c-2.558,1.47-4.028,5-4.028,9.7V148.01c0,9.319,5.674,20.2,12.641,24.195Z" transform="translate(-103.66 -90.012)"/></g><g transform="translate(14.67 37.432)"><g transform="translate(24.548 4.325)"><path class="e" d="M118.37,122l19.7,8.261a46.038,46.038,0,0,0-13.7-26.723Z" transform="translate(-114.342 -97.102)"/><path class="d" d="M139.4,131.718,117,122.37l6.82-21.02,1.235,1.176a47.037,47.037,0,0,1,14.052,27.37Zm-19.638-10.583,17.022,7.144a45.655,45.655,0,0,0-11.759-22.989Z" transform="translate(-117 -101.35)"/></g><path class="e" d="M129.783,127.456l5.88-18.462a33.986,33.986,0,0,0-5.88-4.5c-10.966-6.35-19.873-1.205-19.873,11.465a44.1,44.1,0,0,0,19.873,34.455c10.995,6.35,19.9,1.205,19.9-11.495a30.34,30.34,0,0,0-.206-3.234Z" transform="translate(-106.206 -96.202)"/><path class="d" d="M138.519,153.387a19.491,19.491,0,0,1-9.437-2.94,45.3,45.3,0,0,1-20.432-35.278c0-6.526,2.264-11.436,6.379-13.817s9.466-1.852,15.14,1.411a32.661,32.661,0,0,1,6.174,4.645l.5.47-5.88,18.168,19.344,8.114v.617a29.86,29.86,0,0,1,.206,3.351c0,6.556-2.264,11.436-6.379,13.817a11.083,11.083,0,0,1-5.615,1.441ZM120.88,102.028a9.084,9.084,0,0,0-4.645,1.176c-3.41,1.97-5.292,6.2-5.292,11.936a42.833,42.833,0,0,0,19.344,33.514c4.968,2.94,9.584,3.351,12.994,1.382s5.262-6.2,5.262-11.936a23.5,23.5,0,0,0,0-2.469l-20.02-8.378,6.085-18.756a31.4,31.4,0,0,0-5.292-3.91,17.022,17.022,0,0,0-8.555-2.558Z" transform="translate(-108.65 -99.879)"/></g></g><g transform="translate(411.655 538.701)"><path class="a" d="M237.174,290.138l-93.222-53.769c-5.88-3.351-5.057-9.143,1.617-12.994l14.934-8.643c6.644-3.822,16.728-4.263,22.49-.911l93.251,53.8c5.88,3.322,5.027,9.143-1.617,12.965l-14.964,8.7C253.019,293.048,242.877,293.46,237.174,290.138Z" transform="translate(-140.009 -128.221)"/><g transform="translate(42.661)"><g transform="translate(4.91)"><path class="m" d="M236.536,215.635l-52.3-30.192a10.554,10.554,0,0,0-9.907-1.117l-17.639,10.73,11.583,20.579v37.159c0,11.759,7.173,25.518,16.051,30.633L216.9,302.419l12.759,22.7L247.883,314h0c2.94-2.2,4.674-6.5,4.674-12.377V246.356C252.558,234.479,245.384,220.75,236.536,215.635Z" transform="translate(-155.22 -182.511)"/><path class="e" d="M236.456,217.83l-52.3-30.192a10.583,10.583,0,0,0-9.878-1.147l-17.639,10.76,11.612,20.579v37.159c0,11.759,7.173,25.518,16.022,30.633l37.924-19.05L252.625,248.4C252.478,236.674,245.305,222.945,236.456,217.83Z" transform="translate(-155.317 -178.268)"/><path class="d" d="M230.244,327.256l-13.17-23.519-32.338-18.727c-9.143-5.292-16.551-19.432-16.551-31.574V216.689L156.19,195.376l18.638-11.289a11.759,11.759,0,0,1,10.995,1.117l52.123,30.221c9.143,5.262,16.581,19.432,16.581,31.574v55.269a16.257,16.257,0,0,1-5.086,13.259ZM164.451,198.9l5.733,17.227v37.424c0,11.436,6.938,24.753,15.493,29.692L218.6,302.267l5.145,8.819,28.663-16.933V247.116c0-11.465-6.967-24.783-15.493-29.722L184.589,187.2Z" transform="translate(-156.19 -183.213)"/></g><g transform="translate(0 10.196)"><path class="n" d="M223.231,317.266l-52.3-30.31c-8.819-5.115-16.051-18.815-16.051-30.633V201.055c0-11.759,7.2-17.257,16.051-12.141l52.3,30.427c8.819,5.086,16.051,18.815,16.051,30.633v55.269C239.282,316.972,232.08,322.382,223.231,317.266Z" transform="translate(-153.822 -186.065)"/><path class="d" d="M230.309,320.881a13.876,13.876,0,0,1-6.909-2.058l-52.329-30.192c-9.113-5.292-16.551-19.432-16.551-31.574V201.789c0-6.615,2.2-11.759,6.085-13.905a11.348,11.348,0,0,1,11.553.823l52.329,30.221c9.113,5.262,16.551,19.432,16.551,31.574V305.77c0,6.615-2.2,11.759-6.085,13.905a9.055,9.055,0,0,1-4.645,1.205ZM165.25,188.824a7.143,7.143,0,0,0-3.587.911c-3.175,1.852-5,6.232-5,12.053v55.269c0,11.436,6.967,24.753,15.493,29.692l52.329,30.221a9.231,9.231,0,0,0,9.407.853c3.175-1.823,5-6.2,5-12.024V250.531c0-11.465-6.967-24.783-15.493-29.722l-52.329-30.251A11.759,11.759,0,0,0,165.25,188.824Z" transform="translate(-154.52 -186.681)"/></g><g transform="translate(24.581 39.767)"><path class="e" d="M193.443,270.758,170.483,257.5a14.9,14.9,0,0,1-6.2-11.759V204.083c0-4.586,2.793-6.673,6.2-4.7l22.96,13.259a14.7,14.7,0,0,1,6.2,11.759V266C199.646,270.64,196.883,272.728,193.443,270.758Z" transform="translate(-160.169 -193.058)"/><path class="d" d="M195.568,271.706a5.881,5.881,0,0,1-2.94-.911l-22.96-13.259a15.787,15.787,0,0,1-6.762-12.759v-41.6a6.526,6.526,0,0,1,2.7-5.88,4.968,4.968,0,0,1,5.115.323l22.989,13.259a15.845,15.845,0,0,1,6.732,12.788V265.12a6.585,6.585,0,0,1-2.675,5.88,4.587,4.587,0,0,1-2.2.706Zm-1.911-2.763a2.94,2.94,0,0,0,2.94.323,4.616,4.616,0,0,0,1.588-4.086V223.61A13.876,13.876,0,0,0,192.54,212.7l-22.96-13.259a3.116,3.116,0,0,0-2.94-.353,4.615,4.615,0,0,0-1.587,4.086v41.6a13.935,13.935,0,0,0,5.644,10.907Z" transform="translate(-162.881 -196.74)"/><g transform="translate(5.245 7.972)"><path class="o" d="M188.609,254.05l-20.285-11.759a5.321,5.321,0,0,1-2.234-4.263v-34.69c0-1.646,1-2.411,2.234-1.705l20.285,11.759a5.321,5.321,0,0,1,2.234,4.263v34.69C190.843,253.992,189.844,254.756,188.609,254.05Z" transform="translate(-161.903 -195.729)"/><path class="d" d="M189.167,254.539a2.94,2.94,0,0,1-1.44-.412l-20.255-11.759a6.409,6.409,0,0,1-2.793-5.2V202.534A2.94,2.94,0,0,1,166,199.8a2.469,2.469,0,0,1,2.528,0l20.285,11.759a6.409,6.409,0,0,1,2.763,5.2v34.69a2.94,2.94,0,0,1-1.323,2.734A2.027,2.027,0,0,1,189.167,254.539Zm-.353-2.293a.735.735,0,0,0,.382.147,1.323,1.323,0,0,0,.235-.882v-34.69a4.2,4.2,0,0,0-1.705-3.322L167.471,201.74c-.235-.147-.382-.147-.382,0s-.235.235-.235.853v34.69a4.292,4.292,0,0,0,1.676,3.322Z" transform="translate(-164.666 -199.452)"/></g><g transform="translate(13.656 54.863)"><path class="o" d="M177.034,224.95c0,2.587-1.823,3.616-4.057,2.322a9,9,0,0,1-4.057-7.026c0-2.587,1.823-3.645,4.057-2.352A9.025,9.025,0,0,1,177.034,224.95Z" transform="translate(-164.824 -211.639)"/><path class="d" d="M174.5,228.1a4.792,4.792,0,0,1-2.352-.705,10,10,0,0,1-4.586-7.938,3.528,3.528,0,0,1,5.674-3.293,10.025,10.025,0,0,1,4.586,7.967,3.851,3.851,0,0,1-1.705,3.557A2.94,2.94,0,0,1,174.5,228.1Zm-3.616-10.466a1,1,0,0,0-.529,0,1.911,1.911,0,0,0-.647,1.705,7.908,7.908,0,0,0,3.528,6.085,1.94,1.94,0,0,0,1.793.294,1.911,1.911,0,0,0,.647-1.705,7.879,7.879,0,0,0-3.528-6.085,2.735,2.735,0,0,0-1.264-.294Z" transform="translate(-167.527 -215.402)"/></g></g></g></g><g transform="translate(417.833 150.107)"><g transform="translate(164.659 143.633)"><path class="i" d="M251.448,113.844v-.206c0-1.911-1.411-2.7-2.94-1.734l-1.117.647a5.88,5.88,0,0,0-2.675,4.615h0a44.979,44.979,0,0,1-18.9,34.484C214.407,158.853,205,153.8,205,140.743h0c0-2.028-1.441-2.94-3.175-1.852l-.588.353a6.938,6.938,0,0,0-3.116,5.292v.206c0,15.022,9.29,22.166,21.608,17.815V180.9a4.086,4.086,0,0,1-1.852,3.2l-6.144,3.557a6.526,6.526,0,0,0-2.94,5.145h0c0,1.881,1.323,2.646,2.94,1.705l8-4.616,10.613-6.144,7.849-4.527a6.526,6.526,0,0,0,2.94-5.145h0c0-1.882-1.323-2.646-2.94-1.705l-5.88,3.469a1.169,1.169,0,0,1-1.881-1.088v-18.4C242.335,146.388,251.448,128.719,251.448,113.844Z" transform="translate(-198.12 -77.383)"/><path class="i" d="M218.2,167.246l-2.087,1.235c-7.761,4.469-14.052-.294-14.052-10.642V129.616c0-10.348,6.291-22.372,14.052-26.841l2.087-1.205c7.761-4.469,14.052.265,14.052,10.613v28.4C232.252,150.783,225.961,162.778,218.2,167.246Z" transform="translate(-190.477 -99.888)"/></g><path class="i" d="M256.436,94.495C214.749,118.572,181,177.133,181,225.287s33.808,67.616,75.495,43.568,75.495-82.609,75.495-130.763S298.152,70.417,256.436,94.495Zm0,164.013c-36.689,21.225-66.616,4.028-66.616-38.453s29.81-94.074,66.587-115.3,66.587-4.028,66.587,38.423-29.692,94.1-66.469,115.329Z" transform="translate(-66.67 13.279)"/><g transform="translate(65.029 33.543)"><path class="i" d="M223.82,390.407c-37.306-6.468-59.59-40.8-59.59-91.869a236.186,236.186,0,0,1,16.4-82.315l2.763,1.029a233.186,233.186,0,0,0-16.228,81.168c0,49.507,21.372,82.756,57.15,88.959Zm70.732-16.639-1.47-2.528c24.107-13.905,47.566-35.278,67.851-61.736l2.352,1.793c-20.4,26.841-44.3,48.478-68.733,62.559Zm78.9-76.671-2.44-1.646c31.427-46.155,49.448-99.072,49.448-144.727,0-4.91-.235-9.731-.647-14.317-.353-3.881-.853-7.7-1.5-11.377-5.292-29.869-20.579-51.124-42.686-59.855l1.058-2.734c23.225,9.113,39.041,31.162,44.509,62.089.676,3.734,1.205,7.644,1.558,11.759.411,4.674.647,9.584.647,14.7,0,46.067-18.2,99.454-49.948,146.2ZM196.274,188.323,193.658,187A313.531,313.531,0,0,1,226,135.847l2.322,1.823a309.533,309.533,0,0,0-32.044,50.653Z" transform="translate(-164.23 -62.44)"/></g><g transform="translate(0 1.705)"><path class="i" d="M416.983,406.946l-2.175-2C478.043,336.038,521.67,241.493,528.7,158.208l2.94.235C524.552,242.346,480.631,337.567,416.983,406.946ZM145.05,358.5h-2.94c0-60,20.226-128.117,56.944-191.735l2.558,1.47C165.129,231.439,145.05,299.025,145.05,358.5ZM529.167,118.55a169.243,169.243,0,0,0-16.581-65.617L515.2,51.61a171.715,171.715,0,0,1,16.9,66.734Z" transform="translate(-142.11 -51.61)"/></g><g transform="translate(69.439 32.838)"><path class="p" d="M225.32,390.255c-37.336-6.468-59.59-40.8-59.59-91.869a236.187,236.187,0,0,1,16.4-82.315l2.734,1.029a233.127,233.127,0,0,0-16.2,81.168c0,49.507,21.343,82.756,57.15,88.959Zm70.556-16.639-1.47-2.528c24.107-13.905,47.566-35.278,67.851-61.736l2.352,1.764c-20.4,26.841-44.186,48.419-68.733,62.5Zm78.934-76.671-2.44-1.646c31.4-46.273,49.418-99.043,49.418-144.816,0-4.909-.206-9.731-.647-14.317-.353-3.881-.853-7.7-1.5-11.377-5.292-29.869-20.579-51.124-42.686-59.855l1.088-2.734c23.2,9.113,39.011,31.162,44.509,62.089.647,3.734,1.176,7.644,1.529,11.759.412,4.674.647,9.584.647,14.7.118,46.1-18.08,99.484-49.8,146.2ZM197.6,188.171l-2.616-1.323A313.53,313.53,0,0,1,227.319,135.7l2.322,1.823a309.533,309.533,0,0,0-31.926,50.506Z" transform="translate(-165.73 -62.2)"/></g><g transform="translate(3.616)"><path class="p" d="M418.213,406.4l-2.175-2C479.3,335.487,522.93,240.943,529.927,157.657l2.94.235C525.811,241.8,481.89,337.016,418.213,406.4ZM146.28,357.977h-2.94c0-60.031,20.226-128.117,56.974-191.735l2.528,1.47C166.388,230.888,146.28,298.475,146.28,357.977ZM530.4,118a168.215,168.215,0,0,0-16.581-65.617l2.616-1.352a171.481,171.481,0,0,1,16.9,66.763Z" transform="translate(-143.34 -51.03)"/></g><g transform="translate(167.805 146.047)"><path class="j" d="M252.665,114.727v-.206c0-1.94-1.441-2.7-3.116-1.734l-1.117.647a5.88,5.88,0,0,0-2.646,4.586h0a45.009,45.009,0,0,1-18.9,34.425c-11.406,7.2-20.814,2.146-20.814-10.877h0c0-2-1.44-2.94-3.2-1.823l-.588.323a6.879,6.879,0,0,0-3.087,5.321v.206c0,14.993,9.29,22.137,21.608,17.815v18.433a4.2,4.2,0,0,1-1.881,3.234l-6.144,3.528a6.615,6.615,0,0,0-2.94,5.145h0c0,1.882,1.323,2.675,2.94,1.705l8.026-4.616L231.41,184.7l7.82-4.5a6.615,6.615,0,0,0,2.94-5.145h0c0-1.881-1.323-2.675-2.94-1.705l-5.88,3.44A1.151,1.151,0,0,1,231.5,175.7V157.3C243.552,147.271,252.665,129.6,252.665,114.727Z" transform="translate(-199.19 -78.094)"/><path class="j" d="M219.32,168.24l-2.117,1.205c-7.732,4.469-14.023-.265-14.023-10.613v-28.4c0-10.348,6.291-22.343,14.023-26.841l2.117-1.205c7.732-4.469,14.023.294,14.023,10.613v28.4C233.343,151.747,227.051,163.771,219.32,168.24Z" transform="translate(-191.45 -100.709)"/></g><path class="j" d="M257.614,95.379C215.9,119.426,182.09,177.988,182.09,226.142s33.808,67.616,75.524,43.6,75.495-82.638,75.495-130.793S299.418,71.3,257.614,95.379Zm0,163.983c-36.777,21.225-66.587,4.028-66.587-38.423s29.81-94.074,66.587-115.329,66.558-4,66.558,38.453-29.722,94.074-66.469,115.3Z" transform="translate(-64.556 14.982)"/><g transform="translate(122.297 95.206)"><path class="d" d="M226.573,280.6a39.836,39.836,0,0,1-20.2-5.2c-14.7-8.437-22.666-26.135-22.666-49.8,0-48.419,34.131-107.509,76.053-131.733,20.579-11.759,39.864-13.7,54.475-5.292s22.637,26.135,22.637,49.977c0,48.419-34.1,107.509-76.024,131.7A69.82,69.82,0,0,1,226.573,280.6Zm67.44-195.057A67.616,67.616,0,0,0,261,95.748c-41.334,23.871-74.966,82.109-74.966,129.852,0,22.872,7.644,39.893,21.578,47.919s32.485,6.174,52.3-5.262c41.334-23.871,74.965-82.139,74.965-129.852,0-22.9-7.673-39.923-21.578-47.949a37.924,37.924,0,0,0-19.285-4.91Z" transform="translate(-183.71 -83.415)"/><g transform="translate(9.025 11.428)"><path class="d" d="M224.7,261.48a35.278,35.278,0,0,1-17.874-4.557c-12.935-7.438-20.05-23.078-20.05-44.1,0-42.745,30.1-94.9,67.116-116.27,18.109-10.466,35.278-12.112,48.154-4.645s20.05,23.078,20.05,44.1c0,42.745-30.133,94.9-67.116,116.27a61.736,61.736,0,0,1-30.28,9.2ZM284.176,89.5a59.326,59.326,0,0,0-29.193,8.819c-36.424,21.02-66.058,72.32-66.058,114.389,0,20.108,6.732,35.1,18.962,42.157s28.575,5.409,46.008-4.674c36.424-21.02,66.028-72.32,66.028-114.388,0-20.108-6.732-35.1-18.962-42.157A33.044,33.044,0,0,0,284.176,89.5Z" transform="translate(-186.78 -87.302)"/></g><g transform="translate(48.772 77.761)"><path class="d" d="M213.647,195.662a2.587,2.587,0,0,1-1.323-.323,3.175,3.175,0,0,1-1.411-2.94,7.673,7.673,0,0,1,3.528-6.086l6.144-3.557a2.94,2.94,0,0,0,1.323-2.264V163.647a16.463,16.463,0,0,1-14.317-1.764c-4.7-3.322-7.291-9.554-7.291-17.639a8.026,8.026,0,0,1,3.645-6.438l.588-.323a3.263,3.263,0,0,1,3.322-.235,3.322,3.322,0,0,1,1.47,2.94c0,5.88,1.94,10.113,5.439,12.053s8.5,1.264,13.729-2.029a44.1,44.1,0,0,0,18.4-33.573,6.967,6.967,0,0,1,3.2-5.527l1.117-.647a2.94,2.94,0,0,1,4.7,2.646v.206c0,14.7-8.819,32.661-21.225,42.98v17.9a.644.644,0,0,0,0,.265h.206l5.88-3.469a3.175,3.175,0,0,1,3.175-.206,3.116,3.116,0,0,1,1.411,2.94,7.643,7.643,0,0,1-3.5,6.085L215.411,195.1A3.793,3.793,0,0,1,213.647,195.662Zm10.407-34.954v19.873a5.2,5.2,0,0,1-2.381,4.145l-6.144,3.557a5.527,5.527,0,0,0-2.44,4.2,1.146,1.146,0,0,0,.323.97,2.3,2.3,0,0,0,1.029-.206L240.9,177.964a5.527,5.527,0,0,0,2.44-4.2.794.794,0,0,0-1.352-.764l-5.88,3.44a2.323,2.323,0,0,1-2.411.147,2.411,2.411,0,0,1-1.088-2.146v-18.9l.412-.323c12.083-9.907,20.843-27.4,20.843-41.657v-.206a1.176,1.176,0,0,0-.353-1,1.294,1.294,0,0,0-1.117.206l-1.117.647a4.792,4.792,0,0,0-2.117,3.675,45.861,45.861,0,0,1-19.432,35.278c-5.88,3.734-11.583,4.469-15.934,2.087s-6.526-7.261-6.526-13.905c0-.588,0-1-.412-1.147a1.264,1.264,0,0,0-1.147.206l-.617.353a5.88,5.88,0,0,0-2.528,4.351c0,7.467,2.264,13.082,6.379,15.993a14.7,14.7,0,0,0,13.758,1.029Z" transform="translate(-200.3 -109.866)"/></g><g transform="translate(60.502 43.807)"><path class="d" d="M213.844,170.882a8.32,8.32,0,0,1-4.145-1.088c-3.44-2-5.409-6.468-5.409-12.318V129.107c0-10.672,6.556-23.136,14.7-27.781l2.087-1.205a10.054,10.054,0,0,1,10.26-.735c3.44,1.97,5.409,6.468,5.409,12.288v28.4c0,10.672-6.556,23.107-14.7,27.752l-2.087,1.205A12.289,12.289,0,0,1,213.844,170.882Zm13.112-70.556a10.083,10.083,0,0,0-5.027,1.529l-2.087,1.205c-7.438,4.292-13.494,15.9-13.494,25.9V157.33c0,5.056,1.558,8.819,4.292,10.436a8.085,8.085,0,0,0,8.114-.735l2.087-1.205c7.467-4.322,13.494-15.934,13.494-25.9v-28.4c0-5.027-1.558-8.819-4.292-10.436a6.409,6.409,0,0,0-3.087-.764Z" transform="translate(-204.29 -98.316)"/></g></g></g><g transform="translate(122.057 37.564)"><g transform="translate(4.88)"><path class="m" d="M123.574,45.134,71.157,15a10.436,10.436,0,0,0-9.878-1.147L43.64,24.614,55.4,45.192V82.381c0,11.759,7.173,25.518,16.022,30.633l32.691,18.874,12.729,22.7L135.1,143.5h0c2.94-2.2,4.674-6.5,4.674-12.406V75.825C139.625,64.007,132.423,50.308,123.574,45.134Z" transform="translate(-42.229 -12.053)"/><path class="e" d="M123.417,47.384,71.176,17.163a10.554,10.554,0,0,0-9.907-1.117L43.63,26.806,55.213,47.384V84.573c0,11.759,7.173,25.518,16.051,30.633l37.924-19.021,30.4-18.168C139.439,66.2,132.266,52.647,123.417,47.384Z" transform="translate(-42.248 -7.807)"/><path class="d" d="M117.244,156.777l-13.17-23.519L71.735,114.531C62.592,109.269,55.154,95.1,55.154,82.958V46.21L43.16,24.926,61.828,13.637a11.583,11.583,0,0,1,10.966,1.117L125,44.946c9.113,5.292,16.551,19.432,16.551,31.574v55.269c0,6.056-1.793,10.76-5.086,13.259ZM51.509,28.453l5.88,17.2V83.075c0,11.465,6.967,24.783,15.493,29.722l32.955,18.991,5.115,8.819,28.663-16.963V76.608c0-11.436-6.967-24.783-15.493-29.692L71.676,16.606Z" transform="translate(-43.16 -12.748)"/></g><g transform="translate(0 10.186)"><path class="n" d="M110.191,146.732l-52.3-30.221C49.073,111.425,41.87,97.7,41.87,85.878V30.609c0-11.759,7.173-17.227,16.022-12.112l52.3,30.192c8.819,5.115,16.051,18.815,16.051,30.633V134.59C126.243,146.408,119.07,151.847,110.191,146.732Z" transform="translate(-40.782 -15.505)"/><path class="d" d="M117.289,150.438a14.17,14.17,0,0,1-6.909-2.058l-52.3-30.221C48.85,112.9,41.5,98.726,41.5,86.585V31.316c0-6.615,2.2-11.759,6.085-13.905a11.348,11.348,0,0,1,11.583.853l52.3,30.192c9.143,5.292,16.581,19.432,16.581,31.574V135.3c0,6.615-2.234,11.759-6.085,13.905a9.172,9.172,0,0,1-4.674,1.235ZM52.23,18.352a7,7,0,0,0-3.557.941c-3.2,1.823-5.027,6.2-5.027,12.024V86.585c0,11.465,6.967,24.783,15.522,29.722l52.3,30.192a9.319,9.319,0,0,0,9.407.853c3.175-1.852,5-6.232,5-12.053V80.029c0-11.436-6.938-24.783-15.493-29.692l-52.3-30.221A11.906,11.906,0,0,0,52.23,18.352Z" transform="translate(-41.5 -16.212)"/></g><g transform="translate(19.542 42.353)"><g transform="translate(0 11.745)"><path class="e" d="M58.882,72.254l-6.82-3.939a5.88,5.88,0,0,1-2.352-4.527V35.124c0-1.735,1.058-2.528,2.352-1.793l6.82,3.939A5.88,5.88,0,0,1,61.234,41.8V70.461C61.234,72.2,60.176,72.989,58.882,72.254Z" transform="translate(-45.116 -27.449)"/><path class="d" d="M59.474,73.1a3.234,3.234,0,0,1-1.558-.441L51.1,68.722a6.909,6.909,0,0,1-2.94-5.586V34.473a3.263,3.263,0,0,1,1.441-2.94,2.675,2.675,0,0,1,2.763,0l6.82,3.939a6.791,6.791,0,0,1,2.94,5.586V69.81a3.322,3.322,0,0,1-1.411,2.94A2.587,2.587,0,0,1,59.474,73.1ZM50.654,33.65h0a1.323,1.323,0,0,0-.206.853V63.049a4.41,4.41,0,0,0,1.764,3.44l6.82,3.939a.735.735,0,0,0,.323,0,1.3,1.3,0,0,0,.206-.823V41.147A4.439,4.439,0,0,0,57.8,37.678L51.007,33.65Z" transform="translate(-48.147 -31.149)"/></g><g transform="translate(15.636)"><path class="e" d="M64.252,89.037,57.431,85.1a5.586,5.586,0,0,1-2.381-4.5V31.152c0-1.735,1.058-2.558,2.381-1.793l6.82,3.939A5.674,5.674,0,0,1,66.6,37.826V87.244C66.662,89.008,65.545,89.8,64.252,89.037Z" transform="translate(-50.393 -23.433)"/><path class="d" d="M64.8,89.907a2.94,2.94,0,0,1-1.558-.441L56.418,85.5a6.791,6.791,0,0,1-2.94-5.586V30.523a3.2,3.2,0,0,1,1.411-2.94,2.734,2.734,0,0,1,2.94,0l6.791,3.939a6.762,6.762,0,0,1,2.94,5.586V86.615a3.2,3.2,0,0,1-1.441,2.94A2.175,2.175,0,0,1,64.8,89.907Zm-.353-2.558H64.8a1.44,1.44,0,0,0,.176-.853V37.2a4.41,4.41,0,0,0-1.735-3.469l-6.82-3.939a.911.911,0,0,0-.353,0,1.44,1.44,0,0,0-.176.853v49.3a4.439,4.439,0,0,0,1.764,3.469Z" transform="translate(-53.466 -27.154)"/></g><g transform="translate(31.34 42.642)"><path class="e" d="M69.572,70.013l-6.82-3.939A5.674,5.674,0,0,1,60.4,61.547v-15.9c0-1.734,1.058-2.558,2.352-1.793l6.82,3.939a5.645,5.645,0,0,1,2.381,4.527V68.367C71.954,69.955,70.983,70.778,69.572,70.013Z" transform="translate(-55.719 -37.967)"/><path class="d" d="M70.133,70.854a3.234,3.234,0,0,1-1.558-.441l-6.82-3.939a6.85,6.85,0,0,1-2.94-5.586v-15.9a3.293,3.293,0,0,1,1.441-2.94,2.675,2.675,0,0,1,2.763,0l6.82,3.91a6.85,6.85,0,0,1,2.94,5.586V67.473a3.263,3.263,0,0,1-1.411,2.94,2.587,2.587,0,0,1-1.235.441Zm-.323-2.587a.794.794,0,0,0,.323,0,1.323,1.323,0,0,0,.206-.853V51.627a4.41,4.41,0,0,0-1.764-3.44l-6.82-3.939a.559.559,0,0,0-.323,0,1.441,1.441,0,0,0-.176.853V60.888a4.5,4.5,0,0,0,1.734,3.469Z" transform="translate(-58.808 -41.659)"/></g></g></g><g transform="translate(53.383 335.111)"><path class="a" d="M79.038,230.307,38.41,206.788,84.065,179.83l40.922,24.018c6.791,3.91,5.88,10.76-1.881,15.287l-17.639,10.142C97.677,233.658,85.829,234.129,79.038,230.307Z" transform="translate(21.18 13.816)"/><g transform="translate(7.467)"><path class="m" d="M143.752,163.51,63.583,117.237a16.2,16.2,0,0,0-15.169-1.764L21.22,131.966,39.006,163.6v56.915c0,18.109,10.995,39.129,24.577,47.037l49.977,28.9,19.579,34.778,27.928-16.992h0c4.439-3.381,7.173-9.966,7.173-18.991v-84.9C168.329,192.379,157.3,171.359,143.752,163.51Z" transform="translate(-19.632 -113.21)"/><path class="e" d="M141.46,165.94,61.291,119.667a16.139,16.139,0,0,0-15.14-1.764L22.25,132.4l14.7,26.106v56.915c0,18.109,10.995,39.129,24.577,47.037l49.977,28.9,18.932-57.767,35.542-20.579C166.037,194.809,155.042,173.789,141.46,165.94Z" transform="translate(-17.634 -108.496)"/><path class="d" d="M133.863,333.447,113.9,297.934,63.925,269.182c-13.847-8-25.106-29.4-25.106-47.919v-56.65L20.68,132.275l28.075-17.022a17.139,17.139,0,0,1,16.257,1.734l80.169,46.273c13.847,8,25.106,29.4,25.106,47.89v84.726c0,9.084-2.675,16.11-7.585,19.844ZM34.909,135.95l6.232,28.1v57.209c0,17.639,10.76,38.394,24.018,46.038l52.917,43.392,49.977-29.4v-70.2c0-17.639-10.789-38.218-24.048-46.008L64.072,118.9Z" transform="translate(-20.68 -113.96)"/></g><g transform="translate(0 15.731)"><path class="n" d="M123.226,319.137l-80.169-46.3C29.5,265.015,18.51,243.995,18.51,225.8V141.219c0-18.109,10.995-26.458,24.548-18.58l80.169,46.3c13.582,7.82,24.577,28.84,24.577,47.037v84.579C147.8,318.637,136.808,326.957,123.226,319.137Z" transform="translate(-17.422 -118.615)"/><path class="d" d="M133.734,323.831a20.755,20.755,0,0,1-10.319-2.94l-80.169-46.42c-13.847-8-25.106-29.4-25.106-47.89V141.915c0-9.907,3.293-17.639,9.025-20.814,4.821-2.763,10.907-2.322,17.169,1.294L124.5,168.7c13.847,8,25.106,29.4,25.106,47.89v84.667c0,9.907-3.293,17.639-9.025,20.785A13.553,13.553,0,0,1,133.734,323.831Zm-9.231-4.939c5.556,3.2,10.877,3.675,14.993,1.294,5.057-2.94,7.967-9.819,7.967-18.932V216.528c0-17.639-10.789-38.218-24.048-46.038L43.246,124.276c-5.556-3.2-10.877-3.675-14.993-1.294-5.056,2.94-7.967,9.819-7.967,18.932v84.667c0,17.639,10.789,38.218,24.048,46.008Z" transform="translate(-18.14 -119.311)"/></g><g transform="translate(42.711 75.964)"><path class="e" d="M34.5,149.231v52.917c0,6.056,6.056,13.259,10.73,12.759l38.57-4.351c4.439-.47,4.439-7.555,0-13.141l-38.57-48.6C40.556,142.94,34.5,143.175,34.5,149.231Z" transform="translate(-29.115 -130.592)"/><path class="d" d="M44.021,212.179a9.143,9.143,0,0,1-5.88-2.7A16.169,16.169,0,0,1,32.7,198.3v-52.74a5.321,5.321,0,0,1,3.2-5.5c2.94-.97,6.526.764,9.466,4.469l38.541,48.772a13.229,13.229,0,0,1,2.94,12.053,4.527,4.527,0,0,1-3.763,2.94l-38.57,4.086Zm-6.526-70.2a2.942,2.942,0,0,0-.911.147c-1.529.529-1.764,2.381-1.764,3.44V198.3a14.023,14.023,0,0,0,4.7,9.7,6.762,6.762,0,0,0,4.821,2.117l38.57-4.116a2.264,2.264,0,0,0,2-1.529,11,11,0,0,0-2.734-9.848L43.639,145.857a8.819,8.819,0,0,0-6.144-3.881Z" transform="translate(-32.668 -139.8)"/></g></g><g transform="translate(32.657 557.97)"><g transform="translate(163.072 52.365)"><g transform="translate(1.181 4.277)"><g transform="translate(15.335 8.788)"><path class="q" d="M110.99,212.542h0a4.821,4.821,0,0,0-4.351,0l-.794.441a1.176,1.176,0,0,0,0,2.2h0c7.614,4.38,8.29,11.524,1.058,16.11a30.956,30.956,0,0,1-28.869.412h0a5.115,5.115,0,0,0-4.527,0l-.441.265a1.323,1.323,0,0,0,0,2.5h0a42.627,42.627,0,0,0,33.867,1.882l11.289,6.526c.735.412.735,1.088,0,1.529l-4.38,2.5a1.294,1.294,0,0,0,0,2.44h0a4.674,4.674,0,0,0,4.233,0l5.674-3.293,7.555-4.351,5.586-3.293a1.294,1.294,0,0,0,0-2.44h0a4.615,4.615,0,0,0-4.2,0l-4.233,2.44a2.94,2.94,0,0,1-2.646,0l-11.318-6.526C121.309,225.977,120.133,217.834,110.99,212.542Z" transform="translate(-72.178 -212.024)"/></g><path class="q" d="M112.818,234.569l-1.47.853a23.9,23.9,0,0,1-21.49-.882L72.219,224.426c-6.35-3.645-7.056-9.2-1.529-12.406l1.47-.852a23.96,23.96,0,0,1,21.52.882l17.492,10.113C117.639,225.808,118.345,231.364,112.818,234.569Z" transform="translate(-66.962 -209.034)"/></g><g transform="translate(15.052 8.691)"><path class="d" d="M116.718,250.559a5.38,5.38,0,0,1-2.646-.676,2.469,2.469,0,0,1-1.382-2.117,2.5,2.5,0,0,1,1.382-2.117l4.116-2.381L107.6,237.153a43.8,43.8,0,0,1-34.425-2.146,2.587,2.587,0,0,1-1.5-2.234,2.558,2.558,0,0,1,1.411-2.176l.441-.235a5.88,5.88,0,0,1,5.556,0,29.957,29.957,0,0,0,27.84-.382,8.232,8.232,0,0,0,4.557-6.85,9.613,9.613,0,0,0-5.586-7.467,2.175,2.175,0,0,1,0-4l.794-.47a5.879,5.879,0,0,1,5.409,0h0a14.993,14.993,0,0,1,8.349,10.877,11.759,11.759,0,0,1-3.645,9.26l10.113,5.88a1.881,1.881,0,0,0,1.588,0l4.263-2.44a5.556,5.556,0,0,1,5.262,0,2.469,2.469,0,0,1,1.382,2.117,2.5,2.5,0,0,1-1.382,2.117l-18.815,10.848A5.175,5.175,0,0,1,116.718,250.559ZM107.9,234.831l11.759,6.762a1.94,1.94,0,0,1,1.088,1.676,1.911,1.911,0,0,1-1.088,1.676l-4.351,2.528c-.265.147-.353.265-.353.323a.971.971,0,0,0,.353.294,3.675,3.675,0,0,0,3.146,0l18.815-10.877c.265-.147.353-.265.353-.294s0,0-.353-.323a3.763,3.763,0,0,0-3.175,0l-4.233,2.47a3.881,3.881,0,0,1-3.675,0L113.572,231.8l1.117-.97a10.083,10.083,0,0,0,3.969-8.5,12.965,12.965,0,0,0-7.32-9.26h0a3.939,3.939,0,0,0-3.351,0l-.794.47-.265.176.265.176a11.407,11.407,0,0,1,6.585,9.2,10.26,10.26,0,0,1-5.527,8.673,31.839,31.839,0,0,1-29.986.412,3.851,3.851,0,0,0-3.5,0l-.412.235c-.323.176-.382.323-.382.353s0,.176.353.353a41.6,41.6,0,0,0,33.191,1.882Z" transform="translate(-71.68 -210.536)"/></g><path class="d" d="M102.6,238.214a26.135,26.135,0,0,1-12.7-3.146L72.44,224.984a9.907,9.907,0,0,1-5.88-7.938,7.408,7.408,0,0,1,4.233-6.35l1.47-.853a25.018,25.018,0,0,1,22.548.882l17.463,10.084a9.907,9.907,0,0,1,5.88,7.938,7.438,7.438,0,0,1-4.233,6.291l-1.5.853a19.991,19.991,0,0,1-9.819,2.322ZM82.259,209.7a18.022,18.022,0,0,0-8.819,2l-1.5.882a5.38,5.38,0,0,0-3.175,4.469,7.879,7.879,0,0,0,4.733,6.115l17.463,10.084a22.7,22.7,0,0,0,20.579.882l1.5-.852a5.409,5.409,0,0,0,3.2-4.469,7.938,7.938,0,0,0-4.733-6.115L93.871,212.608a23.518,23.518,0,0,0-11.612-2.969Z" transform="translate(-66.56 -207.58)"/></g><g transform="translate(124.399 34.588)"><path class="q" d="M182.889,214.343c-29.6-17.08-77.641-17.08-107.274,0s-29.633,44.832.118,62.06,77.67,17.11,107.274,0S212.523,231.453,182.889,214.343Zm-6.262,58.267c-26.135,15.081-68.5,15.081-94.6,0s-26.135-39.541,0-54.622,68.468-15.081,94.6,0,26.106,39.511,0,54.622Z" transform="translate(-53.405 -201.533)"/></g><g transform="translate(123.208 29.351)"><path class="d" d="M130.053,289.471c-19.638,0-39.247-4.322-54.181-12.935S53,256.751,53,244.58s8.085-23.519,22.754-31.9c29.869-17.227,78.464-17.257,108.332,0h0c14.7,8.467,22.754,19.785,22.754,31.9s-8.085,23.519-22.754,31.868S149.661,289.471,130.053,289.471Zm0-87.548c-19.256,0-38.482,4.2-53.123,12.671-13.994,8.085-21.7,18.756-21.7,30.074s7.7,21.96,21.7,30.045c29.4,16.9,76.935,16.9,106.216,0,13.994-8.085,21.7-18.756,21.7-30.045s-7.7-21.99-21.7-30.074h0C168.506,206.127,149.279,201.923,130.053,201.923Z" transform="translate(-53 -199.751)"/></g><g transform="translate(132.498 34.587)"><path class="d" d="M123.982,280.812a97.866,97.866,0,0,1-47.713-11.436C63.3,261.88,56.16,251.737,56.16,241.154s7.144-20.579,20.108-28.222c26.458-15.2,69.292-15.2,95.662,0h0c12.965,7.5,20.108,17.639,20.108,28.222s-7.144,20.726-20.108,28.222a97.866,97.866,0,0,1-47.949,11.436Zm0-77.229a95.69,95.69,0,0,0-46.773,11.083c-12.318,7.114-19.079,16.492-19.079,26.458s6.762,19.315,19.079,26.458c25.782,14.9,67.616,14.9,93.545,0,12.288-7.085,19.05-16.463,19.05-26.458s-6.762-19.285-19.05-26.458h0a95.779,95.779,0,0,0-46.773-11.083Z" transform="translate(-56.16 -201.533)"/></g><g transform="translate(267.406 116.043)"><g transform="translate(0 1.852)"><g transform="translate(0 39.217)"><path class="r" d="M102.05,244.445l2.175-1.235,16.581,9.554,3.381-1.94,1.764,1.029-5.527,3.2Z" transform="translate(-102.05 -243.21)"/></g><g transform="translate(7.614 34.837)"><path class="r" d="M104.64,242.955l2.146-1.235L125.131,252.3l-2.146,1.264Z" transform="translate(-104.64 -241.72)"/></g><g transform="translate(14.15 30.139)"><path class="r" d="M111.116,246.378a9.109,9.109,0,0,1-1.764-.794,5.144,5.144,0,0,1-2.411-2.264c-.294-.706.235-1.5,1.617-2.293a6.262,6.262,0,0,1,5.88-.323,21.1,21.1,0,0,1,2.94,1.47l1.088.647L116.408,244l-1.235-.706a14.965,14.965,0,0,0-2.528-1.264,3.8,3.8,0,0,0-1.235-.206,2.207,2.207,0,0,0-.882.265c-.529.323-.706.647-.559,1a3.263,3.263,0,0,0,1.352,1.176,5.26,5.26,0,0,0,1.97.764,16.454,16.454,0,0,0,1.764.147h3.616a15.4,15.4,0,0,1,7.526,1.734,6.821,6.821,0,0,1,2.94,2.528c.353.764,0,1.529-1.529,2.322a6.409,6.409,0,0,1-5.35.559,17.018,17.018,0,0,1-3.616-1.617h0l-1.764-1.029,2.087-1.235,1.882,1.088a12.109,12.109,0,0,0,2.94,1.441,2.322,2.322,0,0,0,1.852-.147c.529-.323.794-.588.735-.853a1.492,1.492,0,0,0-.794-.853c-.5-.294-1-.647-1.646-1.029A10.554,10.554,0,0,0,118.672,247h-2.587a17.845,17.845,0,0,1-4.968-.617Z" transform="translate(-106.863 -240.122)"/></g><g transform="translate(20.814 24.959)"><path class="r" d="M109.13,241.858l6.056-3.5,1.793,1.029-1.881,1.088,16.551,9.554-2.146,1.235-16.551-9.554-2.028,1.176Z" transform="translate(-109.13 -238.36)"/></g><g transform="translate(28.663 20.755)"><path class="r" d="M111.8,240.076l5.5-3.146,1.793,1.029-3.322,1.911,6.262,3.645,3.146-1.823,1.793,1.029-3.146,1.823,6.7,3.851,3.381-1.94,1.793,1.029-5.527,3.2Z" transform="translate(-111.8 -236.93)"/></g><g transform="translate(36.718 14.905)"><path class="r" d="M120.184,236.028l1.911-1.088,18.374,10.583-1.588.911-16.728-4.88,4.763,2.587,7.967,4.616-2,1.147L114.54,239.32l1.617-.941,16.757,4.733-5.527-2.94Z" transform="translate(-114.54 -234.94)"/></g><g transform="translate(47.449 11.818)"><path class="r" d="M118.19,235.154l2.175-1.264L138.71,244.5l-2.146,1.235Z" transform="translate(-118.19 -233.89)"/></g><g transform="translate(52.799 5.615)"><path class="r" d="M125.654,232.9l1.911-1.117,18.345,10.613-1.558.911-16.728-5,4.763,2.616,7.967,4.586-2,1.147L120.01,236.072l1.617-.941,16.757,4.762-5.527-2.94Z" transform="translate(-120.01 -231.78)"/></g><g transform="translate(65.061 0.823)"><path class="r" d="M127.471,236.324c-2.7-1.558-3.734-2.94-3.116-4a3.527,3.527,0,0,1,1.264-1.176,6.733,6.733,0,0,1,3.146-1,7.909,7.909,0,0,1,2.94.529,24.828,24.828,0,0,1,3.087,1.529l1.411.823-2.087,1.205-2.381-1.382a8.41,8.41,0,0,0-2.322-1,2.352,2.352,0,0,0-1.705.294q-.823.47-.441,1.147a8.055,8.055,0,0,0,2.352,1.734l7.732,4.469a18.434,18.434,0,0,0,3.351,1.588,2.587,2.587,0,0,0,2.058-.206c.588-.323.706-.735.323-1.205a11,11,0,0,0-2.734-1.97l-2.381-1.382-1.5.853-1.676-.941,3.469-2.028,9.643,5.586-1.147.647-1.705-.647c.647.853.412,1.617-.764,2.264a5.88,5.88,0,0,1-3.91.706,14.11,14.11,0,0,1-5.115-1.97Z" transform="translate(-124.181 -230.15)"/></g><g transform="translate(89.753 6.409)"><path class="r" d="M132.58,233.108l1.823-1.058,2.058,1.176-1.823,1.058Z" transform="translate(-132.58 -232.05)"/></g><g transform="translate(95.309 3.204)"><path class="r" d="M134.47,232.018l1.823-1.058,2.058,1.176-1.823,1.058Z" transform="translate(-134.47 -230.96)"/></g><g transform="translate(100.865)"><path class="r" d="M136.36,230.928l1.823-1.058,2.058,1.176-1.823,1.058Z" transform="translate(-136.36 -229.87)"/></g></g><g transform="translate(0.176)"><g transform="translate(0 39.217)"><path class="s" d="M102.11,243.815l2.175-1.235,16.551,9.554,3.41-1.94,1.764,1.029-5.527,3.2Z" transform="translate(-102.11 -242.58)"/></g><g transform="translate(7.614 34.837)"><path class="s" d="M104.7,242.325l2.146-1.235,18.345,10.583-2.146,1.264Z" transform="translate(-104.7 -241.09)"/></g><g transform="translate(14.15 30.134)"><path class="s" d="M111.176,245.751a9.118,9.118,0,0,1-1.764-.794A5.144,5.144,0,0,1,107,242.694c-.294-.735.235-1.5,1.617-2.293a6.35,6.35,0,0,1,5.88-.353,25.611,25.611,0,0,1,2.94,1.5l1.088.617-2.058,1.205-1.235-.706a16.142,16.142,0,0,0-2.528-1.264,3.117,3.117,0,0,0-1.235-.206,2.2,2.2,0,0,0-.882.265c-.529.294-.706.647-.559,1a3.263,3.263,0,0,0,1.352,1.176,6.525,6.525,0,0,0,1.97.764,11.36,11.36,0,0,0,1.764,0h3.645a15.376,15.376,0,0,1,7.526,1.764,6.791,6.791,0,0,1,2.94,2.5c.353.794,0,1.558-1.529,2.352a6.409,6.409,0,0,1-5.35.559,17.021,17.021,0,0,1-3.616-1.617h0l-1.764-1.029,2.087-1.205,1.881,1.088a13.261,13.261,0,0,0,2.94,1.44,2.234,2.234,0,0,0,1.852-.176c.529-.294.794-.588.735-.823a1.58,1.58,0,0,0-.794-.853c-.5-.294-1.029-.676-1.646-1.029a10.524,10.524,0,0,0-5.262-1.117H116.35a16.991,16.991,0,0,1-5.174-.5Z" transform="translate(-106.923 -239.49)"/></g><g transform="translate(20.814 24.93)"><path class="s" d="M109.19,241.218l6.056-3.5,1.793,1.058-1.882,1.088,16.551,9.554-2.146,1.235L113.012,241.1l-2.028,1.176Z" transform="translate(-109.19 -237.72)"/></g><g transform="translate(28.663 20.726)"><path class="s" d="M111.86,239.465l5.5-3.175,1.793,1.058-3.322,1.911,6.262,3.616,3.146-1.793,1.793,1.029-3.146,1.823,6.7,3.851,3.381-1.94,1.793,1.029-5.527,3.263Z" transform="translate(-111.86 -236.29)"/></g><g transform="translate(36.718 14.905)"><path class="s" d="M120.244,235.4l1.911-1.088,18.374,10.583-1.588.911-16.728-4.88,4.762,2.587,7.967,4.615-2,1.147L114.6,238.661l1.617-.941,16.757,4.762-5.527-2.94Z" transform="translate(-114.6 -234.31)"/></g><g transform="translate(47.449 11.818)"><path class="s" d="M118.25,234.495l2.175-1.235,18.344,10.583-2.146,1.264Z" transform="translate(-118.25 -233.26)"/></g><g transform="translate(52.799 5.615)"><path class="s" d="M125.744,232.238l1.911-1.088L146,241.733l-1.588.941-16.7-4.91,4.763,2.616,7.967,4.586-2,1.147L120.07,235.53l1.646-.941,16.757,4.763-5.527-2.94Z" transform="translate(-120.07 -231.15)"/></g><g transform="translate(65.061 0.823)"><path class="s" d="M127.531,235.694c-2.7-1.558-3.734-2.94-3.116-4a3.528,3.528,0,0,1,1.264-1.176,6.732,6.732,0,0,1,3.146-1,7.906,7.906,0,0,1,2.94.529,24.845,24.845,0,0,1,2.94,1.529l1.411.823-2.087,1.205-2.381-1.382a7.585,7.585,0,0,0-2.322-1,2.352,2.352,0,0,0-1.705.294c-.559.323-.706.706-.441,1.117a7.5,7.5,0,0,0,2.352,1.764l7.732,4.439a17.111,17.111,0,0,0,3.351,1.617,2.587,2.587,0,0,0,2.058-.206c.588-.353.706-.735.323-1.205a10.259,10.259,0,0,0-2.734-1.97l-2.411-1.382-1.47.853-1.676-.97,3.469-2,9.643,5.556-1.147.676-1.705-.647c.647.852.412,1.587-.764,2.264a5.88,5.88,0,0,1-3.91.706,14.231,14.231,0,0,1-5.115-2Z" transform="translate(-124.241 -229.52)"/></g><g transform="translate(89.753 6.409)"><path class="s" d="M132.64,232.449l1.823-1.029,2.058,1.176-1.823,1.058Z" transform="translate(-132.64 -231.42)"/></g><g transform="translate(95.309 3.204)"><path class="s" d="M134.53,231.359l1.823-1.029,2.058,1.176-1.823,1.058Z" transform="translate(-134.53 -230.33)"/></g><g transform="translate(100.865)"><path class="s" d="M136.42,230.3l1.823-1.058,2.058,1.176-1.823,1.058Z" transform="translate(-136.42 -229.24)"/></g></g></g><g transform="translate(73.025 1.706)"><path class="p" d="M163.166,339.815c-33.749,0-65.47-7.555-89.312-21.343C49.394,304.361,35.93,285.4,35.93,265.085s13.464-39.305,37.924-53.417c49.242-28.428,129.352-28.428,178.594,0,24.459,14.111,37.924,33.073,37.924,53.417,0,19.079-12.053,37.218-33.984,51.006-1.264.823-2.587,1.617-3.939,2.381C228.606,332.26,196.885,339.815,163.166,339.815Zm0-146.521c-31.809,0-63.588,7-87.813,20.961-23.489,13.582-36.277,31.632-36.277,50.829s12.935,37.248,36.424,50.8,54.563,20.932,87.813,20.932,64.382-7.438,87.783-20.932c1.323-.764,2.587-1.529,3.851-2.322,20.99-13.229,32.573-30.457,32.573-48.478,0-19.226-12.935-37.277-36.424-50.829C226.754,200.291,194.886,193.295,163.166,193.295Z" transform="translate(-35.93 -190.348)"/></g><g transform="translate(73.466)"><path class="q" d="M162.933,338.413c-33.69,0-65.323-7.585-89.106-21.314C49.486,303.047,36.08,284.2,36.08,263.947s13.406-38.953,37.747-52.917a142.263,142.263,0,0,1,28.428-12.347l.676,2.146A143.729,143.729,0,0,0,74.944,212.97c-23.519,13.641-36.6,31.809-36.6,51.153s12.994,37.483,36.6,51.124,54.681,20.99,87.989,20.99a219.911,219.911,0,0,0,24.165-1.352l.265,2.234a217.953,217.953,0,0,1-24.43,1.294Zm72.408-13.2-.853-2.087,4.821-2.058a129.33,129.33,0,0,0,11.583-5.88l1.5-.882,1.147,1.94-1.5.882a106.976,106.976,0,0,1-11.759,5.88ZM261.8,310.749l-1.352-1.823c17.639-12.847,26.988-28.369,26.988-44.891,0-19.344-12.994-37.512-36.63-51.153-32.691-18.874-80.551-25.694-124.913-17.639l-.412-2.2c44.862-8,93.339-1.088,126.412,18.051,24.342,14.052,37.718,32.9,37.718,53.093.147,17.139-9.5,33.279-27.723,46.567Z" transform="translate(-36.08 -189.767)"/></g><g transform="translate(0 54.042)"><path class="i" d="M210.234,352.348c-53.475,0-103.746-12.024-141.494-33.837a170.506,170.506,0,0,1-22.372-15.287l1.881-2.322a170.516,170.516,0,0,0,21.99,15.022c37.306,21.549,87.019,33.4,139.994,33.4h7.173v2.94ZM34.579,292.405a100.6,100.6,0,0,1-16.845-22.96,78.757,78.757,0,0,1-6.644-17.286l2.94-.735a77.964,77.964,0,0,0,6.409,16.639,97.014,97.014,0,0,0,16.375,22.343ZM408.7,254.746l-2.94-.823a68.855,68.855,0,0,0,2.94-19.491,70.085,70.085,0,0,0-4.733-25.194l2.94-1.088a72.378,72.378,0,0,1,2.029,46.6Z" transform="translate(-11.09 -208.15)"/></g><g transform="translate(1.558 45.722)"><path class="j" d="M210.411,349.019c-53.417,0-103.629-11.995-141.317-33.749a170.062,170.062,0,0,1-22.343-15.287l1.441-1.735A165.126,165.126,0,0,0,70.211,313.3c37.365,21.608,87.166,33.485,140.2,33.485h7.173v2.264Zm-175.39-59.8a101.365,101.365,0,0,1-16.786-22.96,78.759,78.759,0,0,1-6.615-17.227l2.175-.529a76.434,76.434,0,0,0,6.438,16.728,98.923,98.923,0,0,0,16.4,22.431Zm373.357-37.571-2.175-.617a69.47,69.47,0,0,0,2.94-19.579,71,71,0,0,0-4.733-25.341l2.087-.794a71.82,71.82,0,0,1,2,46.332Z" transform="translate(-11.62 -205.32)"/></g></g></g></g></svg>