<svg xmlns="http://www.w3.org/2000/svg" xmlns:xlink="http://www.w3.org/1999/xlink" width="529.374" height="522.105" viewBox="0 0 529.374 522.105"><defs><style>.a{fill:#e49408;}.b{fill:#fc0;}.c{fill:#f69503;}.d{fill:#ffb300;}.e,.n{opacity:0.3;}.f{fill:#ffa200;}.g{fill:#ffd950;}.h{fill:#ffc100;}.i{fill:#d78400;}.j{clip-path:url(#a);}.k{clip-path:url(#b);}.l{clip-path:url(#c);}.m{clip-path:url(#d);}.n{fill:#f5ebcb;}.o{fill:#e84a48;}.p{fill:#e74a47;}.q{fill:#111;}</style><clipPath id="a"><path class="a" d="M285.116,236.881l-18.929,11.012c-1.608.934-3.905.6-7.106-1.256l18.929-11C281.21,237.493,283.462,237.83,285.116,236.881Z" transform="translate(-259.08 -235.64)"/></clipPath><clipPath id="b"><path class="a" d="M283.375,188.648l-18.929,11c-1.532.919-3.783.75-6.616-.888l18.914-11C279.531,189.4,281.783,189.567,283.375,188.648Z" transform="translate(-257.83 -187.76)"/></clipPath><clipPath id="c"><path class="a" d="M309.458,298.444l-18.929,11c7.5-4.365,11.333-15.438,11.394-34.428,0-18.516-10.491-41.182-26.4-53.3l18.929-11c15.9,12.114,26.449,34.78,26.4,53.3C320.791,283.022,316.962,294.1,309.458,298.444Z" transform="translate(-275.52 -210.72)"/></clipPath><clipPath id="d"><path class="a" d="M312.447,243.591l-18.929,11c6.616-3.844,9.878-14.274,9.909-24.259,0-27.261-11.012-51.382-37.506-69.882l18.929-11c26.495,18.5,37.583,42.622,37.506,69.882C322.325,229.318,319.048,239.747,312.447,243.591Z" transform="translate(-265.92 -149.45)"/></clipPath></defs><g transform="translate(0 0)"><g transform="translate(132.282)"><g transform="translate(38.541 0)"><path class="b" d="M351.984,77.127q-3.431-2.159-6.846-4.2a8.484,8.484,0,0,0-.95-.551c-1.531-.919-3.063-1.807-4.594-2.68-5.835-3.323-11.747-6.31-17.689-9.036-1.041-.475-2.083-.95-3.063-1.394l-1.991-.842c-1.44-.628-2.925-1.225-4.365-1.792-1.715-.674-3.431-1.363-5.146-1.96a169.615,169.615,0,0,0-19.052-5.912c-2.726-.674-5.36-1.241-7.994-1.715-3.063-.567-6.034-1.041-8.99-1.363a122.134,122.134,0,0,0-14.3-1c-3.063,0-6.126.077-9.1.322A96.837,96.837,0,0,0,235.345,46.8a83.329,83.329,0,0,0-31,13.232h0L157.82,93.024a82.7,82.7,0,0,1,32.56-14.3,79.1,79.1,0,0,1,10.307-1.532c.72-.077,1.531-.168,2.236-.2a107.394,107.394,0,0,1,14.427-.2h0a126.472,126.472,0,0,1,17.965,2.19q3.951.72,7.948,1.715c4.12,1,8.362,2.205,12.589,3.645,3.277,1.026,6.555,2.19,9.863,3.507.6.2,1.164.444,1.761.689,2.083.827,4.2,1.715,6.356,2.665,1.041.444,2.114.919,3.155,1.409,5.758,2.634,11.471,5.544,17.092,8.7a3.917,3.917,0,0,1,.613.322c1.868,1.041,3.752,2.113,5.59,3.2.6.352,1.195.72,1.792,1.118,3.829,2.3,7.658,4.763,11.379,7.305L363.087,84.6C359.442,81.921,355.66,79.516,351.984,77.127Z" transform="translate(-157.82 -44.69)"/><path class="c" d="M419.926,252.768V251.65c-.23-2.527-.551-5.039-.873-7.566-.674-5.023-1.531-10.093-2.481-15.177-.352-2.068-.8-4.15-1.271-6.233-.4-1.838-.8-3.676-1.24-5.513q-.965-4-2.037-8.025c-.674-2.588-1.44-5.238-2.205-7.826-.337-1.149-.7-2.282-1.057-3.4L362.3,224.742c.291.858.6,1.715.873,2.573l1.792,5.912c.276.873.521,1.761.766,2.634.75,2.634,1.531,5.314,2.159,7.949.95,3.6,1.792,7.2,2.588,10.721.444,2.083.888,4.2,1.24,6.279.643,3.2,1.195,6.386,1.685,9.587.429,2.879.827,5.713,1.149,8.546.2,1.532.368,3.063.521,4.595v.521c.2,2.19.352,4.349.521,6.463.4,5.988.551,11.793.4,17.413,0,2.6-.2,5.115-.367,7.658,0,.628-.077,1.271-.122,1.868-.107,1.96-.306,3.844-.505,5.713a135.537,135.537,0,0,1-5.958,27.889c-.245.674-.444,1.317-.689,1.96a98.231,98.231,0,0,1-4.028,9.939,3.747,3.747,0,0,0-.153.368,86.209,86.209,0,0,1-26.694,33.188l45.669-32.468h-.092a83.713,83.713,0,0,0,21.441-24.182,91.6,91.6,0,0,0,4.472-8.347c.72-1.531,1.409-3.063,2.037-4.671.812-1.838,1.531-3.722,2.205-5.667a136.718,136.718,0,0,0,6.585-29.206,1.854,1.854,0,0,1,.077-.643c.245-2.481.49-5.023.643-7.658a9.078,9.078,0,0,1,.077-1.44,176.391,176.391,0,0,0-.2-23.57C420.232,256.72,420.125,254.713,419.926,252.768Z" transform="translate(-62.336 36.747)"/><path class="d" d="M449.361,262.995c-1.241-3.844-2.527-7.658-3.921-11.5q-1.378-3.829-2.879-7.658a6.7,6.7,0,0,0-.322-.873c-.72-1.93-1.531-3.844-2.313-5.758q-3.538-8.684-7.657-17.26l-.766-1.777c-.888-1.761-1.761-3.553-2.68-5.314v-.077c-3.063-6.126-6.264-12.252-9.71-18.256-.827-1.531-1.669-3.063-2.588-4.487a3.792,3.792,0,0,0-.322-.6c-1.241-2.113-2.481-4.2-3.752-6.264-2.282-3.752-4.594-7.428-7.03-11.1-1.118-1.685-2.205-3.369-3.369-4.993s-2.512-3.676-3.829-5.513c-1.531-2.205-3.063-4.365-4.671-6.524-1.087-1.531-2.236-3.063-3.4-4.594s-2.313-3.063-3.507-4.595c-2.956-3.829-6-7.658-9.189-11.3-1.195-1.531-2.512-3.063-3.8-4.594-.475-.567-.95-1.118-1.424-1.639-.842-1.011-1.685-1.96-2.558-2.925-4.594-5.192-9.281-10.184-14.059-15.055-.49-.475-.965-.965-1.44-1.44l-2.879-2.879c-1-1-2.037-1.96-3.063-2.91-4.028-3.875-8.1-7.658-12.252-11.272-1.531-1.317-3.063-2.634-4.595-3.905L327.913,85c-2.236-1.792-4.472-3.6-6.708-5.314s-4.319-3.308-6.524-4.916c-1.715-1.317-3.431-2.558-5.146-3.752l-.429-.291L259.47,99.4c1.731,1.179,3.476,2.328,5.207,3.553s3.477,2.435,5.192,3.722c.674.475,1.348,1,1.991,1.532,2.313,1.731,4.595,3.477,6.831,5.314,2.634,2.037,5.238,4.2,7.826,6.4,1.531,1.271,3.063,2.588,4.594,3.905,2.8,2.435,5.605,4.962,8.316,7.52,2.037,1.868,4.028,3.8,6.034,5.743q.475.429.965.919l4.3,4.319q6.708,6.785,13.11,13.983l.95,1.072c1.363,1.532,2.68,3.063,4,4.595l.4.475c4.319,4.993,8.469,10.108,12.543,15.315,1.21,1.531,2.359,3.063,3.568,4.594l.276.4c1.639,2.113,3.231,4.273,4.748,6.478,2.359,3.231,4.595,6.509,6.831,9.786,1.164,1.639,2.282,3.308,3.354,4.993,1.44,2.19,2.879,4.426,4.273,6.662s2.849,4.518,4.166,6.831c.827,1.286,1.532,2.558,2.359,3.875,1,1.685,1.945,3.369,2.91,5.085,2.558,4.472,4.993,8.99,7.351,13.569.842,1.532,1.639,3.17,2.435,4.763l1.195,2.389c.49.965.965,1.93,1.44,2.925q4.5,9.465,8.469,19.052c.245.567.49,1.164.689,1.715.551,1.363,1.118,2.68,1.639,4.043s.873,2.313,1.317,3.477c1.746,4.595,3.369,9.189,4.916,13.921l46.527-26.817C449.866,264.664,449.621,263.822,449.361,262.995Z" transform="translate(-103.793 -30.85)"/></g><g class="e" transform="translate(81.454)"><path class="f" d="M323.624,81.9l-49.253,28.44c-2.282-1.838-4.518-3.584-6.83-5.314l49.345-28.44C319.152,78.305,321.388,80.112,323.624,81.9Z" transform="translate(-142.416 -27.735)"/><path class="f" d="M340.3,97.68l-48.7,28.088c-2.006-1.945-4-3.875-6.034-5.743L334.369,91.86c1.011.95,2.052,1.914,3.063,2.91Z" transform="translate(-132.839 -19.619)"/><path class="f" d="M256.3,45.685l-53.8,31.09h0a107.389,107.389,0,0,0-14.427.2,20.921,20.921,0,0,0-2.236.2L242.046,44.69a122.135,122.135,0,0,1,14.258,1Z" transform="translate(-185.84 -44.69)"/><path class="f" d="M282.707,54.962l-50.984,29.4c-3.308-1.317-6.585-2.481-9.863-3.507L273.2,51.21c1.715.6,3.431,1.286,5.146,1.96C279.781,53.737,281.267,54.334,282.707,54.962Z" transform="translate(-166.695 -41.225)"/><path class="f" d="M304.7,67.518,254.774,96.325c-.6-.4-1.195-.766-1.792-1.118-1.838-1.087-3.722-2.159-5.59-3.2a3.922,3.922,0,0,0-.613-.322L296.845,62.77a8.488,8.488,0,0,1,.95.551Q301.286,65.358,304.7,67.518Z" transform="translate(-153.45 -35.08)"/><path class="f" d="M398.131,191.4l-46.7,26.924c-.444-1.164-.888-2.328-1.317-3.477s-1.087-2.68-1.639-4.043l46.741-27Q396.753,187.568,398.131,191.4Z" transform="translate(-99.396 29.247)"/><path class="f" d="M407.489,236.744l-45.47,26.235c-.322-2.833-.72-5.667-1.149-8.546l45.654-26.372c.322,2.527.643,5.039.873,7.566v.551C407.4,236.376,407.489,236.545,407.489,236.744Z" transform="translate(-92.811 52.772)"/><path class="f" d="M355.1,114.538l-48.242,27.843-.4-.475c-1.317-1.531-2.634-3.063-4-4.594l-.95-1.072,48.38-27.919c.475.521.95,1.072,1.424,1.639C352.586,111.506,353.9,113.022,355.1,114.538Z" transform="translate(-124.361 -10.87)"/><path class="f" d="M368.257,132.334,320.4,159.978c-1.532-2.205-3.063-4.365-4.748-6.478l48.013-27.69C365.286,127.969,366.8,130.129,368.257,132.334Z" transform="translate(-116.846 -1.575)"/><path class="f" d="M379.922,151.041l-47.477,27.445c-1.317-2.313-2.726-4.594-4.166-6.831l47.63-27.475c1.271,2.068,2.512,4.15,3.752,6.264a3.8,3.8,0,0,1,.26.6Z" transform="translate(-110.133 8.189)"/><path class="f" d="M389.959,170.693l-47.14,27.261-1.195-2.389c-.8-1.531-1.531-3.2-2.435-4.763l47.186-27.291v.077c.919,1.761,1.792,3.553,2.68,5.314Z" transform="translate(-104.334 18.463)"/><path class="f" d="M407.373,253a9.079,9.079,0,0,1-.077,1.44c-.153,2.6-.4,5.146-.643,7.658a1.854,1.854,0,0,1-.077.643L362.27,288.225c0-.6.092-1.241.122-1.868.168-2.527.291-5.039.367-7.658Z" transform="translate(-92.067 66.027)"/><path class="f" d="M401.65,282.06c-.628,1.532-1.317,3.155-2.037,4.671a91.644,91.644,0,0,1-4.472,8.347L355,318.249a98.233,98.233,0,0,0,4.028-9.939c.245-.643.444-1.286.689-1.96Z" transform="translate(-95.931 81.473)"/><path class="f" d="M404.194,213.265l-46.175,26.648c-.643-2.634-1.409-5.314-2.159-7.948l46.3-26.725Q403.245,209.268,404.194,213.265Z" transform="translate(-95.474 40.643)"/></g><path class="g" d="M290.408,81.564c96.714,44.153,183.352,166.352,193.49,272.9S423.848,511.518,327.133,467.3s-183.367-166.4-193.505-272.929S193.678,37.3,290.408,81.564Z" transform="translate(-132.654 -33.612)"/><path class="h" d="M385.862,456.412c-17.459,0-36.756-4.778-57.37-14.2C237.7,400.727,156.09,285.589,146.564,185.551c-3.477-37.185,3.8-67.876,20.675-86.407,12.405-13.661,29.42-20.583,50.54-20.583,17.459,0,36.756,4.778,57.37,14.2,90.787,41.488,172.4,156.627,181.9,256.665,3.538,37.185-3.8,67.876-20.66,86.423C424,449.49,407,456.412,385.862,456.412Z" transform="translate(-125.712 -26.688)"/><g transform="translate(102.068 100.865)"><path class="a" d="M153.06,175.946l18.929-11,25.071,14.473-18.929,11Z" transform="translate(-152.999 -13.193)"/><path class="i" d="M195.647,218.2l18.929-11.012L214.484,236l-18.914,11Z" transform="translate(-130.405 9.257)"/><path class="i" d="M219.342,231.606l18.929-11-.092,29.206-18.929,11Z" transform="translate(-117.819 16.39)"/><path class="a" d="M196.32,192.452l18.929-11.012,25.239,14.58-18.929,11Z" transform="translate(-130.006 -4.429)"/><path class="i" d="M196.412,169.856l18.929-11-.092,34.581L196.32,204.453Z" transform="translate(-130.006 -16.43)"/><g transform="translate(91.553 191.576)"><path class="a" d="M285.116,236.881l-18.929,11.012c-1.608.934-3.905.6-7.106-1.256l18.929-11C281.21,237.493,283.462,237.83,285.116,236.881Z" transform="translate(-259.08 -235.64)"/><g class="j"><g transform="translate(0 0)"><path class="a" d="M259.08,246.636l18.929-11c3.2,1.853,5.483,2.19,7.106,1.241l-18.929,11.012C264.578,248.826,262.281,248.489,259.08,246.636Z" transform="translate(-259.08 -235.64)"/></g></g></g><path class="a" d="M153.34,77.1l18.929-11L197.34,80.573l-18.929,11Z" transform="translate(-152.85 -65.732)"/><path class="a" d="M196.45,145.356l18.929-11L238.49,147.7,219.56,158.711Z" transform="translate(-129.937 -29.452)"/><path class="a" d="M196.527,128.176l18.929-11-.077,26.311-18.929,11Z" transform="translate(-129.937 -38.583)"/><g transform="translate(89.639 118.247)"><path class="a" d="M283.375,188.648l-18.929,11c-1.532.919-3.783.75-6.616-.888l18.914-11C279.531,189.4,281.783,189.567,283.375,188.648Z" transform="translate(-257.83 -187.76)"/><g class="k"><g transform="translate(0 0)"><path class="a" d="M257.83,198.756l18.914-11c2.833,1.639,5.039,1.807,6.631.888l-18.929,11C262.915,200.563,260.663,200.395,257.83,198.756Z" transform="translate(-257.83 -187.76)"/></g></g></g><path class="a" d="M169.71,86.546l18.929-11L205.3,85.168,186.373,96.179Z" transform="translate(-144.149 -60.71)"/><g transform="translate(116.731 153.411)"><path class="a" d="M309.458,298.444l-18.929,11c7.5-4.365,11.333-15.438,11.394-34.428,0-18.516-10.491-41.182-26.4-53.3l18.929-11c15.9,12.114,26.449,34.78,26.4,53.3C320.791,283.022,316.962,294.1,309.458,298.444Z" transform="translate(-275.52 -210.72)"/><g class="l"><path class="i" d="M275.52,221.726l18.929-11c15.9,12.114,26.449,34.78,26.4,53.3,0,18.991-3.89,30.063-11.394,34.428l-18.929,11c7.5-4.365,11.333-15.437,11.394-34.428C301.923,256.507,291.432,233.84,275.52,221.726Z" transform="translate(-275.52 -210.715)"/></g></g><path class="a" d="M195.95,101.7l18.929-11,12.757,7.367-18.929,11Z" transform="translate(-130.203 -52.657)"/><path class="i" d="M196.027,85.726l18.914-11-.061,24.458-18.929,11Z" transform="translate(-130.203 -61.146)"/><path class="a" d="M180.64,76.856l18.914-11,23.524,13.584-18.914,11Z" transform="translate(-138.34 -65.86)"/><path class="a" d="M204.32,90.542,223.249,79.53l23.524,13.584-18.929,11Z" transform="translate(-125.754 -58.594)"/><path class="i" d="M219.7,99.4l18.929-11-.077,25.071-18.914,11Z" transform="translate(-117.611 -53.88)"/><g transform="translate(102.029 59.575)"><path class="a" d="M312.447,243.591l-18.929,11c6.616-3.844,9.878-14.274,9.909-24.259,0-27.261-11.012-51.382-37.506-69.882l18.929-11c26.495,18.5,37.583,42.622,37.506,69.882C322.325,229.318,319.048,239.747,312.447,243.591Z" transform="translate(-265.92 -149.45)"/><g class="m"><path class="i" d="M265.92,160.446l18.929-11c26.495,18.5,37.583,42.622,37.506,69.882,0,9.985-3.308,20.415-9.909,24.259l-18.929,11c6.616-3.844,9.878-14.274,9.909-24.259C303.427,203.068,292.415,178.947,265.92,160.446Z" transform="translate(-265.92 -149.45)"/></g></g><path class="g" d="M316.031,271.172c15.912,12.114,26.449,34.78,26.4,53.3-.107,36.557-14.212,43.77-41.611,30.278v29.19L277.3,370.367V341.56l-12.757-7.367L264.465,363l-23.524-13.584V320.609L199.3,296.518V269.487l25.055,14.473.352-124.343-25.055-14.473V118.114l25.224,14.473,16.663,9.618V117.7l23.524,13.569-.077,24.5,12.757,7.367.077-24.5,23.631,13.63-.077,25.055c26.495,18.5,37.583,42.622,37.507,69.882C338.789,262.335,331.3,278.492,316.031,271.172Zm-25.178,38.15c8.056,4.594,10.414-.291,10.445-11.012,0-9.021-2.083-18.807-10.338-23.57l-25.239-14.58-.107,34.6,25.239,14.565ZM265.905,196.266v26.327l23.11,13.339c6.371,3.691,9.572,0,9.6-6.922,0-10.721-4.87-16.693-9.526-19.389Z" transform="translate(-199.3 -106.75)"/></g><path class="n" d="M389,176.15q-99.333,59.729-194.149,126.18c28.547,35.607,62.945,65.5,99.18,83.957,44.184-31.978,90.052-61.352,136.84-89.532C426.934,257.09,411.65,215,389,176.15Z" transform="translate(-99.597 25.181)"/><path class="n" d="M296.04,95.56c-50.693,32.606-100.329,66.483-147.56,103.667a294.889,294.889,0,0,0,18.087,57.814C224.32,212.628,284.324,171.967,346,133.633A296.14,296.14,0,0,0,296.04,95.56Z" transform="translate(-124.243 -17.652)"/><g transform="translate(19.989 55.333)"><path class="b" d="M302.162,323.228a261.889,261.889,0,0,1-57.829-37.078l-16.4,9.465a260.554,260.554,0,0,0,56.865,36.251c20.614,9.388,39.911,14.182,57.37,14.182,16.173,0,29.956-4.028,41.106-12.1a77.16,77.16,0,0,1-23.692,3.431C342.073,337.409,322.776,332.662,302.162,323.228Z" transform="translate(-102.004 28.313)"/><path class="c" d="M163.983,175.7c-3.553-37.2,3.8-67.876,20.66-86.407a60.08,60.08,0,0,1,9.465-8.469,60.264,60.264,0,0,0-26.893,17.122c-16.847,18.531-24.167,49.207-20.645,86.407.689,7.229,1.792,14.534,3.216,21.885l17.153-9.909C165.652,189.4,164.626,182.512,163.983,175.7Z" transform="translate(-145.706 -80.82)"/><path class="d" d="M165.523,156.25l-17.153,9.909c13.967,72.44,62.118,149.26,121.846,198.5l16.4-9.465C227.013,305.633,179.092,228.659,165.523,156.25Z" transform="translate(-144.29 -40.729)"/></g></g><g transform="translate(0 77.938)"><g transform="translate(145.248 117.124)"><g transform="translate(66.835 62.634)"><path class="o" d="M210.949,295.7v22.651a1.424,1.424,0,0,1-2.282,1.332l-7.351-4.273c-1.914-1.164-3.538-.214-3.538,2.129h0a8.025,8.025,0,0,0,3.538,6.31l9.633,5.59,13.079,7.52,9.893,5.728c1.9,1.164,3.522.214,3.522-2.129h0a8.1,8.1,0,0,0-3.522-6.325l-7.658-4.365a5.069,5.069,0,0,1-2.3-3.967V303.327c15.147,5.345,26.587-3.415,26.587-21.931V281.1a8.347,8.347,0,0,0-3.813-6.54l-.7-.383c-2.144-1.271-3.921-.245-3.921,2.267h0c0,16.035-11.517,22.283-25.637,13.385A55.394,55.394,0,0,1,193.2,247.442h0a7.06,7.06,0,0,0-3.277-5.682l-1.378-.781c-2.052-1.195-3.783-.245-3.783,2.129v.245C184.821,261.731,196.017,283.478,210.949,295.7Z" transform="translate(-184.76 -198.332)"/><path class="o" d="M194.09,263.028V228.095c0-12.742,7.658-18.577,17.275-13.064l2.573,1.531c9.541,5.513,17.275,20.308,17.275,33.019v34.964c0,12.727-7.734,18.592-17.275,13.079l-2.573-1.531C201.824,290.549,194.09,275.816,194.09,263.028Z" transform="translate(-179.801 -212.953)"/></g><path class="p" d="M146.79,242.314c0,59.269,41.58,131.464,92.932,160.992s92.962,5.621,92.962-53.6-41.611-131.4-92.962-161.038S146.79,183.045,146.79,242.314Zm92.824,148.112c-45.241-26.036-81.951-89.44-81.951-141.848s36.756-73.512,81.951-47.339S321.7,290.955,321.7,343.225s-36.664,73.512-81.951,47.339Z" transform="translate(-138.106 -169.976)"/><path class="q" d="M234.71,401.925c-51.6-29.8-93.59-102.534-93.59-162.125,0-29.1,9.848-50.968,27.858-61.352s41.856-8.056,67.11,6.54c51.612,29.772,93.605,102.534,93.605,162.125,0,29.175-9.924,50.922-27.9,61.26a49.008,49.008,0,0,1-24.718,6.386,85.61,85.61,0,0,1-42.361-12.834ZM194.064,174.742a46.251,46.251,0,0,0-23.555,6C153.372,190.639,144,211.514,144,239.77,144,298.5,185.35,370.208,236.3,399.6c24.366,14.12,47.247,16.418,64.323,6.54s26.556-30.768,26.556-59.024c0-58.748-41.351-130.438-92.288-159.828a83.344,83.344,0,0,0-40.8-12.65Z" transform="translate(-141.12 -172.056)"/><g transform="translate(11.012 14.152)"><path class="q" d="M230.935,384.272c-45.562-26.327-82.625-90.5-82.625-143.134,0-25.913,8.837-45,24.734-54.169s36.97-7.183,59.269,5.712c45.562,26.311,82.7,90.5,82.7,143.119,0,25.76-8.791,45.011-24.718,54.231a43.618,43.618,0,0,1-22.008,5.651A76.07,76.07,0,0,1,230.935,384.272ZM174.56,189.266c-15.055,8.684-23.355,27.154-23.355,51.872,0,51.8,36.419,114.939,81.246,140.9,21.2,12.39,41.458,14.411,56.512,5.713s23.31-27.154,23.31-51.887c0-51.78-36.419-114.863-81.17-140.9a73.374,73.374,0,0,0-36.067-11.057,40.692,40.692,0,0,0-20.476,5.36Z" transform="translate(-148.31 -181.297)"/></g><g transform="translate(60.213 95.918)"><path class="q" d="M230.308,339.784l-32.636-18.853a9.327,9.327,0,0,1-4.334-7.458,3.875,3.875,0,0,1,1.731-3.538,3.951,3.951,0,0,1,3.921.26l7.336,4.273h.291V292.139c-15.193-12.788-26.173-34.9-26.173-52.99v-.49a3.967,3.967,0,0,1,1.807-3.538,3.905,3.905,0,0,1,4.012.26l1.378.766a8.684,8.684,0,0,1,3.921,6.861,54.384,54.384,0,0,0,22.651,41.351c6.325,4.089,12.6,4.87,16.847,2.5s6.677-7.765,6.677-14.825a3.722,3.722,0,0,1,5.942-3.293l.7.429a9.848,9.848,0,0,1,4.487,7.949c0,9.817-3.186,17.49-8.975,21.579a20.185,20.185,0,0,1-17.658,2.159V321.62a3.768,3.768,0,0,0,1.623,2.787l7.657,4.38a9.434,9.434,0,0,1,4.3,7.458,3.844,3.844,0,0,1-1.731,3.538,3.17,3.17,0,0,1-1.623.413,4.808,4.808,0,0,1-2.159-.413Zm-8.837-42.1a18.011,18.011,0,0,0,16.954-1.241c5.085-3.6,7.887-10.491,7.887-19.68a7.091,7.091,0,0,0-3.155-5.36l-.735-.429a1.532,1.532,0,0,0-1.531-.276c-.459.168-.459.7-.459,1.44,0,8.163-2.542,14.166-8.056,17.107s-12.252,2.037-19.634-2.588a56.528,56.528,0,0,1-23.784-43.541,5.927,5.927,0,0,0-2.619-4.595l-1.363-.812a1.531,1.531,0,0,0-1.378-.245,1.44,1.44,0,0,0-.429,1.241v.245c0,17.52,10.721,39.1,25.637,51.244l.505.429V313.9a2.787,2.787,0,0,1-.49,1.807,2.7,2.7,0,0,1-3.783.659l-7.351-4.227a1.531,1.531,0,0,0-1.271-.291c-.4.138-.4.643-.4,1.241a6.846,6.846,0,0,0,2.971,5.161l32.606,18.822a1.532,1.532,0,0,0,1.241.245,1.378,1.378,0,0,0,.414-1.195,6.769,6.769,0,0,0-3.063-5.192l-7.535-4.258a6.233,6.233,0,0,1-2.971-5.085v-24.5Z" transform="translate(-180.436 -234.687)"/></g><g transform="translate(74.416 53.934)"><path class="q" d="M210.263,294.35l-2.6-1.531c-9.894-5.728-17.949-21.058-17.949-34.2V223.7c0-7.167,2.435-12.681,6.647-15.116a12.374,12.374,0,0,1,12.635.919l2.588,1.531c9.878,5.712,17.934,21.043,17.934,34.183v34.934c0,7.213-2.4,12.711-6.631,15.147a10.062,10.062,0,0,1-5.085,1.348,15.315,15.315,0,0,1-7.535-2.3Zm-12.574-83.513c-3.385,1.945-5.3,6.647-5.3,12.834v34.964c0,12.252,7.458,26.526,16.6,31.794l2.588,1.531a9.8,9.8,0,0,0,9.985.873c3.354-1.93,5.3-6.6,5.3-12.819V245.143c0-12.175-7.443-26.48-16.6-31.779l-2.6-1.531a12.834,12.834,0,0,0-6.126-1.884,7.765,7.765,0,0,0-3.844.888Z" transform="translate(-189.71 -207.273)"/></g></g><g transform="translate(80.036 40.263)"><path class="p" d="M343.642,522.235C387.688,514.578,414,473.7,414,412.748a287.112,287.112,0,0,0-19.91-99.931l3.323-1.271a290.74,290.74,0,0,1,20.155,101.2c0,62.792-27.368,105.076-73.282,113.025ZM172.619,428.37l2.787-2.129c25.009,32.636,53.894,58.963,83.559,76.085l-1.761,3.063C227.11,487.976,197.873,461.343,172.619,428.37ZM98.54,230.484c0-6.126.245-12.252.781-17.934.459-4.916,1.1-9.725,1.914-14.3,6.739-38.043,26.173-65.181,54.736-76.376l1.317,3.293c-27.383,10.721-46.068,36.909-52.592,73.711-.781,4.595-1.424,9.327-1.838,14.136-.536,5.682-.781,11.609-.781,17.658,0,56.375,22.253,121.433,60.923,178.3l-2.925,1.976C121.007,353.433,98.54,287.7,98.54,230.484Zm240.155-15.928,2.787-2.159A384.773,384.773,0,0,1,381.3,275.342l-3.14,1.531a384,384,0,0,0-39.467-62.317Z" transform="translate(-98.54 -121.87)"/></g><path class="p" d="M46.877,227.121l3.538-.291c8.622,102.442,62.485,219,140.194,303.758l-2.619,2.374C109.654,447.6,55.683,330.359,46.877,227.121Zm406.231,12.038,3.063-1.761c45.21,78.306,70.112,162.125,70.112,236.02h-3.522c0-73.267-24.764-156.474-69.653-234.259ZM46.28,177.745c2.083-31.518,9.082-59.131,20.813-82.165l3.14,1.531c-11.517,22.6-18.378,49.759-20.415,80.771Z" transform="translate(-46.28 -95.58)"/></g></g></svg>