<svg xmlns="http://www.w3.org/2000/svg" width="424.821" height="696.427" viewBox="0 0 424.821 696.427"><defs><style>.a{fill:#dedede;}.b{fill:#1aa3d3;}.c{fill:#97e2fc;}.d{fill:#3f4040;}.e{fill:#f0b735;}.f{fill:#e7b735;}.g{fill:#fff;}</style></defs><g transform="translate(-241 -28.954)"><g transform="translate(547.912 478.816)"><path class="a" d="M476.856,253.111l-50.683,29.181a12.545,12.545,0,0,1-12.031,0l-51.707-29.949a3.349,3.349,0,0,1,0-5.631l50.171-28.925a15.018,15.018,0,0,1,15.358,0L477.112,246.2A4.187,4.187,0,0,1,476.856,253.111Z" transform="translate(-360.9 -187.582)"/><g transform="translate(6.143)"><g transform="translate(1.28 1.28)"><path class="b" d="M456.462,231.053,408.851,258.7,363.8,232.845,411.411,205.2Zm-46.843,15.1,25.085-14.59L410.9,218l-25.085,14.59Z" transform="translate(-363.8 -205.2)"/></g><g transform="translate(1.024 6.655)"><path class="c" d="M456.618,233.153,409.007,260.8,363.7,234.945,411.311,207.3Zm-47.1,15.1,25.085-14.59L410.8,220.1l-25.085,14.59Z" transform="translate(-363.7 -207.3)"/></g><g transform="translate(1.28 28.925)"><path class="b" d="M363.8,216v25.853l45.307,25.853V241.853Z" transform="translate(-363.8 -216)"/></g><g transform="translate(46.587 27.133)"><path class="d" d="M428.855,215.3v25.853L381.5,268.8V242.945Z" transform="translate(-381.5 -215.3)"/></g><g transform="translate(48.123 13.823)"><path class="b" d="M382.1,210.1v13.311l12.543,7.167,11.519-6.655Z" transform="translate(-382.1 -210.1)"/></g><g transform="translate(23.038 13.823)"><path class="d" d="M372.3,224.946,397.385,210.1v13.311l-13.567,7.935Z" transform="translate(-372.3 -210.1)"/></g><g transform="translate(20.478 12.287)"><path class="d" d="M425.822,224.858l-25.341-14.59h0l-1.28-.768-1.28.768h0L371.3,225.626l26.621,15.358Zm-14.335,5.119-11.007-6.4V213.6l19.71,11.263Zm-34.812-4.1,20.99-12.287v9.983l-12.287,7.167Zm11.519,6.4,11.007-6.4,9.727,5.631-11.007,6.4Z" transform="translate(-371.3 -209.5)"/></g><path class="d" d="M458.778,258.454v-25.6h0v-1.536l-1.28-.768h0L412.191,204.7,364.58,232.345h0l-1.28.768v1.536h0v25.6l46.587,26.621Zm-2.816-24.317v22.526l-44.8,26.365V260.5l17.662-10.239Zm-88.823-.512,44.8-26.109,42.492,24.317L427.037,247.7l-17.406,10.239L372,236.441Zm-1.28,25.085V236.185l20.734,12.031L408.351,260.5v22.526Z" transform="translate(-363.3 -204.7)"/></g></g><g transform="translate(285.027 28.954)"><g transform="translate(0 60.526)"><path class="b" d="M467.006,53.2H260.18a1.209,1.209,0,0,0-1.28,1.28l.256,455.12c-.512,2.3.512,4.863,3.328,6.655l91.382,52.73c5.375,3.072,14.846,2.816,21.246-.768l88.311-50.939c3.328-1.792,4.863-4.352,5.119-6.655V54.48C468.286,53.968,467.774,53.2,467.006,53.2Z" transform="translate(-257.108 -51.664)"/><path class="d" d="M364.173,573.761a19.862,19.862,0,0,1-9.983-2.3l-91.382-52.731c-3.328-2.048-4.863-5.119-4.352-8.191L258.2,55.672a3.113,3.113,0,0,1,3.072-3.072H468.1a3.113,3.113,0,0,1,3.072,3.072V511.816c-.256,3.072-2.3,5.887-5.887,7.935l-88.311,50.939A27.755,27.755,0,0,1,364.173,573.761ZM261.528,55.928l.256,454.864v.256c-.512,2.3,1.024,3.84,2.56,4.607l91.382,52.73c4.863,2.816,13.822,2.3,19.454-.768l88.311-50.939c2.56-1.536,4.1-3.328,4.352-5.12V55.928H261.528Z" transform="translate(-258.2 -52.6)"/></g><g transform="translate(106.485 62.062)"><path class="d" d="M404.493,510.624V54.48a1.209,1.209,0,0,0-1.28-1.28H389.9l-90.1,54.266V571.033a21.266,21.266,0,0,0,11.263-3.072l88.311-50.939C402.7,515.231,404.237,512.927,404.493,510.624Z" transform="translate(-299.8 -53.2)"/></g><g transform="translate(0)"><path class="b" d="M353.925,148.482l-91.382-52.73c-5.375-3.072-4.864-8.7,1.536-12.287l88.311-50.939c6.143-3.584,15.614-4.1,21.246-.768l91.126,52.73c5.375,3.072,4.863,8.7-1.536,12.287l-88.311,50.939C368.772,151.3,359.3,151.81,353.925,148.482Z" transform="translate(-257.168 -28.059)"/><path class="c" d="M372.516,140.777l88.311-50.939a3.534,3.534,0,0,0,1.024-.768L370.98,36.6c-5.375-3.072-14.846-2.816-21.246.768L261.424,88.3a3.532,3.532,0,0,0-1.024.768l91.126,52.73C356.9,144.872,366.373,144.616,372.516,140.777Z" transform="translate(-254.769 -20.353)"/><path class="d" d="M364.173,153.218a19.861,19.861,0,0,1-9.983-2.3l-91.382-52.73c-2.816-1.792-4.608-4.1-4.608-6.655,0-3.072,2.3-6.143,6.143-8.447L352.4,32.143c6.911-3.84,16.894-4.352,22.782-.768l91.382,52.73c2.816,1.792,4.607,4.1,4.607,6.655,0,3.072-2.3,6.143-6.143,8.447l-88.311,50.939A26,26,0,0,1,364.173,153.218ZM365.453,32.4a24.47,24.47,0,0,0-11.263,2.816L265.879,86.153c-2.816,1.536-4.352,3.584-4.352,5.375s1.536,3.072,2.816,3.84l91.382,52.73c4.863,2.816,13.823,2.3,19.454-.768L463.49,96.392c2.816-1.536,4.352-3.584,4.352-5.375s-1.536-3.072-2.816-3.84L373.644,34.191C371.6,32.911,368.524,32.4,365.453,32.4Z" transform="translate(-258.2 -28.954)"/></g><g transform="translate(36.86 41.767)"><path class="b" d="M301.136,82.942,274.514,67.583c-1.536-1.024-1.28-2.56.512-3.584l25.6-14.846c1.792-1.024,4.607-1.28,6.143-.256l26.621,15.358c1.536,1.024,1.28,2.56-.512,3.584l-25.6,14.846A5.921,5.921,0,0,1,301.136,82.942Z" transform="translate(-271.187 -40.633)"/><path class="d" d="M304.6,84a8.176,8.176,0,0,1-3.584-.768L274.392,67.87A3.342,3.342,0,0,1,272.6,64.8a4.454,4.454,0,0,1,2.3-3.584l25.6-14.846a8.692,8.692,0,0,1,7.935-.256l26.621,15.358a3.342,3.342,0,0,1,1.792,3.072,4.454,4.454,0,0,1-2.3,3.584l-25.6,14.846A12.059,12.059,0,0,1,304.6,84Zm.512-35.324a4.939,4.939,0,0,0-2.56.768l-25.6,14.846a3.168,3.168,0,0,0-.768.512l26.877,15.358a5.238,5.238,0,0,0,4.352-.256l25.6-14.846a3.165,3.165,0,0,0,.768-.512L306.9,49.184A3.7,3.7,0,0,0,305.108,48.672Z" transform="translate(-272.6 -45.271)"/><g transform="translate(18.429 10.617)"><rect class="d" width="19.966" height="3.328" transform="matrix(0.866, -0.5, 0.5, 0.866, 0, 9.983)"/></g></g><g transform="translate(24.573 78.7)"><rect class="d" width="3.328" height="418.516"/></g><g transform="translate(47.099 94.571)"><rect class="d" width="3.328" height="415.188"/></g><g transform="translate(69.625 105.577)"><rect class="d" width="3.328" height="418.516"/></g><g transform="translate(189.676 108.393)"><rect class="b" width="3.328" height="418.516"/></g><g transform="translate(167.15 124.008)"><rect class="b" width="3.328" height="415.188"/></g><g transform="translate(144.369 135.27)"><rect class="b" width="3.328" height="418.516"/></g></g><g transform="translate(386.137 384.062)"><path class="a" d="M501.027,303.088l-87.8,50.683a20.563,20.563,0,0,1-20.99,0l-88.567-51.195a6.239,6.239,0,0,1,0-10.751l85.751-49.4a26.11,26.11,0,0,1,26.621,0l84.983,49.147A6.714,6.714,0,0,1,501.027,303.088Z" transform="translate(-293.177 -56.799)"/><g transform="translate(0 60.709)"><path class="b" d="M485.516,192.1H299.424a1.1,1.1,0,0,0-1.024,1.024l.256,152.048c-.512,2.3.512,4.352,3.072,5.887l82.167,47.355c4.863,2.816,13.311,2.56,18.942-.768l79.352-45.819c2.816-1.792,4.352-3.84,4.607-5.887V193.124A1.171,1.171,0,0,0,485.516,192.1Z" transform="translate(-296.608 -190.308)"/><path class="d" d="M393.178,403.09a21.215,21.215,0,0,1-9.215-2.048L301.8,353.687c-3.072-1.792-4.607-4.608-3.84-7.679L297.7,194.216a2.643,2.643,0,0,1,2.816-2.816H486.608a2.841,2.841,0,0,1,2.816,2.816V347.032c-.256,2.816-2.048,5.375-5.375,7.423L404.7,400.274A24.724,24.724,0,0,1,393.178,403.09ZM301.284,194.728l.256,151.536v.256c-.512,2.048,1.024,3.328,2.3,4.1l82.167,47.355c4.352,2.56,12.287,2.048,17.406-.768l79.352-45.819a7.107,7.107,0,0,0,3.84-4.607V194.728H301.284Z" transform="translate(-297.7 -191.4)"/></g><g transform="translate(18.43 111.547)"><path class="d" d="M325.634,256.669a7.914,7.914,0,0,1-2.048-.512l-15.1-8.7A8.353,8.353,0,0,1,304.9,240.8V215.2a4.128,4.128,0,0,1,1.792-3.584,3.148,3.148,0,0,1,3.328.256l15.1,8.7a8.354,8.354,0,0,1,3.584,6.655v25.6a4.128,4.128,0,0,1-1.792,3.584A1.919,1.919,0,0,1,325.634,256.669Zm-17.15-42.236v26.109a4.84,4.84,0,0,0,1.792,3.584l15.1,8.7h0V226.72a4.84,4.84,0,0,0-1.792-3.584l-15.1-8.7Z" transform="translate(-304.9 -211.261)"/><path class="d" d="M325.634,256.669a7.914,7.914,0,0,1-2.048-.512l-15.1-8.7A8.353,8.353,0,0,1,304.9,240.8V215.2a4.128,4.128,0,0,1,1.792-3.584,3.148,3.148,0,0,1,3.328.256l5.119,3.072v22.27a4.84,4.84,0,0,0,1.792,3.584h0l11.775,6.655v5.375a4.128,4.128,0,0,1-1.792,3.584A1.919,1.919,0,0,1,325.634,256.669Zm-17.15-42.236v26.109a4.84,4.84,0,0,0,1.792,3.584l15.1,8.7c0,.256.256,0,.256-.512v-3.328l-9.983-5.887a8.353,8.353,0,0,1-3.584-6.655V215.969l-3.584-1.536Z" transform="translate(-304.9 -211.261)"/></g><g transform="translate(50.683 129.465)"><path class="d" d="M337.978,263.925a4.746,4.746,0,0,1-1.792-.512l-15.1-8.7a8.353,8.353,0,0,1-3.584-6.655V222.2a4.128,4.128,0,0,1,1.792-3.584,3.148,3.148,0,0,1,3.328.256l15.1,8.7a8.353,8.353,0,0,1,3.584,6.655v25.853a4.128,4.128,0,0,1-1.792,3.584A9.059,9.059,0,0,1,337.978,263.925Zm0-3.584h0a.894.894,0,0,0,.256-.512V233.976a4.84,4.84,0,0,0-1.792-3.584l-15.1-8.7c0-.256-.256,0-.256.512v25.853a4.84,4.84,0,0,0,1.792,3.584Z" transform="translate(-317.5 -218.261)"/><g transform="translate(0 0.256)"><path class="d" d="M337.978,263.769a4.746,4.746,0,0,1-1.792-.512l-15.1-8.7A8.353,8.353,0,0,1,317.5,247.9V222.3a4.128,4.128,0,0,1,1.792-3.584,3.148,3.148,0,0,1,3.328.256l5.119,3.072v22.27a4.84,4.84,0,0,0,1.792,3.584h0l11.775,6.655v5.375a4.128,4.128,0,0,1-1.792,3.584A9.065,9.065,0,0,1,337.978,263.769Zm-16.894-42.236v26.109a4.84,4.84,0,0,0,1.792,3.584l15.1,8.7c0,.256.256,0,.256-.512v-3.328l-9.983-5.887a8.353,8.353,0,0,1-3.584-6.655V223.069l-3.584-1.536Z" transform="translate(-317.5 -218.361)"/></g></g><g transform="translate(50.427 182.195)"><path class="d" d="M338.134,284.269a7.912,7.912,0,0,1-2.048-.512l-15.1-8.7A8.353,8.353,0,0,1,317.4,268.4V242.8a4.128,4.128,0,0,1,1.792-3.584,3.148,3.148,0,0,1,3.328.256l15.1,8.7a8.353,8.353,0,0,1,3.584,6.655v25.6a4.127,4.127,0,0,1-1.792,3.584C339.414,284.269,338.9,284.269,338.134,284.269ZM321.24,242.033v26.109a4.84,4.84,0,0,0,1.792,3.584l15.1,8.7h0V254.32a4.84,4.84,0,0,0-1.792-3.584l-15.1-8.7Z" transform="translate(-317.4 -238.861)"/><path class="d" d="M338.134,284.269a7.912,7.912,0,0,1-2.048-.512l-15.1-8.7A8.353,8.353,0,0,1,317.4,268.4V242.8a4.128,4.128,0,0,1,1.792-3.584,3.148,3.148,0,0,1,3.328.256l5.119,3.072v22.27a4.84,4.84,0,0,0,1.792,3.584h0l11.775,6.655v5.375a4.128,4.128,0,0,1-1.792,3.584C339.414,284.269,338.9,284.269,338.134,284.269ZM321.24,242.033v26.109a4.84,4.84,0,0,0,1.792,3.584l15.1,8.7c0,.256.256,0,.256-.512v-3.328l-9.983-5.887a8.353,8.353,0,0,1-3.584-6.655V243.569l-3.584-1.536Z" transform="translate(-317.4 -238.861)"/></g><g transform="translate(96.246 62.501)"><path class="d" d="M429.242,345.94V193.124a1.1,1.1,0,0,0-1.024-1.024H416.187L335.3,240.991V400.462a23.3,23.3,0,0,0,10.239-2.56l79.352-45.819C427.45,350.035,428.986,347.988,429.242,345.94Z" transform="translate(-335.3 -192.1)"/></g><g transform="translate(0 6.62)"><path class="b" d="M383.893,277.728l-82.167-47.355c-4.864-2.816-4.352-7.679,1.28-11.007l79.352-45.819c5.631-3.328,14.079-3.584,18.942-.768l82.167,47.355c4.863,2.816,4.352,7.679-1.28,11.007l-79.352,45.819C397.2,280.032,388.756,280.544,383.893,277.728Z" transform="translate(-296.606 -169.373)"/><path class="c" d="M397.534,266.778l75.512-43.515L396.254,178.98c-4.863-2.816-13.311-2.56-18.942.768L301.8,223.263l76.792,44.283C383.455,270.362,391.9,270.106,397.534,266.778Z" transform="translate(-291.305 -159.703)"/><path class="d" d="M393.178,282.208a21.215,21.215,0,0,1-9.215-2.048L301.8,232.805c-2.56-1.536-4.1-3.84-4.1-6.143,0-2.816,2.048-5.631,5.375-7.679l79.352-45.819c6.143-3.584,15.358-3.84,20.734-.768l82.167,47.355c2.56,1.536,4.1,3.84,4.1,6.143,0,2.816-2.048,5.631-5.375,7.679L404.7,279.392A24.725,24.725,0,0,1,393.178,282.208ZM394.2,173.42a18.731,18.731,0,0,0-9.983,2.56L304.867,221.8c-2.3,1.28-3.84,3.072-3.84,4.863,0,1.536,1.28,2.56,2.56,3.328l82.167,47.355c4.352,2.56,12.287,2.048,17.406-.768l79.352-45.819c2.3-1.28,3.84-3.072,3.84-4.863,0-1.536-1.28-2.56-2.56-3.328l-82.167-47.355C399.833,173.932,397.018,173.42,394.2,173.42Z" transform="translate(-297.7 -170.269)"/></g><g transform="translate(31.485)"><g transform="translate(0.127 35.88)"><path class="b" d="M435.652,182.5H311.505a.679.679,0,0,0-.768.768V203.49c-.256,1.536.256,2.816,2.048,3.84l54.778,31.741c3.328,1.792,8.959,1.536,12.8-.512L433.349,208.1c2.048-1.024,3.072-2.56,3.072-3.84V183.524A1.143,1.143,0,0,0,435.652,182.5Z" transform="translate(-309.073 -180.452)"/><path class="d" d="M374.172,243.134a13.145,13.145,0,0,1-6.4-1.536l-54.778-31.741c-2.3-1.28-3.328-3.328-2.816-5.631V184.26a2.565,2.565,0,0,1,2.56-2.56H436.885a2.565,2.565,0,0,1,2.56,2.56v20.734a7.256,7.256,0,0,1-3.84,5.375l-53.5,30.973A16.455,16.455,0,0,1,374.172,243.134ZM313.25,185.54v19.71c-.256.768.256,1.536,1.28,2.048l54.778,31.741c2.816,1.536,7.679,1.28,11.007-.512L433.3,208.065a5.228,5.228,0,0,0,2.3-2.56V185.8H313.25Z" transform="translate(-310.05 -181.7)"/></g><g transform="translate(64.761 37.927)"><path class="d" d="M398.013,204V183.268a.679.679,0,0,0-.768-.768H389.31L335.3,215.009v25.085a16.3,16.3,0,0,0,6.911-1.792L395.2,207.841A6.562,6.562,0,0,0,398.013,204Z" transform="translate(-335.3 -182.5)"/></g><path class="b" d="M367.623,239.667l-54.778-31.741c-3.328-1.792-2.816-5.119,1.024-7.423l52.986-30.461c3.84-2.048,9.471-2.3,12.8-.512l54.778,31.741c3.328,1.792,2.816,5.119-1.024,7.423l-52.986,30.461C376.582,241.2,370.95,241.458,367.623,239.667Z" transform="translate(-309.005 -166.671)"/><path class="c" d="M363.327,174.442,312.9,203.623l51.451,29.693c3.328,1.792,8.959,1.536,12.8-.512l50.427-29.181L376.125,173.93C372.542,172.138,366.91,172.394,363.327,174.442Z" transform="translate(-305.477 -159.808)"/><path class="d" d="M374.249,243.75a13.145,13.145,0,0,1-6.4-1.536h0l-54.778-31.741A5.18,5.18,0,0,1,310,205.866c0-2.048,1.536-4.1,3.84-5.631l52.986-30.461c4.352-2.56,10.495-2.816,14.335-.512L435.939,201a5.18,5.18,0,0,1,3.072,4.607c0,2.048-1.536,4.1-3.84,5.631L382.184,241.7A16.626,16.626,0,0,1,374.249,243.75Zm-4.863-4.607c2.816,1.536,7.679,1.28,11.007-.512l52.986-30.461c1.28-.768,2.3-1.792,2.3-2.56a2.394,2.394,0,0,0-1.28-1.792l-54.778-31.741c-2.816-1.536-7.679-1.28-11.007.512l-52.986,30.461c-1.28.768-2.3,1.792-2.3,2.56a2.394,2.394,0,0,0,1.28,1.792l54.778,31.741Z" transform="translate(-310 -167.683)"/></g></g><g transform="translate(241 331.04)"><path class="a" d="M450.455,319.992l-90.87,52.474a21.989,21.989,0,0,1-21.758,0L246.189,319.48a6.49,6.49,0,0,1,0-11.263l88.823-51.195a28.013,28.013,0,0,1,27.645,0l88.055,50.939A7.068,7.068,0,0,1,450.455,319.992Z" transform="translate(-237.997 18.995)"/><g transform="translate(0 54.089)"><path class="b" d="M428.816,168.8H242.724a1.1,1.1,0,0,0-1.024,1.024l.256,253.413c-.512,2.3.512,4.352,3.072,5.887l82.167,47.355c4.864,2.816,13.311,2.56,18.942-.768l79.352-45.819c2.816-1.792,4.352-3.84,4.608-5.887V169.824A1.171,1.171,0,0,0,428.816,168.8Z" transform="translate(-239.908 -167.008)"/><path class="d" d="M336.478,481.411a21.215,21.215,0,0,1-9.215-2.048L245.1,432.008c-3.072-1.792-4.608-4.607-3.84-7.679L241,170.916a2.841,2.841,0,0,1,2.816-2.816H429.908a2.841,2.841,0,0,1,2.816,2.816V425.1c-.256,2.816-2.048,5.375-5.375,7.423L348,478.339A22.169,22.169,0,0,1,336.478,481.411ZM244.584,171.428l.256,253.157v.256c-.512,2.048,1.024,3.328,2.3,4.1l82.167,47.355c4.352,2.56,12.287,2.048,17.406-.768L426.068,429.7a7.107,7.107,0,0,0,3.84-4.607V171.428H244.584Z" transform="translate(-241 -168.1)"/></g><g transform="translate(18.686 104.927)"><path class="d" d="M268.778,233.369a4.746,4.746,0,0,1-1.792-.512l-15.1-8.7A8.353,8.353,0,0,1,248.3,217.5V191.9a4.128,4.128,0,0,1,1.792-3.584,3.148,3.148,0,0,1,3.328.256l15.1,8.7a8.353,8.353,0,0,1,3.584,6.655v25.6a4.127,4.127,0,0,1-1.792,3.584A3.247,3.247,0,0,1,268.778,233.369Zm-17.15-42.236v26.109a4.84,4.84,0,0,0,1.792,3.584l15.1,8.7h0V203.42a4.84,4.84,0,0,0-1.792-3.584l-15.1-8.7Z" transform="translate(-248.3 -187.961)"/><path class="d" d="M268.778,233.369a4.746,4.746,0,0,1-1.792-.512l-15.1-8.7A8.353,8.353,0,0,1,248.3,217.5V191.9a4.128,4.128,0,0,1,1.792-3.584,3.148,3.148,0,0,1,3.328.256l5.12,3.072v22.27a4.84,4.84,0,0,0,1.792,3.584h0l11.775,6.655v5.375a4.127,4.127,0,0,1-1.792,3.584A3.247,3.247,0,0,1,268.778,233.369Zm-17.15-42.236v26.109a4.84,4.84,0,0,0,1.792,3.584l15.1,8.7c0,.256.256,0,.256-.512v-3.328l-9.983-5.887a8.353,8.353,0,0,1-3.584-6.655V192.669l-3.584-1.536Z" transform="translate(-248.3 -187.961)"/></g><g transform="translate(50.683 123.101)"><path class="d" d="M281.278,240.469a4.747,4.747,0,0,1-1.792-.512h0l-15.1-8.7A8.354,8.354,0,0,1,260.8,224.6V199a4.128,4.128,0,0,1,1.792-3.584,3.148,3.148,0,0,1,3.328.256l15.1,8.7a8.353,8.353,0,0,1,3.584,6.655v25.6a4.128,4.128,0,0,1-1.792,3.584A9.056,9.056,0,0,1,281.278,240.469Zm0-3.584h0a.894.894,0,0,0,.256-.512v-25.6a4.84,4.84,0,0,0-1.792-3.584l-15.1-8.7c0-.256-.256,0-.256.512v25.6a4.84,4.84,0,0,0,1.792,3.584Z" transform="translate(-260.8 -195.061)"/><path class="d" d="M281.278,240.469a4.747,4.747,0,0,1-1.792-.512l-15.1-8.7A8.354,8.354,0,0,1,260.8,224.6V199a4.128,4.128,0,0,1,1.792-3.584,3.148,3.148,0,0,1,3.328.256l5.119,3.072v22.27a4.84,4.84,0,0,0,1.792,3.584h0l11.775,6.655v5.375a4.128,4.128,0,0,1-1.792,3.584A9.058,9.058,0,0,1,281.278,240.469Zm-16.894-42.236v26.109a4.84,4.84,0,0,0,1.792,3.584l15.1,8.7c0,.256.256,0,.256-.512v-3.328l-9.983-5.887a8.353,8.353,0,0,1-3.584-6.655V199.769l-3.584-1.536Z" transform="translate(-260.8 -195.061)"/></g><g transform="translate(18.686 157.657)"><path class="d" d="M268.778,253.969a4.746,4.746,0,0,1-1.792-.512h0l-15.1-8.7A8.353,8.353,0,0,1,248.3,238.1V212.5a4.128,4.128,0,0,1,1.792-3.584,3.148,3.148,0,0,1,3.328.256l15.1,8.7a8.353,8.353,0,0,1,3.584,6.655v25.6a4.128,4.128,0,0,1-1.792,3.584C269.8,253.713,269.29,253.969,268.778,253.969Zm-.256-3.584h0a.894.894,0,0,0,.256-.512v-25.6a4.84,4.84,0,0,0-1.792-3.584l-15.1-8.7c0-.256-.256,0-.256.512v25.6a4.84,4.84,0,0,0,1.792,3.584Z" transform="translate(-248.3 -208.561)"/><path class="d" d="M268.778,253.969a4.746,4.746,0,0,1-1.792-.512l-15.1-8.7A8.353,8.353,0,0,1,248.3,238.1V212.5a4.128,4.128,0,0,1,1.792-3.584,3.148,3.148,0,0,1,3.328.256l5.12,3.072v22.27a4.84,4.84,0,0,0,1.792,3.584h0l11.775,6.655v5.375a4.128,4.128,0,0,1-1.792,3.584C269.8,253.713,269.29,253.969,268.778,253.969Zm-17.15-42.236v26.109a4.84,4.84,0,0,0,1.792,3.584l15.1,8.7c0,.256.256,0,.256-.512v-3.328l-9.983-5.887a8.353,8.353,0,0,1-3.584-6.655V213.269l-3.584-1.536Z" transform="translate(-248.3 -208.561)"/></g><g transform="translate(50.683 175.575)"><path class="d" d="M281.278,260.969a4.747,4.747,0,0,1-1.792-.512l-15.1-8.7A8.353,8.353,0,0,1,260.8,245.1V219.5a4.128,4.128,0,0,1,1.792-3.584,3.148,3.148,0,0,1,3.328.256l15.1,8.7a8.353,8.353,0,0,1,3.584,6.655v25.6a4.128,4.128,0,0,1-1.792,3.584C282.558,260.969,282.046,260.969,281.278,260.969Zm-16.894-42.236v26.109a4.84,4.84,0,0,0,1.792,3.584l15.1,8.7h0V231.02a4.84,4.84,0,0,0-1.792-3.584l-15.1-8.7Z" transform="translate(-260.8 -215.561)"/><path class="d" d="M281.278,260.969a4.747,4.747,0,0,1-1.792-.512l-15.1-8.7A8.353,8.353,0,0,1,260.8,245.1V219.5a4.128,4.128,0,0,1,1.792-3.584,3.148,3.148,0,0,1,3.328.256l5.119,3.072v22.27a4.84,4.84,0,0,0,1.792,3.584h0l11.775,6.655v5.375a4.128,4.128,0,0,1-1.792,3.584C282.558,260.969,282.046,260.969,281.278,260.969Zm-16.894-42.236v26.109a4.84,4.84,0,0,0,1.792,3.584l15.1,8.7c0,.256.256,0,.256-.512v-3.328l-9.983-5.887a8.353,8.353,0,0,1-3.584-6.655V220.269l-3.584-1.536Z" transform="translate(-260.8 -215.561)"/></g><g transform="translate(18.686 209.108)"><path class="d" d="M268.778,274.325a4.746,4.746,0,0,1-1.792-.512l-15.1-8.7a8.353,8.353,0,0,1-3.584-6.655V232.6a4.128,4.128,0,0,1,1.792-3.584,3.148,3.148,0,0,1,3.328.256l15.1,8.7a8.353,8.353,0,0,1,3.584,6.655v25.853a4.127,4.127,0,0,1-1.792,3.584A3.246,3.246,0,0,1,268.778,274.325Zm-17.15-42.236v26.365a4.84,4.84,0,0,0,1.792,3.584l15.1,8.7h0V244.376a4.84,4.84,0,0,0-1.792-3.584l-15.1-8.7Z" transform="translate(-248.3 -228.661)"/><path class="d" d="M268.778,274.325a4.746,4.746,0,0,1-1.792-.512l-15.1-8.7a8.353,8.353,0,0,1-3.584-6.655V232.6a4.128,4.128,0,0,1,1.792-3.584,3.148,3.148,0,0,1,3.328.256l5.12,3.072v22.27a4.84,4.84,0,0,0,1.792,3.584l11.775,6.655v5.375a4.128,4.128,0,0,1-1.792,3.584A1.881,1.881,0,0,1,268.778,274.325Zm-17.15-42.236v26.365a4.84,4.84,0,0,0,1.792,3.584l15.1,8.7c0,.256.256,0,.256-.512V266.9l-9.983-5.887a8.353,8.353,0,0,1-3.584-6.655V233.881l-3.584-1.792Z" transform="translate(-248.3 -228.661)"/></g><g transform="translate(50.683 227.538)"><path class="d" d="M281.278,281.269a4.748,4.748,0,0,1-1.792-.512h0l-15.1-8.7A8.353,8.353,0,0,1,260.8,265.4V239.8a4.128,4.128,0,0,1,1.792-3.584,3.148,3.148,0,0,1,3.328.256l15.1,8.7a8.353,8.353,0,0,1,3.584,6.655v25.6a4.128,4.128,0,0,1-1.792,3.584A9.054,9.054,0,0,1,281.278,281.269Zm0-3.584h0a.894.894,0,0,0,.256-.512v-25.6a4.84,4.84,0,0,0-1.792-3.584l-15.1-8.7c0-.256-.256,0-.256.512v25.6a4.84,4.84,0,0,0,1.792,3.584Z" transform="translate(-260.8 -235.861)"/><path class="d" d="M281.278,281.269a4.748,4.748,0,0,1-1.792-.512l-15.1-8.7A8.353,8.353,0,0,1,260.8,265.4V239.8a4.128,4.128,0,0,1,1.792-3.584,3.148,3.148,0,0,1,3.328.256l5.119,3.072v22.27a4.84,4.84,0,0,0,1.792,3.584h0l11.775,6.655v5.375a4.128,4.128,0,0,1-1.792,3.584A9.056,9.056,0,0,1,281.278,281.269Zm-16.894-42.236v26.109a4.84,4.84,0,0,0,1.792,3.584l15.1,8.7c0,.256.256,0,.256-.512v-3.328l-9.983-5.887a8.353,8.353,0,0,1-3.584-6.655V240.569l-3.584-1.536Z" transform="translate(-260.8 -235.861)"/></g><g transform="translate(18.686 262.094)"><path class="d" d="M268.778,294.769a4.744,4.744,0,0,1-1.792-.512h0l-15.1-8.7A8.353,8.353,0,0,1,248.3,278.9V253.3a4.128,4.128,0,0,1,1.792-3.584,3.147,3.147,0,0,1,3.328.256l15.1,8.7a8.353,8.353,0,0,1,3.584,6.655v25.6a4.128,4.128,0,0,1-1.792,3.584C269.8,294.513,269.29,294.769,268.778,294.769Zm-.256-3.584h0a.894.894,0,0,0,.256-.512v-25.6a4.84,4.84,0,0,0-1.792-3.584l-15.1-8.7c0-.256-.256,0-.256.512v25.6a4.84,4.84,0,0,0,1.792,3.584Z" transform="translate(-248.3 -249.361)"/><path class="d" d="M268.778,294.769a4.744,4.744,0,0,1-1.792-.512l-15.1-8.7A8.353,8.353,0,0,1,248.3,278.9V253.3a4.128,4.128,0,0,1,1.792-3.584,3.147,3.147,0,0,1,3.328.256l5.12,3.072v22.27a4.84,4.84,0,0,0,1.792,3.584h0l11.775,6.655v5.375a4.128,4.128,0,0,1-1.792,3.584C269.8,294.513,269.29,294.769,268.778,294.769Zm-17.15-42.236v26.109a4.84,4.84,0,0,0,1.792,3.584l15.1,8.7c0,.256.256,0,.256-.512v-3.328l-9.983-5.887a8.354,8.354,0,0,1-3.584-6.655V254.069l-3.584-1.536Z" transform="translate(-248.3 -249.361)"/></g><g transform="translate(50.683 279.756)"><path class="d" d="M281.278,301.925a4.746,4.746,0,0,1-1.792-.512l-15.1-8.7a8.353,8.353,0,0,1-3.584-6.655V260.2a4.128,4.128,0,0,1,1.792-3.584,3.147,3.147,0,0,1,3.328.256l15.1,8.7a8.354,8.354,0,0,1,3.584,6.655v25.853a4.127,4.127,0,0,1-1.792,3.584C282.558,301.925,282.046,301.925,281.278,301.925Zm-16.894-42.236v26.365a4.84,4.84,0,0,0,1.792,3.584l15.1,8.7h0V271.976a4.84,4.84,0,0,0-1.792-3.584l-15.1-8.7Z" transform="translate(-260.8 -256.261)"/><path class="d" d="M281.278,301.925a4.746,4.746,0,0,1-1.792-.512l-15.1-8.7a8.353,8.353,0,0,1-3.584-6.655V260.2a4.128,4.128,0,0,1,1.792-3.584,3.147,3.147,0,0,1,3.328.256l5.119,3.072v22.27a4.84,4.84,0,0,0,1.792,3.584l11.775,6.655v5.375a4.127,4.127,0,0,1-1.792,3.584C282.558,301.925,282.046,301.925,281.278,301.925Zm-16.894-42.236v26.365a4.84,4.84,0,0,0,1.792,3.584l15.1,8.7c0,.256.256,0,.256-.512V294.5l-9.983-5.887a8.354,8.354,0,0,1-3.584-6.655V261.481l-3.584-1.792Z" transform="translate(-260.8 -256.261)"/></g><g transform="translate(96.246 56.137)"><path class="d" d="M372.542,424.105V169.924a1.1,1.1,0,0,0-1.024-1.024H359.487L278.6,217.791V478.627a23.3,23.3,0,0,0,10.239-2.56l79.352-45.819C370.75,428.2,372.286,426.153,372.542,424.105Z" transform="translate(-278.6 -168.9)"/></g><path class="b" d="M327.193,254.428l-82.167-47.355c-4.863-2.816-4.352-7.679,1.28-11.007l79.352-45.819c5.631-3.328,14.079-3.584,18.942-.768l82.167,47.355c4.863,2.816,4.352,7.679-1.28,11.007l-79.352,45.819C340.5,256.732,332.056,257.244,327.193,254.428Z" transform="translate(-239.906 -146.073)"/><path class="c" d="M343.609,152.48c-4.863-2.816-13.311-2.56-18.942.768l-79.352,45.819a26.815,26.815,0,0,0-2.816,2.048c.512.256.768.768,1.28,1.024l82.167,47.355c4.864,2.816,13.311,2.56,18.942-.768l79.352-45.819a26.817,26.817,0,0,0,2.816-2.048c-.512-.256-.768-.768-1.28-1.024Z" transform="translate(-238.66 -141.394)"/><path class="d" d="M336.478,258.908a21.214,21.214,0,0,1-9.215-2.048L245.1,209.505c-2.56-1.536-4.1-3.84-4.1-6.143,0-2.816,2.048-5.631,5.375-7.679l79.352-45.819c6.143-3.584,15.358-3.84,20.734-.768l82.167,47.355c2.56,1.536,4.1,3.84,4.1,6.143,0,2.816-2.048,5.631-5.375,7.679L348,256.092A24.725,24.725,0,0,1,336.478,258.908ZM337.5,150.12a18.731,18.731,0,0,0-9.983,2.56L248.167,198.5c-2.3,1.28-3.84,3.072-3.84,4.864,0,1.536,1.28,2.56,2.56,3.328l82.167,47.355c4.352,2.56,12.287,2.048,17.406-.768l79.352-45.819c2.3-1.28,3.84-3.072,3.84-4.863,0-1.536-1.28-2.56-2.56-3.328l-82.167-47.355C343.133,150.632,340.318,150.12,337.5,150.12Z" transform="translate(-241 -146.969)"/><g transform="translate(25.853 14.882)"><path class="b" d="M313.8,231.026,254.16,196.47c-3.584-2.048-3.072-5.631,1.024-7.935l57.85-33.277c4.1-2.3,10.239-2.56,13.823-.512L386.5,189.3c3.584,2.048,3.072,5.631-1.024,7.935l-57.85,33.276C323.529,232.818,317.386,233.074,313.8,231.026Z" transform="translate(-250.065 -151.887)"/><path class="c" d="M295.876,169.558l-33.276,19.2,34.3,19.966c3.584,2.048,9.727,1.792,13.822-.512L344,189.012l-34.3-19.966C306.115,167,299.972,167.254,295.876,169.558Z" transform="translate(-233.163 -129.583)"/><path class="d" d="M320.981,234.994a14.5,14.5,0,0,1-6.911-1.536L254.428,198.9c-2.048-1.28-3.328-3.072-3.328-4.863,0-2.3,1.536-4.352,4.352-5.887l57.85-33.276c4.608-2.56,11.519-2.816,15.614-.512l59.642,34.556c2.048,1.28,3.328,3.072,3.328,4.864,0,2.3-1.536,4.352-4.352,5.887l-57.85,33.277A20.669,20.669,0,0,1,320.981,234.994Zm.768-79.1a12.115,12.115,0,0,0-6.911,1.792l-57.85,33.276c-1.536,1.024-2.56,2.048-2.56,3.072a2.655,2.655,0,0,0,1.536,2.048l59.642,34.556c3.072,1.792,8.7,1.536,12.031-.512l57.85-33.276c1.536-1.024,2.56-2.048,2.56-3.072a2.655,2.655,0,0,0-1.536-2.048l-59.642-34.556C325.588,156.154,323.54,155.9,321.749,155.9Z" transform="translate(-251.1 -152.783)"/></g><g transform="translate(25.597 14.626)"><path class="b" d="M254.175,196.626l15.87,9.215,42.748-24.829c4.1-2.3,10.239-2.56,13.822-.512l43.771,25.341,14.846-8.7c4.1-2.3,4.607-5.887,1.024-7.935l-59.642-34.556c-3.584-2.048-9.727-1.792-13.822.512l-57.85,33.276C251.1,190.994,250.591,194.578,254.175,196.626Z" transform="translate(-249.823 -151.787)"/><path class="d" d="M371.563,208.785l-44.539-25.853c-3.072-1.792-8.7-1.536-12.031.512l-43.771,25.085L254.328,198.8c-2.048-1.28-3.328-3.072-3.328-4.863,0-2.3,1.536-4.352,4.352-5.887l57.85-33.276c4.607-2.56,11.519-2.816,15.614-.512l59.642,34.556c2.048,1.28,3.328,3.072,3.328,4.863,0,2.3-1.536,4.352-4.352,5.887Zm-115.444-12.8,15.1,8.7,41.98-24.317c4.607-2.56,11.519-2.816,15.614-.512l43,24.829L385.9,196.5c1.536-1.024,2.56-2.048,2.56-3.072a2.655,2.655,0,0,0-1.536-2.048L327.28,156.822c-3.072-1.792-8.7-1.536-12.031.512L257.4,190.61c-1.536,1.024-2.56,2.048-2.56,3.072a2.166,2.166,0,0,0,1.28,2.3Z" transform="translate(-251 -152.683)"/></g><g transform="translate(27.296 16.205)"><path class="d" d="M320.357,153.3a14.682,14.682,0,0,0-7.423,2.048l-57.85,33.276c-4.1,2.3-4.608,5.887-1.024,7.935l15.87,9.215,42.748-24.829A17.8,17.8,0,0,1,320.1,178.9V153.3Z" transform="translate(-251.664 -153.3)"/></g></g><g transform="translate(283.236 282.996)"><g transform="translate(102.133 82.092)"><g transform="translate(43.515 44.198)"><path class="e" d="M360.475,191.272h0c0-1.792-1.28-2.56-2.56-1.792l-1.024.512a5.213,5.213,0,0,0-2.3,4.1h0c0,10.751-7.167,24.061-16.382,29.949-9.983,6.143-17.918,1.792-17.918-9.471h0c0-1.792-1.28-2.56-2.816-1.536l-.512.256a5.376,5.376,0,0,0-2.56,4.608v.256c0,13.055,7.935,19.2,18.686,15.358v15.87a3.9,3.9,0,0,1-1.536,2.816l-5.375,3.072a5.279,5.279,0,0,0-2.56,4.352h0c0,1.536,1.024,2.3,2.56,1.536l6.911-4.1,9.215-5.375,6.655-3.84a5.279,5.279,0,0,0,2.56-4.352h0c0-1.536-1.024-2.3-2.56-1.536l-5.119,3.072c-.768.512-1.536,0-1.536-1.024v-15.87C352.54,219.43,360.475,204.071,360.475,191.272Z" transform="translate(-314.4 -159.371)"/><path class="e" d="M332.123,236.06l-1.792,1.024c-6.655,3.84-12.031-.256-12.031-9.215V203.3c0-8.959,5.375-19.454,12.031-23.294l1.792-1.024c6.655-3.84,12.031.256,12.031,9.215v24.573C344.409,221.981,339.034,232.22,332.123,236.06Z" transform="translate(-308.317 -177.537)"/></g><path class="f" d="M362.673,170.929c-36.092,20.734-65.273,71.416-65.273,113.14s29.181,58.618,65.273,37.628c36.092-20.734,65.273-71.416,65.273-113.14S398.765,150.195,362.673,170.929Zm0,142.065c-31.741,18.43-57.594,3.584-57.594-33.276s25.853-81.4,57.594-99.829,57.594-3.584,57.594,33.276C420.267,249.768,394.414,294.564,362.673,312.994Z" transform="translate(-297.4 -157.543)"/><g transform="translate(3.84)"><path class="g" d="M336.016,331.336a33.386,33.386,0,0,1-17.406-4.607c-12.543-7.423-19.71-22.526-19.71-43.259,0-41.98,29.437-93.174,65.785-114.164,17.662-10.239,34.556-11.775,47.1-4.608,12.543,7.423,19.71,22.526,19.71,43.259,0,41.98-29.437,93.174-65.785,114.164C355.214,328.264,345.231,331.336,336.016,331.336Zm58.362-168.942c-8.7,0-18.686,3.072-28.669,8.7-35.836,20.734-65.017,71.161-65.017,112.372,0,19.71,6.655,34.556,18.686,41.468s28.157,5.375,45.307-4.608C400.521,299.6,429.7,249.168,429.7,207.957c0-19.71-6.655-34.556-18.686-41.468A35.557,35.557,0,0,0,394.378,162.394Z" transform="translate(-298.9 -160.271)"/><g transform="translate(7.935 10.249)"><path class="g" d="M334.764,315.108a28.774,28.774,0,0,1-15.358-4.1c-11.263-6.4-17.406-19.966-17.406-38.14,0-37.116,26.109-82.167,58.106-100.6,15.614-8.959,30.461-10.495,41.724-4.1s17.406,19.966,17.406,38.14c0,37.116-26.109,82.167-58.106,100.6C351.659,312.292,342.7,315.108,334.764,315.108Zm51.451-148.976c-7.679,0-16.382,2.56-25.341,7.679-31.485,18.174-57.082,62.713-57.082,99.062,0,17.406,5.887,30.461,16.382,36.6s24.829,4.607,39.932-4.1c31.485-18.174,57.082-62.713,57.082-99.062,0-17.406-5.887-30.461-16.382-36.6A30.772,30.772,0,0,0,386.215,166.132Z" transform="translate(-302 -164.275)"/></g><g transform="translate(42.236 67.373)"><path class="g" d="M326.919,261.1c-.512,0-.768,0-1.024-.256a2.824,2.824,0,0,1-1.28-2.56,6.578,6.578,0,0,1,3.072-5.375l5.375-3.072a2.66,2.66,0,0,0,1.024-2.048V233.2c-4.607,1.28-8.959.768-12.287-1.536-4.1-2.816-6.4-8.191-6.4-15.1a6.679,6.679,0,0,1,3.072-5.631l.512-.256a2.841,2.841,0,0,1,2.816-.256,3.15,3.15,0,0,1,1.28,2.56c0,5.119,1.792,8.7,4.608,10.495,3.072,1.792,7.423,1.024,11.775-1.792,8.7-5.631,15.87-18.686,15.87-29.181a6.462,6.462,0,0,1,2.816-4.863l1.024-.512a2.523,2.523,0,0,1,4.1,2.3v.256c0,12.8-7.679,28.157-18.43,37.116v15.87h.256l5.12-3.072a3.708,3.708,0,0,1,2.816-.256,2.825,2.825,0,0,1,1.28,2.56,6.578,6.578,0,0,1-3.072,5.375L328.2,260.59C327.943,261.1,327.431,261.1,326.919,261.1Zm9.215-30.2v17.15a4.411,4.411,0,0,1-2.048,3.584l-5.375,3.072a5.182,5.182,0,0,0-2.048,3.584c0,.512,0,.768.256.768a.94.94,0,0,0,.768-.256l23.038-13.311a5.182,5.182,0,0,0,2.048-3.584c0-.512,0-.768-.256-.768a.94.94,0,0,0-.768.256l-5.119,3.072a1.548,1.548,0,0,1-2.048,0,2.155,2.155,0,0,1-1.024-1.792V226.29l.256-.256c10.495-8.447,18.174-23.805,18.174-36.092v-.256c0-.512,0-.768-.256-.768a1.935,1.935,0,0,0-1.024.256l-1.024.512a3.9,3.9,0,0,0-1.792,3.072c0,11.263-7.423,24.573-16.894,30.717-5.12,3.328-9.983,3.84-13.823,1.792-3.584-2.048-5.631-6.4-5.631-12.031,0-.512-.256-.768-.256-1.024a1.935,1.935,0,0,0-1.024.256l-.512.256a5.16,5.16,0,0,0-2.3,3.84c0,6.4,2.048,11.263,5.631,13.823,3.072,2.3,7.167,2.56,12.031.768Z" transform="translate(-315.4 -186.591)"/></g><g transform="translate(52.475 37.927)"><path class="g" d="M327.591,238.089a5.877,5.877,0,0,1-3.584-1.024c-3.072-1.792-4.608-5.631-4.608-10.751V201.741c0-9.215,5.631-19.966,12.543-24.061l1.792-1.024c3.328-1.792,6.4-2.048,8.959-.768,3.072,1.792,4.608,5.631,4.608,10.751v24.573c0,9.215-5.631,19.966-12.543,24.061l-1.792,1.024A9.018,9.018,0,0,1,327.591,238.089Zm11.519-60.922a10.387,10.387,0,0,0-4.352,1.28l-1.792,1.024c-6.4,3.84-11.775,13.823-11.775,22.526V226.57c0,4.352,1.28,7.679,3.84,8.959,1.792,1.024,4.352.768,6.911-.768l1.792-1.024c6.4-3.84,11.775-13.823,11.775-22.526V186.638c0-4.352-1.28-7.679-3.84-8.959A7.574,7.574,0,0,0,339.11,177.167Z" transform="translate(-319.4 -175.088)"/></g></g></g><g transform="translate(56.57 29.181)"><path class="g" d="M331.051,423.474C298.8,417.843,279.6,388.15,279.6,343.866c0-22.014,4.863-46.587,14.078-71.161l2.3.768c-9.215,24.317-14.079,48.635-14.079,70.393,0,42.747,18.43,71.672,49.4,77.048Zm61.178-14.335-1.28-2.048c20.734-12.031,41.212-30.461,58.874-53.5l2.048,1.536C433.952,378.167,413.474,396.853,392.228,409.14Zm68.345-66.553-2.048-1.28c27.133-39.932,42.748-85.751,42.748-125.427,0-4.352-.256-8.447-.512-12.287-.256-3.328-.768-6.655-1.28-9.727-4.607-25.853-17.662-44.283-36.86-51.963l1.024-2.3c20.222,7.935,33.789,26.877,38.4,53.754.512,3.328,1.024,6.655,1.28,9.983.256,4.1.512,8.191.512,12.543C503.832,256.068,487.962,302.143,460.573,342.587Zm-153.328-94.2-2.3-1.024A264.82,264.82,0,0,1,333.1,203.081l2.048,1.536A259.1,259.1,0,0,0,307.245,248.389Z" transform="translate(-279.6 -139.6)"/></g><g transform="translate(0 1.536)"><path class="g" d="M495.555,436.48l-1.792-1.792c54.778-59.642,92.662-141.553,98.55-213.738l2.56.256C588.729,293.9,550.589,376.326,495.555,436.48ZM260.06,394.5H257.5c0-51.963,17.406-110.836,49.4-165.871l2.048,1.28C277.466,284.432,260.06,343.049,260.06,394.5ZM592.825,186.65c-1.536-21.758-6.4-40.956-14.334-56.826l2.3-1.024c8.191,16.126,13.055,35.58,14.59,57.85Z" transform="translate(-257.5 -128.8)"/></g><g transform="translate(60.41 28.669)"><path class="f" d="M332.551,423.018C300.3,417.387,281.1,387.694,281.1,343.41c0-22.014,4.863-46.587,14.078-71.16l2.3.768c-9.215,24.317-14.079,48.635-14.079,70.393,0,42.748,18.43,71.672,49.4,77.048Zm61.178-14.335-1.28-2.048c20.99-12.031,41.212-30.461,58.874-53.5l2.048,1.536C435.452,377.711,414.974,396.653,393.728,408.684Zm68.345-66.3-2.048-1.28c27.133-39.932,42.748-85.751,42.748-125.427,0-4.352-.256-8.447-.512-12.287-.256-3.328-.768-6.655-1.28-9.727-4.607-25.853-17.662-44.283-36.86-51.963l1.024-2.3c20.222,7.935,33.789,26.877,38.4,53.754.512,3.328,1.024,6.655,1.28,9.983.256,4.1.512,8.191.512,12.543C505.332,255.612,489.462,301.943,462.073,342.387Zm-153.328-94.2-2.3-1.024A264.815,264.815,0,0,1,334.6,202.881l2.048,1.536A235.308,235.308,0,0,0,308.745,248.189Z" transform="translate(-281.1 -139.4)"/></g><g transform="translate(3.328)"><path class="f" d="M496.6,435.88l-1.792-1.792c54.778-59.642,92.662-141.553,98.549-213.737l2.56.256C589.773,293.3,551.889,375.726,496.6,435.88ZM261.36,393.9H258.8c0-51.963,17.406-110.836,49.4-165.871l2.048,1.28C278.766,283.832,261.36,342.449,261.36,393.9ZM593.869,186.05c-1.536-21.758-6.4-40.956-14.335-56.826l2.3-1.024c8.191,16.126,13.055,35.58,14.591,57.85Z" transform="translate(-258.8 -128.2)"/></g></g></g></svg>