<svg xmlns="http://www.w3.org/2000/svg" xmlns:xlink="http://www.w3.org/1999/xlink" width="576.25" height="525.297" viewBox="0 0 576.25 525.297"><defs><style>.a{fill:#0d1754;}.b{fill:#0d1755;}.c{fill:#7cc2f7;}.d{fill:#fff;}.e{fill:#459ccf;}.f{fill:#ffa79b;}.g{fill:#e94a49;}.h{fill:#e84a48;}.i{fill:#e74a47;}.j{fill:#bababa;}.k{fill:#cecccd;}.l{fill:#bdbabb;}.m{fill:#a09c9d;}.n{fill:#ebeaea;}.o{fill:#393339;}.p{fill:#110910;}.q{fill:#858184;}.r{fill:#f3f3f3;}.s{fill:#676063;}.t{fill:#d6d6d6;}.u{fill:#797979;}.v{fill:url(#a);}.w{fill:#efefef;}.x{fill:#3a5d85;}.y{fill:#4c8dad;}.z{fill:#abdbff;}.aa{fill:#447ba6;}.ab{fill:#c4bec8;}.ac{fill:#f5f4f6;}.ad{fill:#919191;}.ae{fill:#fcc7aa;}.af{fill:#fad3be;}.ag{fill:#ffd6bf;}.ah{fill:#8daffc;}.ai{fill:#45a87f;}.aj{fill:#57bd93;}.ak{fill:#659fd1;}.al{fill:#d1d1d1;}.am{fill:#e5e2e7;}.an{fill:#ededed;}.ao{fill:#f0edf2;}.ap{fill:#f7f7f7;}.aq{fill:#c2c2c2;}.ar{fill:#fbb58f;}.as{fill:#4a2727;}.at{fill:#fcdfcf;}.au{fill:url(#b);}</style><linearGradient id="a" x1="0.889" y1="-0.026" x2="0.091" y2="1.026" gradientUnits="objectBoundingBox"><stop offset="0" stop-color="#e0e0e0"/><stop offset="0.01" stop-color="#e4e4e4"/><stop offset="0.05" stop-color="#ebebeb"/><stop offset="0.16" stop-color="#ededed"/><stop offset="0.3" stop-color="#e8e8e8"/><stop offset="0.51" stop-color="#c9c9c9"/><stop offset="0.91" stop-color="#9f9f9f"/></linearGradient><linearGradient id="b" x1="0.838" y1="-0.059" x2="0.142" y2="1.059" xlink:href="#a"/></defs><g transform="translate(-63.33 -109.36)"><g transform="translate(63.33 109.36)"><g transform="translate(154.649 3.317)"><g transform="translate(0 73.52)"><path class="a" d="M369.034,345.627h0V153.395L146.66,150.95V345.627h0c.261,3.471,2.855,7.055,7.727,9.873l86.393,49.868c9.332,5.431,23.758,6.1,31.877,1.325l90.984-52.519C367.522,351.861,369.258,348.875,369.034,345.627Z" transform="translate(-145.788 -150.166)"/><path class="b" d="M259.176,410.921a38.017,38.017,0,0,1-18.421-4.573l-86.393-49.887c-4.573-2.706-7.465-6.1-8.025-9.78h-.131v-1.176a4.279,4.279,0,0,1,0-.69V150.53l224.072,2.445V346.738c0,3.3-2.146,6.252-5.842,8.4l-91.021,52.5a29.059,29.059,0,0,1-14.24,3.285ZM147.7,345.73v.131c.243,3.322,2.93,6.7,7.353,9.332l86.393,49.869c9.145,5.319,23.161,5.9,31.112,1.306l90.965-52.5c3.471-2.016,5.282-4.778,5.076-7.8v-.8h.131V154.487l-220.918-2.408-.112,192.83Z" transform="translate(-146.193 -150.53)"/></g><g transform="translate(112.031 76.581)"><path class="c" d="M220.983,405.544l90.965-52.519c3.919-2.24,5.6-5.319,5.468-8.51h0V152.282l-11.329-.112-96.825,45-3.042,18.663v192.9a28.574,28.574,0,0,0,14.763-3.192Z" transform="translate(-206.22 -152.17)"/></g><g transform="translate(0.518 11.764)"><path class="d" d="M363.621,190.227l-90.965,52.5c-8.137,4.7-22.489,4.106-31.877-1.325l-86.411-49.868c-9.332-5.431-10.414-13.718-2.277-18.4l90.965-52.519c8.156-4.7,22.489-4.106,31.9,1.325l86.393,49.868C370.75,177.237,371.758,185.5,363.621,190.227Z" transform="translate(-146.342 -117.44)"/><path class="e" d="M360.221,174.325,273.81,124.456c-9.332-5.431-23.721-6.028-31.877-1.306l-90.891,52.5a11.7,11.7,0,0,0-4.573,4.573c.5,3.266,3.042,6.607,7.615,9.332l86.393,49.85c9.332,5.431,23.74,6.028,31.877,1.325l90.984-52.519a11.478,11.478,0,0,0,4.573-4.573C367.463,180.315,364.887,176.975,360.221,174.325Z" transform="translate(-146.47 -115.256)"/></g><g transform="translate(14.217)"><path class="d" d="M362.84,162.392c0-3.322-2.165-6.644-6.551-9.145l-71.163-41.059a7.8,7.8,0,0,0-7.82,0L164.373,177.509a7.465,7.465,0,0,0-3.733,6.439v8.716a7.26,7.26,0,0,1-4.274,6.57l-2.557,1.138L160.7,204.2l75.064,43.3c8.753,5.058,23.049,5.058,31.728,0l88.763-51.25c4.069-2.352,6.215-5.394,6.513-8.473h0V162.392Z" transform="translate(-153.81 -111.137)"/><path class="f" d="M353.966,156.327,282.8,115.268a7.8,7.8,0,0,0-7.82,0L162.069,180.44a7.465,7.465,0,0,0-3.733,6.271v8.884a7.092,7.092,0,0,1-1.866,4.871l1.866,1.1,75.064,43.28c8.753,5.058,23.068,5.058,31.728,0l88.763-51.25c4.069-2.352,6.215-5.394,6.513-8.473h0v-.28a6.3,6.3,0,0,0,0-.84V165.565C360.535,162.169,358.333,158.847,353.966,156.327Z" transform="translate(-151.506 -108.469)"/></g><g transform="translate(13.893 51.236)"><path class="d" d="M251.812,228.3a33.164,33.164,0,0,1-16.274-3.9L154.2,177.5a1.082,1.082,0,0,1-.411-1.512,1.1,1.1,0,0,1,.5-.467l1.866-.877a6.476,6.476,0,0,0,3.826-5.916v-8.716a8.249,8.249,0,0,1,1.045-4.143l.448-.747,74.653,43.15c8.548,4.927,22.4,4.927,31.037,0l88.782-51.194c3.957-2.3,6.1-5.3,6.1-8.492h1.512v24.393a6.874,6.874,0,0,1,0,.877v1.064h-.112a13.176,13.176,0,0,1-6.793,8.324l-88.5,51.231a33.314,33.314,0,0,1-16.349,3.826Zm-94.94-52.257a.672.672,0,0,0-.3.9.616.616,0,0,0,.3.28L236.3,223.135c8.548,4.927,22.4,4.927,31.037,0l88.744-51.25c3.733-2.128,5.86-4.927,6.1-7.895v-.224a5.49,5.49,0,0,0,0-.784V143.536a15.77,15.77,0,0,1-5.412,4.871l-88.614,51.25c-8.977,5.188-23.59,5.188-32.568,0l-73.347-42.366a6.793,6.793,0,0,0-.579,2.725v8.716a8.025,8.025,0,0,1-4.722,7.335Z" transform="translate(-153.636 -138.59)"/></g><g transform="translate(117.149 54.899)"><g transform="translate(6.804 4.028)"><path class="d" d="M243.6,145.789c7.073,4.087,7.073,10.657,0,14.8a28.163,28.163,0,0,1-25.606,0c-7.073-4.087-7.073-10.675,0-14.8a28.163,28.163,0,0,1,25.606,0Z" transform="translate(-212.538 -142.711)"/><path class="d" d="M243.537,147.709c7.055,4.069,7.055,10.657,0,14.781a28.256,28.256,0,0,1-25.625,0c-7.073-4.087-7.073-10.675,0-14.781A28.2,28.2,0,0,1,243.537,147.709Z" transform="translate(-212.608 -141.047)"/><path class="g" d="M243.312,147.7a28.275,28.275,0,0,0-25.606,0,10.377,10.377,0,0,0-4.946,5.338,10.041,10.041,0,0,0,5.1,5.879,28.312,28.312,0,0,0,25.625,0,10.526,10.526,0,0,0,4.927-5.356A9.835,9.835,0,0,0,243.312,147.7Z" transform="translate(-212.475 -141.041)"/></g><g transform="translate(0 24.262)"><path class="d" d="M215.9,154.238a1.736,1.736,0,0,1,0,3.322,6.327,6.327,0,0,1-5.73,0,1.754,1.754,0,0,1-1.12-2.221,1.866,1.866,0,0,1,1.12-1.1,6.327,6.327,0,0,1,5.73,0Z" transform="translate(-208.962 -153.553)"/><path class="d" d="M215.9,155.318a1.736,1.736,0,0,1,0,3.322,6.327,6.327,0,0,1-5.73,0,1.754,1.754,0,0,1-1.12-2.221,1.866,1.866,0,0,1,1.12-1.1,6.327,6.327,0,0,1,5.73,0Z" transform="translate(-208.962 -152.617)"/><path class="h" d="M215.729,155.318a6.327,6.327,0,0,0-5.73,0,3.041,3.041,0,0,0-.84.709,3.322,3.322,0,0,0,.84.691,6.327,6.327,0,0,0,5.73,0,2.537,2.537,0,0,0,.84-.691,2.371,2.371,0,0,0-.84-.709Z" transform="translate(-208.79 -152.617)"/></g><g transform="translate(41.96)"><path class="d" d="M238.373,141.238a1.754,1.754,0,0,1,0,3.322,6.327,6.327,0,0,1-5.73,0,1.754,1.754,0,0,1-1.1-2.221,1.7,1.7,0,0,1,1.1-1.1,6.327,6.327,0,0,1,5.73,0Z" transform="translate(-231.439 -140.553)"/><path class="d" d="M238.379,142.318a1.754,1.754,0,0,1,0,3.322,6.327,6.327,0,0,1-5.73,0,1.754,1.754,0,0,1-1.12-2.2,1.866,1.866,0,0,1,1.12-1.12A6.327,6.327,0,0,1,238.379,142.318Z" transform="translate(-231.445 -139.617)"/><path class="h" d="M238.184,142.318a6.327,6.327,0,0,0-5.73,0,2.929,2.929,0,0,0-.784.653,2.463,2.463,0,0,0,.784.672,6.327,6.327,0,0,0,5.73,0,2.538,2.538,0,0,0,.8-.672,3.006,3.006,0,0,0-.8-.653Z" transform="translate(-231.25 -139.617)"/></g></g><g transform="translate(143.461 69.47)"><path class="d" d="M272.984,148.6h0a6.681,6.681,0,0,0-4.4.616l-43.934,25.363c-1.157.672-1.53,1.642-1.045,2.52h0a2.631,2.631,0,0,1,.243,2.24l-.784,2.277,2.352-1.362,53-30.533,2.352-1.362-3.938.448a12.672,12.672,0,0,1-3.845-.205Z" transform="translate(-223.06 -148.36)"/><path class="e" d="M223.761,179.624l1.437-.821,49.757-28.648a14.611,14.611,0,0,1-2.2-.187,6.588,6.588,0,0,0-4.386.579l-43.934,25.345a2.836,2.836,0,0,0-.728.6,2.613,2.613,0,0,1,0,1.512l-.205.579a2.557,2.557,0,0,1,.261,1.045Z" transform="translate(-222.679 -147.094)"/></g><g transform="translate(112.031 51.218)"><path class="d" d="M317.435,164.093h0V138.58c0,3.322-2.2,6.644-6.57,9.145l-88.744,51.362a32.511,32.511,0,0,1-15.9,3.733v24.822a32.661,32.661,0,0,0,15.938-3.733l88.763-51.25C314.99,170.214,317.136,167.172,317.435,164.093Z" transform="translate(-206.22 -138.58)"/></g><g transform="translate(111.994 221.483)"><path class="d" d="M317.452,277.308h0v-47.5h0c.205,3.154-1.53,6.234-5.468,8.473L221.019,290.82a28.742,28.742,0,0,1-14.819,3.135v47.48a28.947,28.947,0,0,0,14.819-3.154l90.965-52.519C315.941,283.523,317.658,280.556,317.452,277.308Z" transform="translate(-206.2 -229.81)"/></g><path class="d" d="M147,233.853a18.084,18.084,0,0,0,6.57,5.935l86.411,49.887a36.9,36.9,0,0,0,16.648,4.573v-1.53a35.572,35.572,0,0,1-15.882-4.349l-86.281-49.906a14.166,14.166,0,0,1-7.111-7.895c-.112-.429-.224,0-.224,0Z" transform="translate(-145.493 -7.835)"/></g><g transform="translate(227.674)"><g transform="translate(62.41 53.133)"><g transform="translate(26.707 24.5)"><path class="h" d="M261.476,161.932v-.112c0-1.026-.747-1.437-1.642-.915l-.6.336a3.061,3.061,0,0,0-1.4,2.464h0a23.964,23.964,0,0,1-10.06,18.29c-6.084,3.826-11.067,1.138-11.067-5.786h0c0-1.082-.765-1.53-1.68-.971l-.317.168a3.733,3.733,0,0,0-1.642,2.818v.112c0,7.988,4.946,11.758,11.478,9.462v9.742a2.165,2.165,0,0,1-.989,1.7l-3.285,1.866a3.527,3.527,0,0,0-1.512,2.744h0c0,1.008.691,1.418,1.512.915l4.274-2.482,5.6-3.247,4.162-2.408a3.49,3.49,0,0,0,1.53-2.725h0c0-1.008-.709-1.418-1.53-.915l-3.173,1.866a.616.616,0,0,1-.989-.579V184.5C256.642,179.233,261.476,169.845,261.476,161.932Z" transform="translate(-233.07 -142.534)"/><path class="h" d="M244.976,186.759l-1.1.672c-4.125,2.37-7.465-.168-7.465-5.6v-15.08c0-5.487,3.341-11.889,7.465-14.259l1.1-.635c4.125-2.389,7.465.131,7.465,5.6v15.08C252.442,178.025,249.1,184.389,244.976,186.759Z" transform="translate(-230.176 -150.956)"/></g><path class="i" d="M258.886,143.318c-22.172,12.784-40.126,43.9-40.126,69.465s17.954,35.908,40.126,23.161,40.108-43.9,40.108-69.484S281.04,130.515,258.886,143.318Zm0,87.121c-19.541,11.291-35.367,2.128-35.367-20.418s15.9-49.98,35.46-61.272,35.46-2.184,35.46,20.436-15.826,49.98-35.46,61.216Z" transform="translate(-218.76 -137.829)"/></g><g transform="translate(34.546 17.842)"><path class="d" d="M235.464,293.142c-19.82-3.434-31.634-21.668-31.634-48.767a125.884,125.884,0,0,1,8.7-43.672l1.437.541a123.662,123.662,0,0,0-8.6,43.131c0,26.3,11.347,43.971,30.365,47.256Zm37.551-8.828-.747-1.325a126.24,126.24,0,0,0,36.058-32.829l1.213.933a128.05,128.05,0,0,1-36.524,33.221Zm41.918-40.723-1.25-.859c16.8-24.58,26.259-52.631,26.259-76.949,0-2.594-.112-5.17-.336-7.615-.187-2.053-.467-4.087-.8-6.1-2.818-15.864-10.881-27.155-22.695-31.728l.579-1.418c12.318,4.834,20.716,16.554,23.628,32.959.336,1.978.616,4.069.821,6.1.224,2.5.336,5.114.336,7.764C341.472,190.382,331.8,218.75,314.933,243.591Zm-94.119-57.856-1.362-.709a167.675,167.675,0,0,1,17.208-27.211l1.194.952a165.415,165.415,0,0,0-17.04,27.043Z" transform="translate(-203.83 -118.92)"/></g><g transform="translate(0 0.915)"><path class="d" d="M331.3,298.63l-1.12-1.026c33.594-36.6,56.774-86.9,60.507-131.091l1.512.131C388.452,211.155,365.123,261.732,331.3,298.63ZM186.832,272.968H185.32c0-31.877,10.657-68.047,30.253-101.846l1.306.765c-19.373,33.426-30.048,69.372-30.048,101.043Zm204.1-127.545a89.4,89.4,0,0,0-8.809-34.863l1.344-.709a90.965,90.965,0,0,1,8.977,35.46Z" transform="translate(-185.32 -109.85)"/></g><g transform="translate(36.729 17.469)"><path class="i" d="M236.728,292.942C216.907,289.508,205,271.274,205,244.156a125.549,125.549,0,0,1,8.716-43.672l1.418.56a124.074,124.074,0,0,0-8.6,43.112c0,26.315,11.347,43.99,30.365,47.256Zm37.569-8.828-.765-1.306a126.594,126.594,0,0,0,36.095-32.922l1.213.915a127.806,127.806,0,0,1-36.506,33.314Zm41.918-40.723-1.269-.859c16.685-24.542,26.3-52.631,26.3-76.949,0-2.613-.112-5.17-.336-7.633-.187-2.072-.467-4.087-.8-6.084-2.818-15.883-10.881-27.193-22.695-31.728l.56-1.418c12.336,4.834,20.716,16.536,23.628,32.959.355,1.978.635,4.05.821,6.178.243,2.482.336,5.1.336,7.745.037,24.561-9.649,52.967-26.5,77.789Zm-94.138-57.856-1.362-.691a165.923,165.923,0,0,1,17.208-27.155l1.194.915a165.879,165.879,0,0,0-17,26.95Z" transform="translate(-205 -118.72)"/></g><g transform="translate(1.904)"><path class="i" d="M332.343,298.121l-1.064-.933c33.594-36.58,56.774-86.878,60.507-131.091l1.512.131C389.453,210.683,366.161,261.28,332.343,298.121Zm-144.473-25.7h-1.53c0-31.9,10.75-68.065,30.272-101.865l1.325.765C198.564,204.9,187.87,240.806,187.87,272.422Zm204.1-127.508a89.211,89.211,0,0,0-8.809-34.863l1.362-.691a91.114,91.114,0,0,1,8.977,35.46Z" transform="translate(-186.34 -109.36)"/></g></g><g transform="translate(0 45.42)"><path class="j" d="M158.194,253.18V284.7L69.58,335.859" transform="translate(-57.915 -30.184)"/><g transform="translate(172.71 60.584)"><path class="k" d="M319.118,251.248l-143.26-82.679c-4.871-2.855-9.966-3.191-13.886-.914s-6.1,6.737-6.1,12.336v57.129a22.4,22.4,0,0,0,.243,3.4,32.941,32.941,0,0,0,14.707,22.4l143.26,82.735a16.554,16.554,0,0,0,8.137,2.37,11.2,11.2,0,0,0,10.209-6.364h0a16.032,16.032,0,0,0,1.624-7.465V277.059a32.549,32.549,0,0,0-14.931-25.811ZM165.892,179.991c0-2.09.579-3.341,1.12-3.733a1.567,1.567,0,0,1,.746-.131,6.738,6.738,0,0,1,2.93.952h.131l143.26,82.735a22.564,22.564,0,0,1,9.966,17.1v57.166a7.223,7.223,0,0,1-.261,2.053.187.187,0,0,1,0,.131,2.445,2.445,0,0,1-.821,1.437c-.579.336-1.978.168-3.733-.859L175.971,254.1A22.489,22.489,0,0,1,166,236.97Z" transform="translate(-155.87 -166.158)"/><path class="l" d="M320.605,332.291c-1.4,8.175-7.223,3.378-7.223,3.378s-134.376-76.762-144.716-84.116-9.126-15.211-9.126-15.211V174.473c0-6.569,6.943-2.184,8.007-1.437a6.738,6.738,0,0,0-2.93-.952,1.568,1.568,0,0,0-.747.131c-.541.317-1.12,1.568-1.12,3.733v57.129a22.489,22.489,0,0,0,9.966,17.133l143.26,82.735c1.866,1.026,3.229,1.194,3.733.859a2.445,2.445,0,0,0,.9-1.512Z" transform="translate(-152.728 -162.041)"/><path class="m" d="M332.313,307.137A11.2,11.2,0,0,1,322.1,313.5a16.554,16.554,0,0,1-8.137-2.352L170.707,228.4A32.941,32.941,0,0,1,156,206c4.423,14.632,14.035,19.951,14.035,19.951l134.152,78.218s10.452,6.868,17.264,7.615a12.8,12.8,0,0,0,10.862-4.647Z" transform="translate(-155.757 -131.642)"/><path class="n" d="M171.985,168.13a13.475,13.475,0,0,0-8.641-1.456,14.782,14.782,0,0,0-5.114,2.669s4.143-1.736,7.092-.429,150.949,87.1,150.949,87.1,9.332,8.119,9.686,18.775,0,63.623,0,63.623a11.2,11.2,0,0,1-1.866,5.1c3.733-1.866,5.356-3.546,5.935-6.066s.3-61.589.3-61.589A30.832,30.832,0,0,0,317.5,252.134C307.817,246.348,171.985,168.13,171.985,168.13Z" transform="translate(-153.825 -165.869)"/></g><path class="o" d="M130.04,337.828a28.835,28.835,0,0,0-13.064-22.564c-3.938-2.277-7.465-2.314-9.854-.541h0l-9.481,5.17,18.85,31.728,9.668-5.319h.112C128.6,344.827,130.04,341.934,130.04,337.828Z" transform="translate(-33.606 22.045)"/><path class="p" d="M95.7,325.626a28.816,28.816,0,0,0,13.064,22.564c7.241,4.181,13.064.84,13.064-7.465a28.741,28.741,0,0,0-13.064-22.564C101.56,314,95.7,317.34,95.7,325.626Z" transform="translate(-35.287 24.56)"/><path class="o" d="M228.928,394.31a28.8,28.8,0,0,0-13.064-22.564c-3.919-2.277-7.465-2.314-9.854-.56h0l-9.5,5.188L215.379,408.1l9.668-5.319h.112C227.491,401.234,228.928,398.341,228.928,394.31Z" transform="translate(52.049 70.974)"/><path class="p" d="M194.58,382.066a28.854,28.854,0,0,0,13.064,22.564c7.223,4.162,13.064.821,13.064-7.465A28.854,28.854,0,0,0,207.644,374.6C200.44,370.439,194.58,373.78,194.58,382.066Z" transform="translate(50.376 73.456)"/><path class="q" d="M197.26,381.979a17.861,17.861,0,0,0,8.081,13.941c4.461,2.576,8.081.5,8.081-4.61a17.805,17.805,0,0,0-8.081-13.941C200.881,374.775,197.26,376.847,197.26,381.979Z" transform="translate(52.698 76.436)"/><path class="q" d="M98.38,325.547a17.823,17.823,0,0,0,8.081,13.941c4.479,2.576,8.1.5,8.1-4.61a17.768,17.768,0,0,0-8.1-13.942C102,318.306,98.38,320.414,98.38,325.547Z" transform="translate(-32.965 27.532)"/><path class="r" d="M96.6,360.909l150.539-86.915V247.51L96.6,334.425Z" transform="translate(-34.507 -35.096)"/><path class="s" d="M153.57,387.239l150.539-86.915V273.84L153.57,360.755Z" transform="translate(14.848 -12.286)"/><path class="q" d="M175.828,387.866l133.5-77.061v-34L158.77,363.715Z" transform="translate(19.353 -9.721)"/><path class="q" d="M118.85,361.544l133.5-77.061V250.46L101.81,337.394Z" transform="translate(-29.993 -32.541)"/><path class="r" d="M203.97,423.529l150.539-86.915V310.13L203.97,397.045Z" transform="translate(58.511 19.154)"/><path class="t" d="M222.746,424.339l133.5-77.08,7.484-34.359L213.19,399.815Z" transform="translate(66.499 21.553)"/><path class="u" d="M311.1,447.959,96.6,324.128V294.08L311.1,417.911Z" transform="translate(-34.507 5.249)"/><path class="t" d="M211.53,393.874l12.654-7.316V356.51l-12.654,7.316Z" transform="translate(65.061 59.334)"/><path class="r" d="M311.1,421.307l12.654-7.316L109.272,290.16,96.6,297.476Z" transform="translate(-34.507 1.853)"/><path class="u" d="M192.512,386.129,149.25,361.176V280.42l43.262,24.971Z" transform="translate(11.106 -6.585)"/><path class="k" d="M172.43,377.934l12.654-7.316V289.88L172.43,297.2Z" transform="translate(31.187 1.61)"/><path class="s" d="M192.512,308.788l12.654-7.316L161.922,276.5l-12.672,7.316Z" transform="translate(11.106 -9.981)"/><path class="k" d="M212.66,383.687l150.557-86.915V270.96L212.66,357.875Z" transform="translate(66.04 -14.781)"/><path class="v" d="M75.778,212.276l6.234-3.583c4.946-12.038,13.792-23.255,23.87-29.077l72.787-42.067c10.1-5.823,18.943-4.815,23.889,1.493l6.234-3.6c3.359-1.866,6.4-2.165,8.641-.989.28.168,6.551,3.975,6.812,4.181,1.866,1.418-3,.373-3,3.919V245.944a27.472,27.472,0,0,1-12.448,21.481L75.778,344.263c-6.868,3.957-12.448.784-12.448-7.111V233.757a27.472,27.472,0,0,1,12.448-21.482Z" transform="translate(-63.33 -133.697)"/><path class="t" d="M79.383,214.476l6.215-3.583c4.964-12.038,13.792-23.255,23.889-29.078l72.787-42.067c10.1-5.823,18.943-4.815,23.889,1.493l6.215-3.6c6.887-3.957,12.448-.784,12.448,7.111V248.07a27.416,27.416,0,0,1-12.448,21.481L79.308,346.388c-6.868,3.957-12.448.784-12.448-7.092V235.9a27.472,27.472,0,0,1,12.523-21.426Z" transform="translate(-60.272 -131.791)"/><path class="w" d="M212.418,137.609l-6.215,3.6c-4.946-6.308-13.792-7.316-23.889-1.493l-72.787,42.067c-10.1,5.823-18.925,17.04-23.889,29.078l-6.29,3.639A27.473,27.473,0,0,0,66.9,235.983v3.1A27.472,27.472,0,0,1,79.348,217.6l6.215-3.583c4.964-12.038,13.792-23.255,23.889-29.078l72.787-42.067c10.1-5.823,18.943-4.815,23.889,1.493l6.215-3.6c6.887-3.957,12.448-.784,12.448,7.111v-3.1C224.867,136.825,219.3,133.652,212.418,137.609Z" transform="translate(-60.237 -131.817)"/><path class="s" d="M336.156,429.183l150.557-86.915L220.649,188.65,70.11,275.565Z" transform="translate(-57.456 -86.089)"/><path class="x" d="M226.434,350.471l150.539-86.915V234.814L73.04,200.38v28.742Z" transform="translate(-54.918 -75.927)"/><path class="y" d="M155.23,305.745v28.742l150.539-86.915V218.83Z" transform="translate(16.286 -59.943)"/><path class="x" d="M263.938,368.317,414.495,281.4V252.66L155.97,277.24v28.742Z" transform="translate(16.927 -30.635)"/><path class="y" d="M213.82,339.575v28.742L364.377,281.4V252.66Z" transform="translate(67.045 -30.635)"/><path class="c" d="M226.434,362.074l150.539-86.915L223.579,153.81,73.04,240.725Z" transform="translate(-54.918 -116.272)"/><path class="z" d="M250.809,181.2l81.745,70.23L190.246,335.565,116.19,280.9l72.862,57.446L339.59,251.43Z" transform="translate(-17.536 -92.543)"/><path class="aa" d="M250.754,182.5c2.09,1.642,7.671,5.6,2.688,7.969a8.957,8.957,0,0,0-1.866.784,3.285,3.285,0,0,0-.672,3.434c1.176,4.5,5.375,7.465,9.332,9.854a155.879,155.879,0,0,0,28,14.147c5.9,2.165,11.982,3.733,17.823,6.122a120.476,120.476,0,0,1,18.383,9.462,10.955,10.955,0,0,1,3.957,3.471,3.845,3.845,0,0,1-.56,4.834,7.074,7.074,0,0,1-3.863.877c-3.621.261-7.055,1.866-10.675,2.034-8.025.429-14.613-5.767-21.332-10.153-11.8-7.708-26.129-10.4-39.044-15.9a31.279,31.279,0,0,0-6.495-2.3,24.263,24.263,0,0,0-5.076-.187,127.828,127.828,0,0,0-26.819,3.938c-5.711,1.474-15.752,3.061-15.491,10.806a20.529,20.529,0,0,0,2.8,8.436,77.024,77.024,0,0,0,11.553,17.786,125.16,125.16,0,0,0,13.456,11.441,47.235,47.235,0,0,1,12,12.822,20.026,20.026,0,0,1,2,16.965,29.863,29.863,0,0,1-3.882,6.514,183.143,183.143,0,0,1-13.9,17.8c-6.439-9.145-15.4-16.218-24.766-22.4s-19.242-11.254-28.462-17.562a7.035,7.035,0,0,1-2.426-2.314,6.625,6.625,0,0,1-.635-2.09l-2.352-11.926a7.727,7.727,0,0,0-.728-2.333,7.466,7.466,0,0,0-1.866-2.09c-3.359-2.837-6.7-5.711-10.116-8.51-2.034-1.68-1.866-1.866-4.218-1.045-.205,0-1.866,1.194-2.109,1.064S115.314,232.7,107.1,226.546,82,206.24,82,206.24l27.3-15.752Z" transform="translate(-47.156 -91.417)"/><path class="ab" d="M150.275,274.732s48.077-18.794,64-28.2c13.923-8.212,54.982-40.369,54.982-40.369s-24.8-26.129-34.21-33.445C226.477,166,198.053,149.8,198.053,149.8s-48.245,18.794-62.765,27.043c-15.733,8.94-56.158,41.619-56.158,41.619s19.018,22.62,26.6,28.854C115.822,255.621,150.275,274.732,150.275,274.732Z" transform="translate(-49.642 -119.746)"/><path class="ac" d="M150.275,274.732s48.077-29.731,64-39.193c13.923-8.137,54.982-29.376,54.982-29.376s-24.8-26.129-34.21-33.445C226.477,166,198.053,149.8,198.053,149.8s-48.245,18.794-62.765,27.043c-15.733,8.94-56.158,41.619-56.158,41.619s29.208,12.411,36.785,18.663C126.012,245.356,150.275,274.732,150.275,274.732Z" transform="translate(-49.642 -119.746)"/><path class="c" d="M263.938,368.511,414.495,281.6,306.527,219.26,155.97,306.175Z" transform="translate(16.927 -59.57)"/><path class="ad" d="M70.11,235.22v25.83l266.046,153.6V388.838Z" transform="translate(-57.456 -45.744)"/><path class="t" d="M286.51,432.54l150.539-86.915v-34L286.51,398.535Z" transform="translate(130.019 20.444)"/><path class="s" d="M350.489,435.467l150.539-86.915L363.217,268.99,212.66,355.905Z" transform="translate(66.04 -16.487)"/><path class="x" d="M350.592,410.947l150.539-86.915V295.29L215.04,303.95v28.742Z" transform="translate(68.102 6.297)"/><path class="y" d="M287.67,382.205v28.742l150.539-86.915V295.29Z" transform="translate(131.024 6.297)"/><path class="c" d="M350.592,418.531l150.539-86.915L365.579,253.36,215.04,340.275Z" transform="translate(68.102 -30.028)"/><path class="ad" d="M212.66,315.56v34l137.829,79.562v-34Z" transform="translate(66.04 23.858)"/><path class="z" d="M365.579,253.36l128.516,78.255-143.5,83.332L215.04,340.275l135.552,78.255,150.539-86.915Z" transform="translate(68.102 -30.028)"/><path class="z" d="M295.546,218.83l102.313,63.138-143.5,83.313L167.03,318.455l87.326,50.428,150.557-86.915Z" transform="translate(26.509 -59.943)"/><path class="w" d="M286.51,432.54l2.165-32.959,146.078-83.836,2.3,29.88v-34L286.51,398.535Z" transform="translate(130.019 20.444)"/><g transform="translate(16.349 65.253)"><path class="ae" d="M288.1,251.244a11.386,11.386,0,0,1-1.026,3.21c-.243.3-9.612,1.866-10.955,2.352a2.65,2.65,0,0,1-1.661-.3c-1.4-.579-3.079-1.866-3.733-2.109-1.064-.485-7.129-4.442-7.615-4.89s-3.9-5.3-5.487-6.308-27.23-8.454-33.127-10.582-28.854-12.318-31.037-14.389c-1.325-1.269-10.993-7-16.8-14.035-3.733-4.554-5.9-9.686-3.117-14.483,7.092-12.243,9.332-7.82,9.332-7.82.355.8,16.162,9.724,20.623,12.467s13.68,6.271,22.172,13.326,35.087,22,38.652,24.6,18.57,7.876,19.727,8.977S288.362,249.957,288.1,251.244Z" transform="translate(14.712 -157.871)"/><path class="af" d="M271.266,246.235l.9,2.146a18.664,18.664,0,0,1,.971,2.818c-1.4-.579-3.079-1.866-3.733-2.109-1.064-.485-7.129-4.442-7.615-4.89s-3.9-5.3-5.487-6.308-27.23-8.454-33.127-10.582-28.854-12.318-31.037-14.389c-1.325-1.269-10.993-7-16.8-14.035-1.026-3.546-1.586-5.748-1.586-5.748l6.793-5.9s5.487,9.332,6.028,10.265,6.271,12.728,7.353,13.456a255.484,255.484,0,0,0,24.02,11.926c9.108,3.733,32.624,12.243,36,12.728s5.6,3.975,6.29,4.7a34.152,34.152,0,0,0,3.509,3.994c1.306.989,5.076,3.042,5.076,3.042Z" transform="translate(15.982 -152.563)"/><path class="af" d="M222.22,216.37a17.151,17.151,0,0,0,3.154,2.893,16.015,16.015,0,0,0,3.509,1.176l1.866,1.866s2.277,1.418,3.191,2.016a43.233,43.233,0,0,0,5.786,1.866s-6.345-2.37-5.6-3.733,3.509,0,3.509,0a10.284,10.284,0,0,0,4.853,1.25c2.016-.261,2.37-1.269,2.37-1.269s-8.753-4.517-9.145-4.908-6.961-3.247-6.961-3.247Z" transform="translate(57.973 -129.138)"/><path class="ag" d="M242.848,220.333a1.063,1.063,0,0,1,0,.411,6.364,6.364,0,0,1-1.25,3.621c-.224.411-1.269.858-1.4,1.642s-1.866.989-1.866.989a4.758,4.758,0,0,1-1.362,1.25,24.058,24.058,0,0,1-3.322,1.064,28.967,28.967,0,0,1-5.487.8c-.28-.317-3.1-2.445-3.583-3.527a.579.579,0,0,1,0-.653c.3-.373,1.176-.317,1.176-.317v-.84h0v-.392l1.568-1.194.243-.224v-.392a5.6,5.6,0,0,1,0-1.549c.093-1.045,2.725-.28,3.229,0a37.805,37.805,0,0,0,7.465.877c.653-.3,1.12-2.93,1.12-2.93l-.467-2.65S242.438,218.354,242.848,220.333Z" transform="translate(59.927 -127.37)"/><path class="ag" d="M225.152,220.746a11.515,11.515,0,0,0,6.122,1.194,30.439,30.439,0,0,1,4.237-.261s3.975,2.5,5.8,3.4a6.5,6.5,0,0,0,5.375.168,2.594,2.594,0,0,0,.6-1.866,21,21,0,0,1-3.733-2.949,28.555,28.555,0,0,0-3.826-3.733c-.877-.672-6.644-3.023-7.6-3.733s-4.423-3.882-7.353-1.344-4.386,4.386-3.919,5.468a21.725,21.725,0,0,0,4.293,3.658Z" transform="translate(56.72 -132.281)"/><path class="ah" d="M198.573,198.727c-.709.952-2.464,2.09-3.154,2.874l-.616.653a69.294,69.294,0,0,1-5.767,5.151s-14.24-11.2-15.341-11.2-16.984-26.745-11.2-27.3a30.421,30.421,0,0,1,11.459.728c1.456.56,16.181,12.169,18.663,14.109a109.427,109.427,0,0,1,8.958,8.865,18.776,18.776,0,0,1-3,6.122Z" transform="translate(5.137 -168.66)"/><path class="ai" d="M212.438,211.565l9.033,2.65s.616,1.773,5.972,2.464a118.555,118.555,0,0,1,11.683,2.333,23.068,23.068,0,0,0,5.767,2.632c1.568.093,11.814,3.359,12.337,3.3s54.422,26.39,55.579,27.323-13.456,22.4-17.749,27.025a23.589,23.589,0,0,1-10.34,6.215l-8.025-5.226-12.3-3.733-9.2-.6L222.05,265.838s-22.937-18.962-27.584-23.255-4.162-13.9-4.311-17.8a26.278,26.278,0,0,1,.5-7.82C191.088,215.783,194.727,207.683,212.438,211.565Z" transform="translate(30.111 -132.395)"/><path class="aj" d="M169.014,277.658a76.046,76.046,0,0,0,11.609,9.332c4.554,2.464,33.725,13.643,50.242,16.8s30.048,13.512,30.72,14.016,16.909-11.1,22-15.715,10.787-9.462,10.787-9.462a130.9,130.9,0,0,0-17.6-16.181l-27.361-19s-13.064-22.4-14.371-24.785-28.816-18.383-33.594-17.823S163.863,250.764,169.014,277.658Z" transform="translate(11.405 -128.668)"/><path class="ak" d="M281.427,250.4c-14.016-3.733-18.514,4.069-18.514,4.069s-9.556,7.745-10.862,9.238-6.383,10.041-8.921,14.054S229,297.417,227.527,301.5c-1.213,3.322-8.678,14.2-11.4,18.159l-1.008,1.437s-.131,2.09-4.33-.28-5.786-7.689-8.548-13.606-10.19-9.7-16.33-14.445-7.727-15.472-7.727-15.472L163.1,259.6s-7.633-3.266-12.206-5.319c-.168,0-.373-.205-.635-.355a84.449,84.449,0,0,1-10.993-10.545c-7.857-8.473-16.8-19.559-18.253-24.412a3.061,3.061,0,0,1-.112-1.7,26.128,26.128,0,0,1,2.874-5v-.131l1.138-1.624.205-.28.168-.243c5.3-7.335,13.68-17.338,16.8-21.556a23.74,23.74,0,0,1,6.439-5.263h0c8.007-4.983,20.343-9.985,24.6-10.657,5.879-.933,21.78-5.17,26.409-3.3s9.966,13.811,11.441,15.36,10.843,15.677,10.843,15.677,1.456,3.1,3.173,6.383c1.866,3.583,4.106,7.465,5.17,7.727,2.053.653,13.363,22.639,13.363,22.639l.933.6,2.688,1.642c1.344.8,2.874,1.68,4.349,2.482h0c.467.243.915.485,1.362.691a13.307,13.307,0,0,0,3.919,1.493l6.644.429,7.241.448C271.162,244.879,280.829,250.068,281.427,250.4Z" transform="translate(-29.863 -168.583)"/><path class="al" d="M215.137,226.8a20.062,20.062,0,0,1-4.852,4.33c-2.445,1.344-3.546.093-6.122,3.733a14.819,14.819,0,0,1-3.938,4.311c-2.034-2.725-5.3-4.591-5.935-8.137a2.911,2.911,0,0,0-.467-1.4,2.389,2.389,0,0,0-1.082-.6,30.648,30.648,0,0,0-6.98-1.381,2.744,2.744,0,0,1-2.37-.914,2.24,2.24,0,0,1-.243-1.344c.28-2.557,2.837-4.983,1.661-7.241s-5.244-2.109-5.767-4.61c-.355-1.717,1.474-3.471.84-5.132-.224-.635-2.314-.915-2.725-1.754s-.187-1.026.6-2a4.722,4.722,0,0,0,1.008-4.778c-.653-3.509-2.52-7.2-2.128-10.825,1.866,3.583,4.106,7.465,5.17,7.727,2.053.653,13.363,22.639,13.363,22.639l.933.6a8.693,8.693,0,0,0,1.306,1.194,38.243,38.243,0,0,0,5.73,2.93h0c.467.243.915.485,1.362.691l3.919,1.493Z" transform="translate(18.435 -150.987)"/><path class="al" d="M236.662,230.189c-1.586.28-14.931,7.671-21.873,10.619s-6.98,5.17-7.465,5.6a36.075,36.075,0,0,1-10.116,2.613,53.075,53.075,0,0,1-13.326,0,6.084,6.084,0,0,1,3.919-2.575A45.576,45.576,0,0,0,210.962,228.4l-5.6,5.151a23.59,23.59,0,0,1-5.767,4.33c-3.173,1.456-6.905,1.456-9.966,3.135-1.866,1.064-3.509,2.744-5.6,3.173a9.051,9.051,0,0,1-3.919-.317,36.917,36.917,0,0,1-5.954-2.09,2.538,2.538,0,0,1-1.12-.784c-.672-.952.112-2.258,1.008-3s2.034-1.456,2.221-2.594l-6.868-3.733c-.243-.131-.5-.336-.429-.6a.56.56,0,0,1,.392-.317l4.237-1.717a61.366,61.366,0,0,1-6.663-.877A25.923,25.923,0,0,1,177,223.862c-5.282-.205-10.582,0-15.827,0-1.306,0-11.609,2.053-12.131.485s8.865-5.842,9.817-6.439,20.679-8.6,19.41-9.332-19.783,2.911-23.926,3.733a9.332,9.332,0,0,1-7.465-2.034c-1.25-.691-2.016-7.465-2.016-7.465s-6.812.205-14.147,11.366c5.244,5.6,9.966,10.153,11.646,10.9,4.573,2.034,12.206,5.319,12.206,5.319l15.08,17.693s1.586,10.713,7.727,15.472S190.937,272.088,193.7,278s4.33,11.2,8.548,13.606,4.33.28,4.33.28l.989-1.437c-2.333-1.866-4.293-3.3-4.293-3.3a38.9,38.9,0,0,0,2.09-4.442c0-.523-3.154-1.493-4.983-1.605s-6.681-7.745-6.084-10.6c.5-2.24,1.866-1.717,2.37-1.418-1.362-.9-8.734-5.8-8.585-6.159a72.789,72.789,0,0,1,9.332-2.408c1.12-.187-7.951-3.378-11.067-3.583s-3.061-3.322-.205-3.154,22.508-4.311,22.508-4.311,4.479-2.855,6.681-4.535,7.857-6.551,12.057-8.51S238.248,229.891,236.662,230.189Z" transform="translate(-21.305 -139.074)"/><path class="am" d="M297.676,218.829s-34.565-6.383-37.924-4.33-11.329-2.408-11.329-2.408-.093-7.073-20.53,5.338-23.18,21.836-28.312,28.35-13.363,15.043-13.718,22.695-3.4,17.991-3.4,19.3-28.947,20.81-28.947,20.81l1.68,20.53L403.8,474.032l4.349-20.53,141.375-81.615,4.815,13.885V369.106L307.25,226.406Z" transform="translate(-1.544 -132.772)"/><path class="an" d="M206.748,272.709l-1.754,1.96s-22.228,16.293-23.236,17.17-1.026,17.6-1.026,17.6L153.3,294.191s-3.21-16.312-1.53-21.034,21.482-24.617,21.482-24.617Z" transform="translate(-3.485 -99.457)"/><path class="an" d="M250.98,239.772l26.427-5.076-7.055-6.439L251.578,215.79l-35.124-4.05-9.033,2.09Z" transform="translate(45.151 -131.338)"/><g transform="translate(0 96.319)"><path class="k" d="M235.357,305.358,92.079,222.679c-4.871-2.855-9.948-3.191-13.886-.915s-6.1,6.737-6.1,12.355v57.11a22.175,22.175,0,0,0,.243,3.341,33.016,33.016,0,0,0,14.707,22.4L230.318,399.7a16.46,16.46,0,0,0,8.137,2.352,11.2,11.2,0,0,0,10.19-6.364h0a16.032,16.032,0,0,0,1.624-7.465V331.169A32.586,32.586,0,0,0,235.357,305.358ZM82.131,234.12c0-2.109.579-3.359,1.1-3.733a1.624,1.624,0,0,1,.747-.131,6.663,6.663,0,0,1,2.93.952h.131l143.279,82.735a22.6,22.6,0,0,1,9.948,17.1V388.2a7.279,7.279,0,0,1-.243,2.053.131.131,0,0,1,0,.131,2.445,2.445,0,0,1-.821,1.437c-.579.336-1.978.168-3.733-.859l-143.391-82.6a22.526,22.526,0,0,1-9.948-17.133Z" transform="translate(-72.09 -220.268)"/><path class="l" d="M236.785,386.4c-1.4,8.175-7.223,3.378-7.223,3.378S95.186,313.016,84.847,305.663s-9.126-15.211-9.126-15.211V228.583c0-6.569,6.943-2.184,8.007-1.437a6.663,6.663,0,0,0-2.93-.952,1.623,1.623,0,0,0-.747.131c-.523.317-1.1,1.568-1.1,3.733v57.11A22.527,22.527,0,0,0,88.9,304.3l143.279,82.735c1.866,1.026,3.21,1.194,3.733.858a2.445,2.445,0,0,0,.877-1.493Z" transform="translate(-68.983 -216.151)"/><path class="m" d="M248.533,361.238a11.2,11.2,0,0,1-10.19,6.364,16.462,16.462,0,0,1-8.137-2.352L86.927,282.516a33.016,33.016,0,0,1-14.707-22.4c4.423,14.632,14.054,19.951,14.054,19.951l134.134,78.218s10.451,6.868,17.264,7.615A12.8,12.8,0,0,0,248.533,361.238Z" transform="translate(-71.977 -185.744)"/><path class="n" d="M88.2,222.24a13.475,13.475,0,0,0-8.641-1.456,14.5,14.5,0,0,0-5.1,2.669s4.125-1.736,7.092-.429,150.931,87.1,150.931,87.1,9.332,8.119,9.686,18.775,0,63.623,0,63.623a11.2,11.2,0,0,1-1.866,5.1c3.733-1.866,5.356-3.546,5.935-6.066s.3-61.589.3-61.589a30.832,30.832,0,0,0-12.822-23.721C224.028,300.458,88.2,222.24,88.2,222.24Z" transform="translate(-70.037 -219.979)"/></g><path class="al" d="M146.413,176.48l-4.255,7.017s-16.536,16.909-18.887,19.8c5.3-7.335,13.662-17.338,16.8-21.556A23.739,23.739,0,0,1,146.413,176.48Z" transform="translate(-27.751 -161.885)"/><path class="ae" d="M149.82,262.522a7.858,7.858,0,0,1-2.482.9,3.735,3.735,0,0,1-.989-.243c-5.3-1.866-9.892-13.848-11.385-17.488S125.8,226.5,125.8,226.5l9.332-8.287,3.6-3.21,8.361-7.465,2.911,6.532s1.082,2.37,4.181,9.332l1.008,2.258c1.306,2.93,9.742,17.786,11.59,24.262C167.55,252.687,155.307,259.947,149.82,262.522Z" transform="translate(-25.559 -134.977)"/></g><path class="ao" d="M455.466,336.659s14.464,14.651,12.71,19.466-2.911,12.654-9.332,18.813-21.911,18.57-23.348,20.175-2.613,4.983-12.523,6.905-33.127,4.629-35.012,4.106-20.044-6.42-29.563-13.96-43.094-28.35-43.094-28.35-72.787-33.781-86-39.734-43.448-25.587-47.554-30.608-4.852-25.028-1.866-30.515,40.462-38.279,40.462-38.279,31.205-2.911,33.183-1.96,21.388,11.086,25.419,13.419,71.667,48.786,73.888,51.026,53.956,28.928,62.97,31.728S452.088,323.893,455.466,336.659Z" transform="translate(36.071 -56.739)"/><path class="ap" d="M285.683,243.643s-11.777-1.12-17.077.355-22.9,8.9-30.384,14.165-14.352,7.913-17.6,13.064-20.81,30.123-23.7,35.087-8.66-1.138-9.612-.28-12.411-11.2-12.411-11.2-8.025-12.542-11.422-12.784,4.349-16.8,6.178-18.925,16.349-20.679,19.8-21.911,10.862-9.836,10.862-9.836,12.038-9.332,16.274-12.038a111.047,111.047,0,0,1,19.951-9.574c2.464-.485,17.749,8.585,19.615,7.783s18.831,12.486,25.121,15.211c5,2.165,8.716,7.82,8.566,8.734S290.05,242.467,285.683,243.643Z" transform="translate(22.692 -67.809)"/><path class="aq" d="M210.63,272.407c6.308,3.9,15.08,9.481,20.4,13.494,9,6.812,91.45,43.28,102.051,49.066s58.36,37.177,63.754,39.977a19.932,19.932,0,0,0,7.988,1.157c8.1.28,16.274-.224,24.356-.709l10.022-.635a17.581,17.581,0,0,0,10.451-3.527,62.331,62.331,0,0,1,12.449-6.887,42.927,42.927,0,0,1-16.648,12.635,44.2,44.2,0,0,1-10.1,2.967c-2.594.411-5.375,0-7.895.84a37.214,37.214,0,0,0-6.663,2.93,58.875,58.875,0,0,0-9.332,5.972,33.761,33.761,0,0,1-3.994,3.117,6.383,6.383,0,0,1-4.834.933A8.847,8.847,0,0,1,405.1,389.5a9.331,9.331,0,0,0,2.576-4.181c.635-3.192-1.866-3.6-4.237-4.125a70.2,70.2,0,0,1-9.332-2.949c-10.955-4.162-39.566-26.614-66.255-40.817s-84.246-39.193-98.916-47.069c-2.967-1.568-5.786-3.359-8.6-5.188-2.3-1.512-5.17-.355-7.167,1.362a12.393,12.393,0,0,1-2.2,1.866,7.185,7.185,0,0,1-2.949.6q-6.122.317-12.262.093c-2.37,0-5.076-.392-6.458-2.314-.448-.616-.709-1.362-1.1-2.016a13.643,13.643,0,0,1-2.072-4.852,13.176,13.176,0,0,0-2.594-5.879,16.644,16.644,0,0,0-3.882-3.135,149.3,149.3,0,0,0-20.1-10.918,6.121,6.121,0,0,1-1.866-1.176,2,2,0,0,1-.56-2.072,2.912,2.912,0,0,1,1.045-1.138c3.154-2.314,6.887-4.386,10.769-3.863,3.509.467,6.346,2.967,9.332,5,4.367,3.042,9.332,5.226,13.288,8.79a35.2,35.2,0,0,0,3.546,3.135,8.081,8.081,0,0,0,4.591,1.512c1.866,0,2.594-.747,3.546-2.258,0,0,5.058,3.079,5.338,3.247,2.781,1.68,6.271,1.53,9.481,1.493a4.293,4.293,0,0,0,2.277-.429,1.53,1.53,0,0,0,.672-2,2.221,2.221,0,0,0-1.083-.747,42.589,42.589,0,0,0-16.554-3.061,2.445,2.445,0,0,0-1.1.187c-.952.448-1.026,1.773-.952,2.818Z" transform="translate(17.847 -31.513)"/><path class="ar" d="M163.067,181.972s4.927,6.29,2.482,9.78-11.2,4.946-14.24,5.412-13.624.616-16.032.709-3.733-.541-3.415-2.09,4.237-10.078,4.031-12.392-4.031-9.332-2.967-12.822,18.215-9.126,19.988-6.252S163.067,181.972,163.067,181.972Z" transform="translate(-3.999 -107.854)"/><path class="af" d="M135.67,177.13s7.577,6.476,13.232,8.566,10.489.6,13.979,0,7.148-4.087,7.148-4.964-3.3-8.772-3.3-8.772-.168-1.4-2.949-1.4S136.286,172.482,135.67,177.13Z" transform="translate(-0.659 -101.761)"/><path class="ae" d="M171.629,169.386a97.921,97.921,0,0,1,2.986,17.021c.28,6.98-.485,13.531-2.52,15.136a21.314,21.314,0,0,1-10.19,3.415c-3.378.131-12.6-3.3-16.088-4.946s-6.588-6.346-8.436-8.79-5.767-2.967-7.3-5.73a55.672,55.672,0,0,1-3.733-13.923c-.187-2.65,8.678-17.786,12.8-20.231s11.777-5.6,15.36-5.6,7.671,4.722,9.518,7.465a92.383,92.383,0,0,1,7.6,16.181Z" transform="translate(-8.735 -123.263)"/><path class="as" d="M164.053,156.378a89.092,89.092,0,0,1-10.657,4.834c-4.834,1.7-12.616,7.465-13.288,8.94a20.643,20.643,0,0,0-.336,6.028s1.12,3.733.616,4.5-.168,1.194-.448,2.333,1.624,4.237,1.624,4.237l-1.288,1.362s-4.5-4.367-5.132-3.938,3.733,9,3.733,9-5.356-3.49-7.279-4.834-6.514-8.231-9.052-17.021-2.594-12.336,9.108-24.916,30.44-1.717,32.418,1.7,6.066,7.6,7.092,13.83C165.64,155.389,166.069,153.093,164.053,156.378Z" transform="translate(-13.216 -127.388)"/><path class="at" d="M135.1,169.071a9.911,9.911,0,0,0-3.527-4.255c-2.576-1.754-4.031-2-5.226-.579s-.187,4.162.5,5.748,8.1,5.8,8.1,5.8,2.258.243,3.023-.541-.877-2.911-1.325-3.621Z" transform="translate(-9.216 -108.036)"/><path class="ag" d="M147.79,152.46s-11.609,5.431-13.475,8.473a9.014,9.014,0,0,0-1.456,6.458,44.228,44.228,0,0,1,.5,4.759,63.636,63.636,0,0,0,1.381,8.1c.672,1.866,8.324,4.834,12.9,2.594s4.573-4.013,4.554-4.274a2.856,2.856,0,0,0-2.93-1.736c-1.866.224-5.972,1.344-9.966-1.381a4.8,4.8,0,0,1-.859-5.412c1.325-2.3,1.53-3.453,7.129-4.591a21.892,21.892,0,0,0,8.119-3.061S150.217,153.468,147.79,152.46Z" transform="translate(-3.187 -117.441)"/><path class="ag" d="M144.667,158.084s5.692,10.284,6.98,12.728,1.157,3.023-.149,3.3-4.89.933-4.908,0a27.237,27.237,0,0,1,.205-2.725l-3.565-12.5S143.6,156.236,144.667,158.084Z" transform="translate(5.89 -113.136)"/><path class="ae" d="M226.849,287.306h0l.261,3.975,5.114,3.733s1.194-1.25,1.605-1.624,3.266,2.688,3.322,3.3a29.735,29.735,0,0,1-1.754,4.573h0l-.579.373h0l-4.834,3.135a4.237,4.237,0,0,1-2.855,1.026h-4.983a5.6,5.6,0,0,1-1.978.131h0a12.725,12.725,0,0,1-2.221-.392c-2.762-.709-5.6-1.512-5.6-1.512h-.392l-1.325.168c-.97,0-2.053,0-2.333-.5-.5-1.008-5.6-13.494-6.588-14.931s-14.016-6.831-26.129-14.781c-.821-.523-1.624-1.083-2.426-1.624l-1.306-.9c-4.479-3.079-9.91-7.036-15.136-10.974-1.474-1.1-2.93-2.24-4.4-3.359l-2.594-2.034-1.25-.709-4.013-3.229-2.482-2.09a.336.336,0,0,0-.131-.093,23.591,23.591,0,0,1-4.871-4.909v-.205a4.61,4.61,0,0,1,.355-3.882.262.262,0,0,1,0-.112c.373-.765.859-1.717,1.437-3.042,1.68-3.733,15.117-6.961,15.117-6.961a12.636,12.636,0,0,1,3.453.765c1.026.523,48.525,41.265,51.959,42.534S224.8,277.6,224.8,277.6s6.681,3.733,8.007,4.7a55.015,55.015,0,0,1,6.159,6.663c.149.541-1.7,2.65-4.4,2.016A40.634,40.634,0,0,1,226.849,287.306Z" transform="translate(0.228 -50.387)"/><path class="af" d="M220,320.223c-.971,0-2.053,0-2.333-.5-.5-1.008-5.6-13.494-6.588-14.931s-14.016-6.831-26.129-14.781c-.821-.523-1.624-1.082-2.426-1.624l-1.306-.9c-5.151-3.49-10.19-7.185-15.136-10.974-1.474-1.1-2.93-2.24-4.4-3.359l-2.594-2.034c-.411-.3-.8-.616-1.194-.933l-4.013-3.229-2.482-2.09a.336.336,0,0,0-.131-.093,23.59,23.59,0,0,1-4.871-4.908v-.205c-5.3-1.866-9.892-13.848-11.385-17.488s-9.164-19.186-9.164-19.186l9.332-8.287,3.6-3.21h.392a33.185,33.185,0,0,1,9.07,3.434,9.332,9.332,0,0,1-5.3,4.423c-2.128.877-4.4,1.325-6.57,2.128s-4.367,2.3-4.5,4.554a7.876,7.876,0,0,0,1.866,4.386c3.639,5.86,4.684,13.064,7.857,19.149a10.487,10.487,0,0,0,1.624,2.408c.672.691,1.493,1.232,2.165,1.866a12.787,12.787,0,0,1,1.325,1.866c.261.467.523.933.821,1.381a5.6,5.6,0,0,0,2.3,1.866,13.943,13.943,0,0,1,2.146,1.25c1.008.765,1.866,1.661,2.911,2.482,6.737,5.8,13.531,11.553,20.53,17.058,6.308,5.02,12.822,10.433,20.063,14.035,15.3,7.6,18.253,11.347,18.253,11.347s2.258,8.716,3.135,9.686A48.689,48.689,0,0,1,220,320.223Z" transform="translate(-9.175 -66.302)"/><path class="ah" d="M159.243,223.058c.131.84.187,3.733.205,6.868v9.668c-8.809-1.53-24.15,2.128-26.129,4.423a14.93,14.93,0,0,1-2.221,1.866,49.363,49.363,0,0,1-5.375,3.285,105.186,105.186,0,0,1-2.146-13.064c-.168-4.2-3.621-27.286-2.576-33.818s3.266-7.092,3.266-7.092v-.149a5.053,5.053,0,0,1,.317-.579,11.2,11.2,0,0,1,8.772-5.86c6.588-.56,20.959,6.047,22.657,11.571S158.888,221.1,159.243,223.058Z" transform="translate(-13.538 -86.156)"/><path class="al" d="M124.329,192.986c.224-.579.485-1.213.747-1.866-.131.355-.261.784-.429,1.269a32.549,32.549,0,0,0-1.568,7.839,10.637,10.637,0,0,0,.187,2.743c.765,3.583,3.621,13.587,4.05,17.786.373,3.733,2.855,18.2,3.733,22.937a49.368,49.368,0,0,1-5.375,3.285,105.181,105.181,0,0,1-2.146-13.064c-.168-4.2-3.621-27.286-2.576-33.818S124.217,193,124.217,193Z" transform="translate(-13.581 -83.949)"/><path class="af" d="M177.767,268.266c1.082.485,7.036,4.461,7.465,4.479a14.059,14.059,0,0,1-2.221-.373c-2.762-.728-5.6-1.53-5.6-1.53h-.392l.952-.653S176.665,267.818,177.767,268.266Z" transform="translate(35.164 -17.163)"/><path class="af" d="M188,266.52l-6.084-6.14,1.288-1.96,4.535,4.125Z" transform="translate(39.409 -25.645)"/><path class="af" d="M197.569,269.8l-4.815,3.154A4.293,4.293,0,0,1,189.862,274H184.9a6.233,6.233,0,0,1-1.978.131c.448,0,1.866-1.568,1.866-1.568l-5.1-3.341,9.5,3.565,2.314-.6-7.465-5.6c.485.243,7.951,4.013,8.324,4.125a52.839,52.839,0,0,0,5.207-.915Z" transform="translate(37.477 -18.567)"/><g transform="translate(411.676 287.327)"><path class="au" d="M296.358,366.242l6.215-3.6c4.946-12.019,13.792-23.236,23.889-29.059l72.787-42.067c10.1-5.842,18.943-4.834,23.889,1.493l6.215-3.6c3.359-1.866,6.4-2.165,8.641-.989.3.168,6.551,3.975,6.812,4.181,1.866,1.418-3,.373-3,3.9v65.135a27.416,27.416,0,0,1-12.449,21.482L296.358,460.007c-6.887,3.975-12.448.8-12.448-7.092V387.78a27.379,27.379,0,0,1,12.449-21.538Z" transform="translate(-283.91 -287.649)"/><path class="t" d="M299.888,368.409l6.234-3.583c4.946-12.038,13.792-23.255,23.889-29.077L402.8,293.68c10.078-5.823,18.925-4.834,23.889,1.493l6.215-3.6c6.868-3.957,12.448-.784,12.448,7.111V363.8a27.472,27.472,0,0,1-12.374,21.538L299.888,462.173c-6.868,3.957-12.448.784-12.448-7.111V389.89a27.472,27.472,0,0,1,12.448-21.482Z" transform="translate(-280.852 -285.766)"/><path class="w" d="M432.942,291.571l-6.215,3.6c-4.964-6.327-13.811-7.316-23.889-1.493l-72.787,42.067c-10.1,5.823-18.943,17.04-23.889,29.077l-6.234,3.583a27.454,27.454,0,0,0-12.448,21.463v3.1a27.454,27.454,0,0,1,12.448-21.463l6.234-3.6c4.946-12.019,13.792-23.236,23.889-29.059l72.787-42.067c10.078-5.823,18.925-4.834,23.889,1.493l6.215-3.6c6.868-3.957,12.448-.784,12.448,7.092v-3.079C445.391,290.788,439.81,287.615,432.942,291.571Z" transform="translate(-280.817 -285.766)"/></g></g></g></g></svg>